<svg xmlns="http://www.w3.org/2000/svg" width="38" height="40" viewBox="0 0 38 40" fill="" style="">
    <path d="M33.4375 31.8125H4.5625C4.38845 31.8125 4.22153 31.7434 4.09846 31.6203C3.97539 31.4972 3.90625 31.3303 3.90625 31.1562V23.2812C3.90626 23.1732 3.93293 23.0669 3.98391 22.9716C4.03489 22.8764 4.10859 22.7952 4.19848 22.7352L6.16723 21.4227C6.27504 21.3509 6.40169 21.3125 6.53125 21.3125H31.4688C31.5983 21.3125 31.725 21.3509 31.8328 21.4227L33.8015 22.7352C33.8914 22.7952 33.9651 22.8764 34.0161 22.9716C34.0671 23.0669 34.0937 23.1732 34.0938 23.2812V31.1562C34.0938 31.3303 34.0246 31.4972 33.9015 31.6203C33.7785 31.7434 33.6115 31.8125 33.4375 31.8125ZM5.21875 30.5H32.7812V23.6325L31.2701 22.625H6.7299L5.21875 23.6325V30.5Z" fill="#fff" stroke="#fff" stroke-width="0.4"/>
    <path d="M22.8484 29.1875H15.1516C14.8525 29.189 14.5619 29.0877 14.3286 28.9006C14.0953 28.7134 13.9333 28.4518 13.8698 28.1596L13.2866 25.5346C13.244 25.3427 13.245 25.1436 13.2896 24.9522C13.3342 24.7607 13.4213 24.5818 13.5443 24.4285C13.6674 24.2752 13.8233 24.1515 14.0005 24.0665C14.1778 23.9815 14.3718 23.9374 14.5684 23.9375H23.4316C23.6282 23.9374 23.8222 23.9815 23.9995 24.0665C24.1767 24.1515 24.3326 24.2752 24.4557 24.4285C24.5787 24.5818 24.6658 24.7607 24.7104 24.9522C24.755 25.1436 24.756 25.3427 24.7134 25.5346L24.1302 28.1596C24.0667 28.4518 23.9047 28.7134 23.6714 28.9006C23.4381 29.0877 23.1475 29.189 22.8484 29.1875ZM23.4316 25.25H14.5684L15.1516 27.875H22.8484H22.849L23.4316 25.25ZM10.4688 29.1875H7.84375C7.49578 29.1871 7.16217 29.0487 6.91611 28.8026C6.67006 28.5566 6.53165 28.223 6.53125 27.875V25.25C6.53165 24.902 6.67006 24.5684 6.91611 24.3224C7.16217 24.0763 7.49578 23.9379 7.84375 23.9375H10.4688C10.8167 23.9379 11.1503 24.0763 11.3964 24.3224C11.6424 24.5684 11.7809 24.902 11.7812 25.25V27.875C11.7809 28.223 11.6424 28.5566 11.3964 28.8026C11.1503 29.0487 10.8167 29.1871 10.4688 29.1875ZM7.84375 25.25V27.875H10.4694L10.4688 25.25H7.84375ZM30.1562 29.1875H27.5312C27.1833 29.1871 26.8497 29.0487 26.6036 28.8026C26.3576 28.5566 26.2191 28.223 26.2188 27.875V25.25C26.2191 24.902 26.3576 24.5684 26.6036 24.3224C26.8497 24.0763 27.1833 23.9379 27.5312 23.9375H30.1562C30.5042 23.9379 30.8378 24.0763 31.0839 24.3224C31.3299 24.5684 31.4684 24.902 31.4688 25.25V27.875C31.4684 28.223 31.3299 28.5566 31.0839 28.8026C30.8378 29.0487 30.5042 29.1871 30.1562 29.1875ZM27.5312 25.25V27.875H30.1569L30.1562 25.25H27.5312ZM34.0938 34.4375H3.90625C3.55828 34.4371 3.22467 34.2987 2.97861 34.0526C2.73256 33.8066 2.59415 33.473 2.59375 33.125V31.8125C2.59415 31.4645 2.73256 31.1309 2.97861 30.8849C3.22467 30.6388 3.55828 30.5004 3.90625 30.5H34.0938C34.4417 30.5004 34.7753 30.6388 35.0214 30.8849C35.2674 31.1309 35.4058 31.4645 35.4062 31.8125V33.125C35.4058 33.473 35.2674 33.8066 35.0214 34.0526C34.7753 34.2987 34.4417 34.4371 34.0938 34.4375ZM3.90625 31.8125V33.125H34.0944L34.0938 31.8125H3.90625Z" fill="#fff" stroke="#fff" stroke-width="0.4"/>
    <path d="M22.9375 34.4375H15.0625C14.8885 34.4375 14.7215 34.3684 14.5985 34.2453C14.4754 34.1222 14.4062 33.9553 14.4062 33.7812V31.1562C14.4062 30.9822 14.4754 30.8153 14.5985 30.6922C14.7215 30.5691 14.8885 30.5 15.0625 30.5H22.9375C23.1115 30.5 23.2785 30.5691 23.4015 30.6922C23.5246 30.8153 23.5938 30.9822 23.5938 31.1562V33.7812C23.5938 33.9553 23.5246 34.1222 23.4015 34.2453C23.2785 34.3684 23.1115 34.4375 22.9375 34.4375ZM15.7188 33.125H22.2812V31.8125H15.7188V33.125ZM10.8879 39.6875H6.1121C5.52724 39.6868 4.96653 39.4541 4.553 39.0405C4.13947 38.6269 3.90688 38.0662 3.90625 37.4813V33.7812C3.90625 33.6072 3.97539 33.4403 4.09846 33.3172C4.22153 33.1941 4.38845 33.125 4.5625 33.125H12.4375C12.6115 33.125 12.7785 33.1941 12.9015 33.3172C13.0246 33.4403 13.0938 33.6072 13.0938 33.7812V37.4813C13.0931 38.0662 12.8605 38.6269 12.447 39.0405C12.0335 39.4541 11.4728 39.6868 10.8879 39.6875ZM5.21875 34.4375V37.4813C5.21892 37.7182 5.31309 37.9454 5.48058 38.1129C5.64807 38.2805 5.87519 38.3747 6.1121 38.375H10.8879C11.1248 38.3747 11.3519 38.2805 11.5194 38.1129C11.6869 37.9454 11.7811 37.7182 11.7812 37.4813V34.4375H5.21875Z" fill="#fff" stroke="#fff" stroke-width="0.4"/>
    <path d="M7.1875 39.6875C7.01345 39.6875 6.84653 39.6184 6.72346 39.4953C6.60039 39.3722 6.53125 39.2053 6.53125 39.0312V33.7812C6.53125 33.6072 6.60039 33.4403 6.72346 33.3172C6.84653 33.1941 7.01345 33.125 7.1875 33.125C7.36155 33.125 7.52847 33.1941 7.65154 33.3172C7.77461 33.4403 7.84375 33.6072 7.84375 33.7812V39.0312C7.84375 39.2053 7.77461 39.3722 7.65154 39.4953C7.52847 39.6184 7.36155 39.6875 7.1875 39.6875ZM9.8125 39.6875C9.63845 39.6875 9.47153 39.6184 9.34846 39.4953C9.22539 39.3722 9.15625 39.2053 9.15625 39.0312V33.7812C9.15625 33.6072 9.22539 33.4403 9.34846 33.3172C9.47153 33.1941 9.63845 33.125 9.8125 33.125C9.98655 33.125 10.1535 33.1941 10.2765 33.3172C10.3996 33.4403 10.4688 33.6072 10.4688 33.7812V39.0312C10.4688 39.2053 10.3996 39.3722 10.2765 39.4953C10.1535 39.6184 9.98655 39.6875 9.8125 39.6875ZM31.8879 39.6875H27.1121C26.5272 39.6868 25.9665 39.4541 25.553 39.0405C25.1395 38.6269 24.9069 38.0662 24.9062 37.4813V33.7812C24.9062 33.6072 24.9754 33.4403 25.0985 33.3172C25.2215 33.1941 25.3885 33.125 25.5625 33.125H33.4375C33.6115 33.125 33.7785 33.1941 33.9015 33.3172C34.0246 33.4403 34.0938 33.6072 34.0938 33.7812V37.4813C34.0931 38.0662 33.8605 38.6269 33.447 39.0405C33.0335 39.4541 32.4728 39.6868 31.8879 39.6875ZM26.2188 34.4375V37.4813C26.2189 37.7182 26.3131 37.9454 26.4806 38.1129C26.6481 38.2805 26.8752 38.3747 27.1121 38.375H31.8879C32.1248 38.3747 32.3519 38.2805 32.5194 38.1129C32.6869 37.9454 32.7811 37.7182 32.7812 37.4813V34.4375H26.2188Z" fill="#fff" stroke="#fff" stroke-width="0.4"/>
    <path d="M28.1875 39.6875C28.0134 39.6875 27.8465 39.6184 27.7234 39.4953C27.6004 39.3722 27.5312 39.2053 27.5312 39.0312V33.7812C27.5312 33.6072 27.6004 33.4403 27.7234 33.3172C27.8465 33.1941 28.0134 33.125 28.1875 33.125C28.3615 33.125 28.5285 33.1941 28.6515 33.3172C28.7746 33.4403 28.8437 33.6072 28.8437 33.7812V39.0312C28.8437 39.2053 28.7746 39.3722 28.6515 39.4953C28.5285 39.6184 28.3615 39.6875 28.1875 39.6875ZM30.8125 39.6875C30.6384 39.6875 30.4715 39.6184 30.3484 39.4953C30.2254 39.3722 30.1562 39.2053 30.1562 39.0312V33.7812C30.1562 33.6072 30.2254 33.4403 30.3484 33.3172C30.4715 33.1941 30.6384 33.125 30.8125 33.125C30.9865 33.125 31.1535 33.1941 31.2765 33.3172C31.3996 33.4403 31.4687 33.6072 31.4687 33.7812V39.0312C31.4687 39.2053 31.3996 39.3722 31.2765 39.4953C31.1535 39.6184 30.9865 39.6875 30.8125 39.6875ZM31.4687 22.625H6.53124C6.4358 22.625 6.3415 22.6042 6.25492 22.5641C6.16834 22.5239 6.09156 22.4653 6.02994 22.3925C5.96832 22.3196 5.92333 22.2341 5.89812 22.1421C5.87291 22.05 5.86809 21.9536 5.88398 21.8595L7.11773 14.5489C7.16634 14.2396 7.32363 13.9578 7.56134 13.7541C7.79906 13.5504 8.10162 13.4382 8.41467 13.4375H10.6886C10.8626 13.4375 11.0295 13.5066 11.1526 13.6297C11.2757 13.7528 11.3448 13.9197 11.3448 14.0938C11.3448 14.2678 11.2757 14.4347 11.1526 14.5578C11.0295 14.6809 10.8626 14.75 10.6886 14.75H8.41467L7.30732 21.3125H30.6927L29.5878 14.7673L27.2916 14.75C27.1175 14.75 26.9506 14.6809 26.8275 14.5578C26.7045 14.4347 26.6353 14.2678 26.6353 14.0938C26.6353 13.9197 26.7045 13.7528 26.8275 13.6297C26.9506 13.5066 27.1175 13.4375 27.2916 13.4375H29.5853C29.9009 13.4391 30.2054 13.5536 30.4438 13.7605C30.6822 13.9673 30.8386 14.2526 30.8847 14.5648L32.1157 21.8595C32.1316 21.9536 32.1268 22.05 32.1016 22.142C32.0764 22.2341 32.0314 22.3195 31.9699 22.3924C31.9083 22.4652 31.8315 22.5238 31.745 22.564C31.6584 22.6042 31.5642 22.625 31.4687 22.625Z" fill="#fff" stroke="#fff" stroke-width="0.4"/>
    <path d="M6.53125 22.6251H2.59952C2.07602 22.6246 1.57411 22.4163 1.20394 22.0462C0.833764 21.676 0.625556 21.1741 0.625 20.6506V19.5666C0.625347 19.1596 0.787161 18.7694 1.07493 18.4815C1.36269 18.1937 1.7529 18.0318 2.1599 18.0314H4.48047C5.19815 18.0322 5.88619 18.3177 6.39367 18.8252C6.90115 19.3327 7.18663 20.0207 7.1875 20.7384V21.9689C7.1875 22.1429 7.11836 22.3098 6.99529 22.4329C6.87222 22.556 6.7053 22.6251 6.53125 22.6251ZM2.1599 19.3439C2.10092 19.3441 2.04441 19.3676 2.00274 19.4093C1.96106 19.4511 1.9376 19.5076 1.9375 19.5666V20.6506C1.93771 20.8261 2.00752 20.9944 2.13163 21.1185C2.25574 21.2426 2.42401 21.3124 2.59952 21.3126H5.875V20.7384C5.87462 20.3687 5.72757 20.0142 5.46613 19.7527C5.20469 19.4913 4.8502 19.3442 4.48047 19.3439H2.1599ZM35.4005 22.6251H31.4688C31.2947 22.6251 31.1278 22.556 31.0047 22.4329C30.8816 22.3098 30.8125 22.1429 30.8125 21.9689V20.7384C30.8134 20.0207 31.0989 19.3327 31.6063 18.8252C32.1138 18.3177 32.8018 18.0322 33.5195 18.0314H35.8401C36.2471 18.0318 36.6373 18.1937 36.9251 18.4815C37.2128 18.7694 37.3747 19.1596 37.375 19.5666V20.6506C37.3744 21.1741 37.1662 21.676 36.7961 22.0462C36.4259 22.4163 35.924 22.6246 35.4005 22.6251ZM32.125 21.3126H35.4005C35.576 21.3124 35.7443 21.2426 35.8684 21.1185C35.9925 20.9944 36.0623 20.8261 36.0625 20.6506V19.5666C36.0624 19.5076 36.0389 19.4511 35.9973 19.4093C35.9556 19.3676 35.8991 19.3441 35.8401 19.3439H33.5195C33.1498 19.3442 32.7953 19.4913 32.5339 19.7527C32.2724 20.0142 32.1254 20.3687 32.125 20.7384V21.3126ZM19 13.4376C18.8848 13.4378 18.7716 13.4075 18.6719 13.3498L16.3987 12.0373C16.2989 11.9797 16.2161 11.8968 16.1585 11.7971C16.1009 11.6973 16.0705 11.5841 16.0706 11.4689V8.84386C16.0705 8.72865 16.1009 8.61546 16.1585 8.51567C16.2161 8.41589 16.2989 8.33303 16.3987 8.27542L18.6719 6.96292C18.7716 6.90532 18.8848 6.875 19 6.875C19.1152 6.875 19.2284 6.90532 19.3281 6.96292L21.6013 8.27542C21.7011 8.33303 21.7839 8.41589 21.8415 8.51567C21.8991 8.61546 21.9295 8.72865 21.9294 8.84386V11.4689C21.9295 11.5841 21.8991 11.6973 21.8415 11.7971C21.7839 11.8968 21.7011 11.9797 21.6013 12.0373L19.3281 13.3498C19.2284 13.4075 19.1152 13.4378 19 13.4376ZM17.3831 11.0901L19 12.0235L20.6169 11.0901V9.22259L19 8.2892L17.3831 9.22259V11.0901Z" fill="#fff" stroke="#fff" stroke-width="0.4"/>
    <path d="M19 8.1875C18.826 8.1875 18.659 8.11836 18.536 7.99529C18.4129 7.87222 18.3438 7.7053 18.3438 7.53125V3.59375C18.3438 3.4197 18.4129 3.25278 18.536 3.12971C18.659 3.00664 18.826 2.9375 19 2.9375C19.174 2.9375 19.341 3.00664 19.464 3.12971C19.5871 3.25278 19.6562 3.4197 19.6562 3.59375V7.53125C19.6562 7.7053 19.5871 7.87222 19.464 7.99529C19.341 8.11836 19.174 8.1875 19 8.1875Z" fill="#fff" stroke="#fff" stroke-width="0.4"/>
    <path d="M19.0051 6.25404C18.8734 6.25423 18.7446 6.21447 18.636 6.13998L16.6614 4.79224C16.5176 4.69417 16.4187 4.54298 16.3864 4.37195C16.354 4.20092 16.391 4.02405 16.489 3.88025C16.5871 3.73645 16.7383 3.6375 16.9093 3.60517C17.0804 3.57284 17.2572 3.60978 17.401 3.70785L19.3756 5.0556C19.4915 5.13465 19.579 5.24879 19.6253 5.38125C19.6716 5.51371 19.6743 5.65753 19.6328 5.7916C19.5914 5.92566 19.5081 6.04291 19.3951 6.12614C19.2821 6.20937 19.1454 6.2542 19.0051 6.25404Z" fill="#fff" stroke="#fff" stroke-width="0.4"/>
    <path d="M19.0006 6.25407C18.8604 6.25412 18.7238 6.20926 18.611 6.12604C18.4981 6.04283 18.4148 5.92565 18.3734 5.79167C18.332 5.6577 18.3346 5.51398 18.3808 5.38158C18.427 5.24918 18.5144 5.13506 18.6302 5.05595L20.5989 3.71208C20.67 3.66065 20.7506 3.62398 20.8361 3.60424C20.9216 3.5845 21.0101 3.58209 21.0965 3.59716C21.1829 3.61223 21.2654 3.64446 21.3392 3.69196C21.4129 3.73946 21.4764 3.80127 21.5258 3.87371C21.5753 3.94616 21.6097 4.02779 21.627 4.11376C21.6444 4.19974 21.6444 4.28832 21.6269 4.37428C21.6094 4.46024 21.5749 4.54182 21.5254 4.61422C21.4759 4.68661 21.4123 4.74833 21.3385 4.79575L19.3698 6.13968C19.2612 6.2144 19.1325 6.2543 19.0006 6.25407ZM16.7249 9.50231C16.6102 9.50227 16.4975 9.4721 16.3981 9.41483L12.986 7.44962C12.8352 7.36277 12.725 7.21954 12.6798 7.05146C12.6345 6.88337 12.6579 6.7042 12.7448 6.55335C12.8316 6.4025 12.9749 6.29234 13.1429 6.24709C13.311 6.20184 13.4902 6.22522 13.6411 6.31208L17.053 8.27729C17.1784 8.34942 17.2764 8.46093 17.3318 8.59449C17.3872 8.72804 17.397 8.87617 17.3596 9.01585C17.3222 9.15553 17.2397 9.27894 17.1249 9.36691C17.0101 9.45488 16.8695 9.50248 16.7249 9.50231Z" fill="#fff" stroke="#fff" stroke-width="0.4"/>
    <path d="M12.9002 9.5704C12.7515 9.57064 12.6071 9.52033 12.4907 9.42773C12.3743 9.33513 12.2928 9.20573 12.2595 9.06074C12.2263 8.91575 12.2433 8.76377 12.3078 8.62972C12.3723 8.49567 12.4804 8.3875 12.6144 8.32294L14.7677 7.28442C14.9245 7.20879 15.1049 7.19854 15.2693 7.25594C15.4337 7.31333 15.5685 7.43366 15.6441 7.59046C15.7197 7.74726 15.73 7.92769 15.6726 8.09204C15.6152 8.2564 15.4949 8.39122 15.3381 8.46685L13.1848 9.50537C13.096 9.54813 12.9988 9.57036 12.9002 9.5704Z" fill="#fff" stroke="#fff" stroke-width="0.4"/>
    <path d="M15.0494 8.53705C14.8841 8.53688 14.725 8.47436 14.6038 8.36197C14.4826 8.24958 14.4083 8.0956 14.3957 7.9308L14.214 5.55413C14.2007 5.38058 14.2569 5.20888 14.3703 5.0768C14.4836 4.94471 14.6448 4.86306 14.8183 4.84981C14.9919 4.83655 15.1636 4.89278 15.2957 5.00612C15.4278 5.11947 15.5094 5.28064 15.5227 5.45418L15.704 7.83079C15.7106 7.91672 15.7001 8.0031 15.6733 8.085C15.6465 8.16691 15.6038 8.24273 15.5477 8.30813C15.4916 8.37354 15.4231 8.42725 15.3462 8.4662C15.2694 8.50515 15.1856 8.52858 15.0996 8.53514C15.0822 8.53639 15.0657 8.53705 15.0494 8.53705ZM13.3238 14.1053C13.1794 14.1055 13.0388 14.0581 12.9241 13.9703C12.8093 13.8825 12.7267 13.7593 12.6891 13.6198C12.6515 13.4803 12.661 13.3323 12.7161 13.1988C12.7712 13.0652 12.8688 12.9536 12.9938 12.8812L16.3997 10.9054C16.4743 10.8621 16.5566 10.834 16.6421 10.8225C16.7275 10.8111 16.8143 10.8166 16.8976 10.8387C16.9809 10.8608 17.059 10.8992 17.1275 10.9515C17.196 11.0038 17.2535 11.0691 17.2968 11.1436C17.3401 11.2182 17.3682 11.3005 17.3797 11.3859C17.3911 11.4714 17.3856 11.5582 17.3635 11.6415C17.3413 11.7248 17.303 11.8029 17.2507 11.8714C17.1984 11.9399 17.1331 11.9974 17.0586 12.0407L13.6526 14.0165C13.5527 14.0745 13.4393 14.1051 13.3238 14.1053Z" fill="#fff" stroke="#fff" stroke-width="0.4"/>
    <path d="M14.8792 15.4789C14.8632 15.4789 14.8472 15.4783 14.8305 15.4774C14.7446 15.471 14.6607 15.4478 14.5837 15.4091C14.5068 15.3703 14.4382 15.3168 14.3819 15.2516C14.3256 15.1863 14.2827 15.1106 14.2556 15.0288C14.2286 14.9469 14.2179 14.8606 14.2243 14.7746L14.3992 12.3903C14.4157 12.2196 14.4983 12.0622 14.6294 11.9517C14.7604 11.8412 14.9295 11.7863 15.1005 11.7989C15.2715 11.8114 15.4308 11.8904 15.5443 12.0189C15.6578 12.1474 15.7165 12.3152 15.7079 12.4864L15.5329 14.8708C15.5209 15.036 15.4468 15.1905 15.3256 15.3033C15.2043 15.4161 15.0448 15.4789 14.8792 15.4789Z" fill="#fff" stroke="#fff" stroke-width="0.4"/>
    <path d="M15.0559 13.0999C14.9581 13.0999 14.8615 13.0779 14.7734 13.0355L12.6232 12.0065C12.5439 11.9703 12.4725 11.9187 12.4134 11.8546C12.3542 11.7906 12.3084 11.7154 12.2787 11.6334C12.2489 11.5514 12.2358 11.4643 12.24 11.3772C12.2443 11.2901 12.2659 11.2048 12.3036 11.1261C12.3412 11.0474 12.3942 10.9771 12.4593 10.9191C12.5245 10.8612 12.6005 10.8168 12.683 10.7885C12.7655 10.7603 12.8529 10.7488 12.9399 10.7547C13.0269 10.7606 13.1118 10.7837 13.1898 10.8228L15.3399 11.8518C15.4741 11.9161 15.5825 12.0241 15.6473 12.1581C15.7121 12.2921 15.7294 12.4441 15.6963 12.5892C15.6633 12.7344 15.582 12.864 15.4656 12.9567C15.3492 13.0495 15.2048 13.1 15.0559 13.0999ZM19.0197 17.3751C18.846 17.3751 18.6793 17.3062 18.5563 17.1836C18.4333 17.0609 18.364 16.8945 18.3634 16.7208L18.3512 12.7833C18.351 12.6971 18.3677 12.6117 18.4005 12.5319C18.4332 12.4522 18.4814 12.3797 18.5422 12.3186C18.603 12.2575 18.6752 12.2089 18.7547 12.1757C18.8343 12.1425 18.9196 12.1253 19.0058 12.1251H19.0077C19.1814 12.1251 19.348 12.194 19.4711 12.3166C19.5941 12.4393 19.6634 12.6057 19.6639 12.7795L19.6761 16.717C19.6764 16.8031 19.6597 16.8885 19.6269 16.9682C19.5942 17.048 19.546 17.1204 19.4853 17.1816C19.4245 17.2427 19.3523 17.2912 19.2728 17.3244C19.1933 17.3576 19.108 17.3749 19.0218 17.3751H19.0197Z" fill="#fff" stroke="#fff" stroke-width="0.4"/>
    <path d="M20.9861 16.7126C20.8549 16.7127 20.7267 16.6733 20.6182 16.5995L18.6391 15.2578C18.495 15.1601 18.3957 15.0091 18.363 14.8381C18.3302 14.6672 18.3667 14.4902 18.4644 14.3462C18.5622 14.2021 18.7131 14.1028 18.8841 14.0701C19.055 14.0373 19.232 14.0738 19.376 14.1716L21.3551 15.5132C21.4713 15.592 21.5592 15.7061 21.6058 15.8386C21.6524 15.9711 21.6553 16.1151 21.6139 16.2494C21.5726 16.3836 21.4893 16.5011 21.3763 16.5844C21.2632 16.6678 21.1264 16.7127 20.9859 16.7126H20.9861Z" fill="#fff" stroke="#fff" stroke-width="0.4"/>
    <path d="M17.0498 16.7207C16.9097 16.7209 16.7732 16.6762 16.6603 16.5932C16.5474 16.5101 16.4641 16.3932 16.4225 16.2594C16.3808 16.1256 16.3832 15.982 16.429 15.8496C16.4749 15.7172 16.562 15.6029 16.6775 15.5236L18.6418 14.1739C18.7128 14.1251 18.7927 14.0908 18.877 14.0729C18.9613 14.055 19.0483 14.0538 19.1331 14.0695C19.2178 14.0852 19.2986 14.1175 19.3709 14.1644C19.4432 14.2114 19.5055 14.2721 19.5543 14.3431C19.6032 14.4142 19.6375 14.4941 19.6554 14.5784C19.6733 14.6627 19.6745 14.7497 19.6587 14.8345C19.643 14.9192 19.6108 15 19.5638 15.0723C19.5169 15.1446 19.4562 15.2069 19.3852 15.2557L17.4209 16.6053C17.3118 16.6805 17.1824 16.7208 17.0498 16.7207ZM24.6963 14.071C24.5823 14.0711 24.4702 14.0412 24.3713 13.9845L20.9529 12.0289C20.8768 11.9868 20.8098 11.9301 20.7559 11.8619C20.7019 11.7937 20.662 11.7155 20.6385 11.6317C20.6151 11.548 20.6085 11.4604 20.6191 11.3741C20.6298 11.2878 20.6575 11.2045 20.7007 11.129C20.7438 11.0535 20.8015 10.9873 20.8705 10.9343C20.9394 10.8813 21.0182 10.8425 21.1023 10.8203C21.1863 10.798 21.274 10.7926 21.3601 10.8045C21.4463 10.8164 21.5292 10.8453 21.6041 10.8895L25.0225 12.8451C25.1481 12.9169 25.2465 13.0283 25.3023 13.1619C25.3581 13.2954 25.3681 13.4437 25.3309 13.5835C25.2937 13.7234 25.2113 13.8471 25.0965 13.9352C24.9817 14.0234 24.841 14.0711 24.6963 14.071Z" fill="#fff" stroke="#fff" stroke-width="0.4"/>
    <path d="M22.9548 13.0809C22.8063 13.081 22.6622 13.0307 22.546 12.9382C22.4298 12.8458 22.3484 12.7167 22.3151 12.572C22.2818 12.4273 22.2985 12.2756 22.3625 12.1416C22.4266 12.0076 22.5342 11.8994 22.6677 11.8345L24.8178 10.7898C24.8955 10.7501 24.9804 10.7263 25.0675 10.7198C25.1546 10.7133 25.242 10.7243 25.3248 10.752C25.4076 10.7798 25.484 10.8238 25.5496 10.8814C25.6152 10.939 25.6686 11.0092 25.7067 11.0877C25.7448 11.1663 25.7669 11.2516 25.7716 11.3388C25.7763 11.426 25.7636 11.5132 25.7342 11.5954C25.7047 11.6776 25.6592 11.7531 25.6003 11.8175C25.5413 11.8819 25.4701 11.9338 25.3908 11.9704L23.2406 13.015C23.1516 13.0584 23.0539 13.0809 22.9548 13.0809Z" fill="#fff" stroke="#fff" stroke-width="0.4"/>
    <path d="M23.1451 15.4521C22.9802 15.452 22.8213 15.3897 22.7001 15.2777C22.579 15.1657 22.5045 15.0122 22.4914 14.8478L22.3024 12.4717C22.2886 12.2982 22.3444 12.1263 22.4573 11.9938C22.5703 11.8614 22.7313 11.7793 22.9048 11.7655C23.0784 11.7517 23.2503 11.8075 23.3827 11.9204C23.5152 12.0334 23.5973 12.1944 23.6111 12.3679L23.8001 14.7439C23.807 14.8299 23.7968 14.9163 23.7702 14.9983C23.7437 15.0803 23.7012 15.1563 23.6452 15.2219C23.5893 15.2875 23.521 15.3414 23.4442 15.3806C23.3674 15.4197 23.2836 15.4434 23.1977 15.4502C23.1803 15.4513 23.1625 15.4521 23.1451 15.4521ZM21.2674 9.48837C21.1232 9.4884 20.9831 9.44095 20.8686 9.35336C20.7541 9.26577 20.6716 9.14291 20.6339 9.00375C20.5962 8.8646 20.6053 8.71691 20.6599 8.58348C20.7146 8.45006 20.8116 8.33834 20.9361 8.26558L24.3359 6.2799C24.4104 6.23371 24.4934 6.20291 24.58 6.18933C24.6666 6.17574 24.755 6.17964 24.8401 6.20079C24.9251 6.22195 25.0051 6.25993 25.0753 6.31249C25.1454 6.36506 25.2043 6.43114 25.2485 6.50684C25.2927 6.58255 25.3212 6.66633 25.3325 6.75326C25.3438 6.84018 25.3375 6.92849 25.3141 7.01296C25.2907 7.09742 25.2506 7.17634 25.1962 7.24506C25.1418 7.31378 25.0741 7.37089 24.9973 7.41304L21.5974 9.39866C21.4974 9.45745 21.3835 9.48842 21.2674 9.48837Z" fill="#fff" stroke="#fff" stroke-width="0.4"/>
    <path d="M22.9401 8.51846C22.9247 8.51846 22.9093 8.5178 22.8933 8.51688C22.7197 8.50456 22.5582 8.42381 22.4441 8.2924C22.3301 8.16098 22.2729 7.98965 22.2851 7.81608L22.453 5.4312C22.4566 5.34348 22.4778 5.25738 22.5153 5.178C22.5528 5.09862 22.6058 5.02757 22.6713 4.96905C22.7367 4.91053 22.8132 4.86574 22.8963 4.83733C22.9794 4.80891 23.0673 4.79745 23.1549 4.80363C23.2424 4.8098 23.3279 4.83348 23.4061 4.87327C23.4844 4.91306 23.5539 4.96814 23.6104 5.03527C23.667 5.10239 23.7096 5.18018 23.7356 5.26404C23.7615 5.34789 23.7704 5.43611 23.7617 5.52347L23.5938 7.90834C23.5821 8.07383 23.5082 8.22877 23.3869 8.34196C23.2656 8.45516 23.106 8.51822 22.9401 8.51846Z" fill="#fff" stroke="#fff" stroke-width="0.4"/>
    <path d="M25.0889 9.53591C24.9918 9.53594 24.8959 9.51426 24.8082 9.47245L22.6548 8.45002C22.5757 8.41389 22.5045 8.36238 22.4455 8.29849C22.3864 8.2346 22.3406 8.1596 22.3108 8.07787C22.281 7.99613 22.2678 7.90928 22.2718 7.82237C22.2759 7.73546 22.2972 7.65023 22.3345 7.57163C22.3718 7.49303 22.4244 7.42263 22.4891 7.36453C22.5539 7.30644 22.6296 7.2618 22.7118 7.23321C22.7939 7.20462 22.881 7.19266 22.9678 7.19802C23.0546 7.20338 23.1395 7.22596 23.2176 7.26443L25.3709 8.28694C25.5055 8.35087 25.6143 8.45872 25.6795 8.59275C25.7447 8.72677 25.7623 8.87898 25.7294 9.02435C25.6966 9.16971 25.6153 9.29957 25.4988 9.39256C25.3823 9.48555 25.2377 9.53613 25.0887 9.53598L25.0889 9.53591Z" fill="#fff" stroke="#fff" stroke-width="0.4"/>
    <path d="M19 20C17.0531 20 15.1499 19.4227 13.5311 18.341C11.9123 17.2594 10.6506 15.722 9.90557 13.9233C9.16052 12.1246 8.96558 10.1453 9.3454 8.23583C9.72522 6.32633 10.6627 4.57235 12.0394 3.19567C13.4161 1.819 15.1701 0.881473 17.0796 0.501649C18.9891 0.121826 20.9683 0.316765 22.767 1.06182C24.5658 1.80687 26.1031 3.06856 27.1848 4.68736C28.2664 6.30616 28.8438 8.20934 28.8438 10.1563C28.8409 12.7661 27.8028 15.2682 25.9574 17.1136C24.1119 18.9591 21.6098 19.9971 19 20ZM19 1.625C17.3127 1.625 15.6633 2.12535 14.2603 3.06278C12.8573 4.00021 11.7639 5.3326 11.1182 6.89149C10.4724 8.45037 10.3035 10.1657 10.6327 11.8206C10.9619 13.4755 11.7744 14.9956 12.9675 16.1888C14.1606 17.3819 15.6807 18.1944 17.3356 18.5236C18.9905 18.8528 20.7059 18.6838 22.2648 18.0381C23.8237 17.3924 25.1561 16.2989 26.0935 14.896C27.0309 13.493 27.5313 11.8436 27.5313 10.1563C27.5287 7.89441 26.6291 5.72594 25.0297 4.12657C23.4303 2.5272 21.2618 1.62756 19 1.625Z" fill="#fff" stroke="#fff" stroke-width="0.4"/>
</svg>