<svg width="42" height="42" viewBox="0 0 42 42" fill="none" xmlns="http://www.w3.org/2000/svg">
    <path d="M41 8.44917V33.5507C41 33.9828 40.6438 34.339 40.2117 34.339H1.78828C1.35619 34.339 1 33.9828 1 33.5507V8.44917C1 8.01708 1.35619 7.66089 1.78828 7.66089H40.2117C40.6438 7.66089 41 8.01708 41 8.44917Z" stroke="#fff" stroke-width="2"/>
    <path d="M12.3375 10.9429C12.3375 11.271 12.075 11.5335 11.7469 11.5335H3.74883C3.4207 11.5335 3.1582 11.271 3.1582 10.9429C3.1582 10.6148 3.4207 10.3523 3.74883 10.3523H11.7469C12.075 10.3523 12.3375 10.6148 12.3375 10.9429ZM12.3375 13.1824C12.3375 13.5105 12.075 13.773 11.7469 13.773H3.74883C3.4207 13.773 3.1582 13.5105 3.1582 13.1824C3.1582 12.8542 3.4207 12.5917 3.74883 12.5917H11.7469C12.075 12.5835 12.3375 12.8542 12.3375 13.1824ZM12.3375 15.4136C12.3375 15.7417 12.075 16.0042 11.7469 16.0042H3.74883C3.4207 16.0042 3.1582 15.7417 3.1582 15.4136C3.1582 15.0855 3.4207 14.823 3.74883 14.823H11.7469C12.075 14.823 12.3375 15.0855 12.3375 15.4136ZM12.3375 17.6449C12.3375 17.973 12.075 18.2355 11.7469 18.2355H3.74883C3.4207 18.2355 3.1582 17.973 3.1582 17.6449C3.1582 17.3167 3.4207 17.0542 3.74883 17.0542H11.7469C12.075 17.0542 12.3375 17.3167 12.3375 17.6449ZM12.3375 19.8843C12.3375 20.2125 12.075 20.475 11.7469 20.475H3.74883C3.4207 20.475 3.1582 20.2125 3.1582 19.8843C3.1582 19.5562 3.4207 19.2937 3.74883 19.2937H11.7469C12.075 19.2855 12.3375 19.5562 12.3375 19.8843ZM12.3375 22.1156C12.3375 22.4437 12.075 22.7062 11.7469 22.7062H3.74883C3.4207 22.7062 3.1582 22.4437 3.1582 22.1156C3.1582 21.7875 3.4207 21.525 3.74883 21.525H11.7469C12.075 21.525 12.3375 21.7875 12.3375 22.1156ZM12.3375 24.355C12.3375 24.6832 12.075 24.9457 11.7469 24.9457H3.74883C3.4207 24.9457 3.1582 24.6832 3.1582 24.355C3.1582 24.0269 3.4207 23.7644 3.74883 23.7644H11.7469C12.075 23.7562 12.3375 24.0269 12.3375 24.355ZM12.3375 26.5863C12.3375 26.9144 12.075 27.1769 11.7469 27.1769H3.74883C3.4207 27.1769 3.1582 26.9144 3.1582 26.5863C3.1582 26.2582 3.4207 25.9957 3.74883 25.9957H11.7469C12.075 25.9957 12.3375 26.2582 12.3375 26.5863ZM12.3375 28.8175C12.3375 29.1457 12.075 29.4082 11.7469 29.4082H3.74883C3.4207 29.4082 3.1582 29.1457 3.1582 28.8175C3.1582 28.4894 3.4207 28.2269 3.74883 28.2269H11.7469C12.075 28.2269 12.3375 28.4894 12.3375 28.8175ZM12.3375 31.057C12.3375 31.3851 12.075 31.6476 11.7469 31.6476H3.74883C3.4207 31.6476 3.1582 31.3851 3.1582 31.057C3.1582 30.7289 3.4207 30.4664 3.74883 30.4664H11.7469C12.075 30.4582 12.3375 30.7289 12.3375 31.057ZM25.5938 10.9429C25.5938 11.271 25.3313 11.5335 25.0031 11.5335H17.0051C16.677 11.5335 16.4145 11.271 16.4145 10.9429C16.4145 10.6148 16.677 10.3523 17.0051 10.3523H25.0031C25.3313 10.3523 25.5938 10.6148 25.5938 10.9429ZM25.5938 13.1824C25.5938 13.5105 25.3313 13.773 25.0031 13.773H17.0051C16.677 13.773 16.4145 13.5105 16.4145 13.1824C16.4145 12.8542 16.677 12.5917 17.0051 12.5917H25.0031C25.3313 12.5835 25.5938 12.8542 25.5938 13.1824ZM25.5938 15.4136C25.5938 15.7417 25.3313 16.0042 25.0031 16.0042H17.0051C16.677 16.0042 16.4145 15.7417 16.4145 15.4136C16.4145 15.0855 16.677 14.823 17.0051 14.823H25.0031C25.3313 14.823 25.5938 15.0855 25.5938 15.4136ZM25.5938 17.6449C25.5938 17.973 25.3313 18.2355 25.0031 18.2355H17.0051C16.677 18.2355 16.4145 17.973 16.4145 17.6449C16.4145 17.3167 16.677 17.0542 17.0051 17.0542H25.0031C25.3313 17.0542 25.5938 17.3167 25.5938 17.6449ZM25.5938 19.8843C25.5938 20.2125 25.3313 20.475 25.0031 20.475H17.0051C16.677 20.475 16.4145 20.2125 16.4145 19.8843C16.4145 19.5562 16.677 19.2937 17.0051 19.2937H25.0031C25.3313 19.2855 25.5938 19.5562 25.5938 19.8843ZM25.5938 22.1156C25.5938 22.4437 25.3313 22.7062 25.0031 22.7062H17.0051C16.677 22.7062 16.4145 22.4437 16.4145 22.1156C16.4145 21.7875 16.677 21.525 17.0051 21.525H25.0031C25.3313 21.525 25.5938 21.7875 25.5938 22.1156ZM25.5938 24.355C25.5938 24.6832 25.3313 24.9457 25.0031 24.9457H17.0051C16.677 24.9457 16.4145 24.6832 16.4145 24.355C16.4145 24.0269 16.677 23.7644 17.0051 23.7644H25.0031C25.3313 23.7562 25.5938 24.0269 25.5938 24.355ZM25.5938 26.5863C25.5938 26.9144 25.3313 27.1769 25.0031 27.1769H17.0051C16.677 27.1769 16.4145 26.9144 16.4145 26.5863C16.4145 26.2582 16.677 25.9957 17.0051 25.9957H25.0031C25.3313 25.9957 25.5938 26.2582 25.5938 26.5863ZM25.5938 28.8175C25.5938 29.1457 25.3313 29.4082 25.0031 29.4082H17.0051C16.677 29.4082 16.4145 29.1457 16.4145 28.8175C16.4145 28.4894 16.677 28.2269 17.0051 28.2269H25.0031C25.3313 28.2269 25.5938 28.4894 25.5938 28.8175ZM25.5938 31.057C25.5938 31.3851 25.3313 31.6476 25.0031 31.6476H17.0051C16.677 31.6476 16.4145 31.3851 16.4145 31.057C16.4145 30.7289 16.677 30.4664 17.0051 30.4664H25.0031C25.3313 30.4582 25.5938 30.7289 25.5938 31.057ZM38.85 10.9429C38.85 11.271 38.5875 11.5335 38.2594 11.5335H30.2613C29.9332 11.5335 29.6707 11.271 29.6707 10.9429C29.6707 10.6148 29.9332 10.3523 30.2613 10.3523H38.2594C38.5793 10.3523 38.85 10.6148 38.85 10.9429ZM38.85 13.1824C38.85 13.5105 38.5875 13.773 38.2594 13.773H30.2613C29.9332 13.773 29.6707 13.5105 29.6707 13.1824C29.6707 12.8542 29.9332 12.5917 30.2613 12.5917H38.2594C38.5793 12.5835 38.85 12.8542 38.85 13.1824ZM38.85 15.4136C38.85 15.7417 38.5875 16.0042 38.2594 16.0042H30.2613C29.9332 16.0042 29.6707 15.7417 29.6707 15.4136C29.6707 15.0855 29.9332 14.823 30.2613 14.823H38.2594C38.5793 14.823 38.85 15.0855 38.85 15.4136ZM38.85 17.6449C38.85 17.973 38.5875 18.2355 38.2594 18.2355H30.2613C29.9332 18.2355 29.6707 17.973 29.6707 17.6449C29.6707 17.3167 29.9332 17.0542 30.2613 17.0542H38.2594C38.5793 17.0542 38.85 17.3167 38.85 17.6449ZM38.85 19.8843C38.85 20.2125 38.5875 20.475 38.2594 20.475H30.2613C29.9332 20.475 29.6707 20.2125 29.6707 19.8843C29.6707 19.5562 29.9332 19.2937 30.2613 19.2937H38.2594C38.5793 19.2855 38.85 19.5562 38.85 19.8843ZM38.85 22.1156C38.85 22.4437 38.5875 22.7062 38.2594 22.7062H30.2613C29.9332 22.7062 29.6707 22.4437 29.6707 22.1156C29.6707 21.7875 29.9332 21.525 30.2613 21.525H38.2594C38.5793 21.525 38.85 21.7875 38.85 22.1156ZM38.85 24.355C38.85 24.6832 38.5875 24.9457 38.2594 24.9457H30.2613C29.9332 24.9457 29.6707 24.6832 29.6707 24.355C29.6707 24.0269 29.9332 23.7644 30.2613 23.7644H38.2594C38.5793 23.7562 38.85 24.0269 38.85 24.355ZM38.85 26.5863C38.85 26.9144 38.5875 27.1769 38.2594 27.1769H30.2613C29.9332 27.1769 29.6707 26.9144 29.6707 26.5863C29.6707 26.2582 29.9332 25.9957 30.2613 25.9957H38.2594C38.5793 25.9957 38.85 26.2582 38.85 26.5863ZM38.85 28.8175C38.85 29.1457 38.5875 29.4082 38.2594 29.4082H30.2613C29.9332 29.4082 29.6707 29.1457 29.6707 28.8175C29.6707 28.4894 29.9332 28.2269 30.2613 28.2269H38.2594C38.5793 28.2269 38.85 28.4894 38.85 28.8175ZM38.85 31.057C38.85 31.3851 38.5875 31.6476 38.2594 31.6476H30.2613C29.9332 31.6476 29.6707 31.3851 29.6707 31.057C29.6707 30.7289 29.9332 30.4664 30.2613 30.4664H38.2594C38.5793 30.4582 38.85 30.7289 38.85 31.057Z" fill="#fff"/>
</svg>
