<svg width="42" height="42" viewBox="0 0 42 42" fill="none" xmlns="http://www.w3.org/2000/svg">
    <path d="M11.989 25.7063C9.66053 25.7063 7.76614 27.6007 7.76614 29.9292C7.76614 32.2576 9.66053 34.152 11.989 34.152C14.3175 34.152 16.2119 32.2576 16.2119 29.9292C16.2119 27.6007 14.3175 25.7063 11.989 25.7063ZM11.989 32.9221C10.3387 32.9221 8.9961 31.5794 8.9961 29.9292C8.9961 28.2789 10.3387 26.9363 11.989 26.9363C13.6393 26.9363 14.9819 28.2789 14.9819 29.9292C14.9819 31.5794 13.6393 32.9221 11.989 32.9221Z" fill="#ffffff" stroke="#ffffff" stroke-width="0.6"/>
    <path d="M11.989 24.9683C12.9159 24.9683 13.6699 24.2143 13.6699 23.2874C13.6699 22.3605 12.9159 21.6064 11.989 21.6064C11.0621 21.6064 10.308 22.3605 10.308 23.2874C10.308 24.2143 11.0621 24.9683 11.989 24.9683ZM11.989 22.8364C12.2377 22.8364 12.44 23.0387 12.44 23.2874C12.44 23.5361 12.2377 23.7384 11.989 23.7384C11.7403 23.7384 11.538 23.5361 11.538 23.2874C11.538 23.0387 11.7403 22.8364 11.989 22.8364Z" fill="#ffffff" stroke="#ffffff" stroke-width="0.6"/>
    <path d="M16.6855 26.9128C17.1159 26.9128 17.5464 26.7489 17.874 26.4213C17.874 26.4213 17.874 26.4213 17.8741 26.4213C18.1916 26.1038 18.3664 25.6816 18.3664 25.2327C18.3664 24.7836 18.1916 24.3616 17.8741 24.0441C17.5566 23.7266 17.1345 23.5518 16.6855 23.5518C16.2364 23.5518 15.8143 23.7266 15.4969 24.0441C15.1793 24.3616 15.0045 24.7837 15.0045 25.2327C15.0045 25.6817 15.1794 26.1038 15.4969 26.4213C15.8246 26.749 16.2549 26.9128 16.6855 26.9128ZM16.3666 24.9137C16.4518 24.8286 16.5649 24.7817 16.6855 24.7817C16.8059 24.7817 16.9192 24.8286 17.0043 24.9138C17.0895 24.9989 17.1364 25.1122 17.1364 25.2327C17.1364 25.3532 17.0895 25.4664 17.0043 25.5516C16.8285 25.7274 16.5424 25.7276 16.3666 25.5516C16.2814 25.4665 16.2345 25.3532 16.2345 25.2327C16.2344 25.1122 16.2813 24.9989 16.3666 24.9137Z" fill="#ffffff" stroke="#ffffff" stroke-width="0.6"/>
    <path d="M18.6308 28.2483C17.7039 28.2483 16.9498 29.0023 16.9498 29.9292C16.9498 30.8561 17.7039 31.6102 18.6308 31.6102C19.5577 31.6102 20.3117 30.8561 20.3117 29.9292C20.3117 29.0023 19.5576 28.2483 18.6308 28.2483ZM18.6308 30.3802C18.3821 30.3802 18.1798 30.1779 18.1798 29.9292C18.1798 29.6805 18.3821 29.4783 18.6308 29.4783C18.8795 29.4783 19.0818 29.6805 19.0818 29.9292C19.0818 30.1779 18.8794 30.3802 18.6308 30.3802Z" fill="#ffffff" stroke="#ffffff" stroke-width="0.6"/>
    <path d="M15.4968 33.437C15.1794 33.7545 15.0045 34.1767 15.0045 34.6256C15.0045 35.0747 15.1794 35.4968 15.4968 35.8142C15.4968 35.8142 15.4968 35.8143 15.4968 35.8143C15.8143 36.1317 16.2365 36.3066 16.6854 36.3066C17.1343 36.3066 17.5565 36.1317 17.874 35.8143C18.1915 35.4968 18.3663 35.0746 18.3663 34.6256C18.3663 34.1766 18.1915 33.7546 17.874 33.437C17.2185 32.7817 16.1522 32.7818 15.4968 33.437ZM17.0044 34.9445C16.9192 35.0297 16.8059 35.0766 16.6855 35.0766C16.565 35.0766 16.4518 35.0297 16.3666 34.9446C16.3666 34.9445 16.3666 34.9445 16.3665 34.9445C16.2813 34.8594 16.2344 34.7462 16.2344 34.6256C16.2344 34.5052 16.2813 34.3918 16.3665 34.3067C16.4544 34.2188 16.5699 34.1749 16.6854 34.1749C16.8009 34.1749 16.9164 34.2188 17.0043 34.3067C17.0895 34.3918 17.1364 34.5052 17.1364 34.6256C17.1365 34.7462 17.0895 34.8594 17.0044 34.9445Z" fill="#ffffff" stroke="#ffffff" stroke-width="0.6"/>
    <path d="M11.989 34.8899C11.0621 34.8899 10.308 35.6439 10.308 36.5708C10.308 37.4977 11.0621 38.2518 11.989 38.2518C12.9159 38.2518 13.6699 37.4977 13.6699 36.5708C13.6699 35.6439 12.9158 34.8899 11.989 34.8899ZM11.989 37.0218C11.7403 37.0218 11.538 36.8195 11.538 36.5708C11.538 36.3221 11.7403 36.1199 11.989 36.1199C12.2377 36.1199 12.44 36.3221 12.44 36.5708C12.44 36.8195 12.2376 37.0218 11.989 37.0218Z" fill="#ffffff" stroke="#ffffff" stroke-width="0.6"/>
    <path d="M6.10397 33.4368C6.10388 33.4368 6.10388 33.4368 6.10397 33.4368C5.78639 33.7543 5.61157 34.1765 5.61157 34.6254C5.61157 35.0745 5.78639 35.4965 6.10388 35.814C6.42138 36.1315 6.8435 36.3064 7.29252 36.3064C7.74153 36.3064 8.16366 36.1315 8.48107 35.814C8.79864 35.4965 8.97346 35.0744 8.97346 34.6254C8.97346 34.1764 8.79856 33.7543 8.48107 33.4368C7.82566 32.7815 6.75937 32.7815 6.10397 33.4368ZM7.61132 34.9444C7.52613 35.0295 7.41297 35.0764 7.29244 35.0764C7.17198 35.0764 7.05874 35.0295 6.97355 34.9443C6.88835 34.8592 6.84145 34.7459 6.84145 34.6254C6.84145 34.505 6.88835 34.3917 6.97355 34.3065C7.14935 34.1306 7.43544 34.1306 7.61132 34.3065C7.69652 34.3916 7.74342 34.505 7.74342 34.6254C7.7435 34.7459 7.6966 34.8592 7.61132 34.9444Z" fill="#ffffff" stroke="#ffffff" stroke-width="0.6"/>
    <path d="M7.02815 29.9292C7.02815 29.0023 6.2741 28.2483 5.3472 28.2483C4.42031 28.2483 3.66626 29.0023 3.66626 29.9292C3.66626 30.8561 4.42031 31.6102 5.3472 31.6102C6.2741 31.6102 7.02815 30.8561 7.02815 29.9292ZM5.3472 30.3802C5.09851 30.3802 4.89622 30.1779 4.89622 29.9292C4.89622 29.6805 5.09851 29.4783 5.3472 29.4783C5.5959 29.4783 5.79819 29.6805 5.79819 29.9292C5.79819 30.1779 5.59582 30.3802 5.3472 30.3802Z" fill="#ffffff" stroke="#ffffff" stroke-width="0.6"/>
    <path d="M7.29253 26.9127C7.72301 26.9127 8.1535 26.7489 8.48116 26.4213C8.79865 26.1038 8.97355 25.6816 8.97355 25.2327C8.97355 24.7836 8.79865 24.3616 8.48124 24.0442C8.48124 24.0442 8.48124 24.0442 8.48116 24.0441C8.16367 23.7266 7.74154 23.5518 7.29261 23.5518C6.84367 23.5518 6.42147 23.7266 6.10398 24.0441C5.78648 24.3616 5.61166 24.7837 5.61166 25.2327C5.61166 25.6817 5.78648 26.1038 6.10406 26.4213C6.43164 26.749 6.86204 26.9128 7.29253 26.9127ZM6.97364 24.9138C7.05883 24.8286 7.17207 24.7817 7.29253 24.7817C7.41298 24.7817 7.52622 24.8286 7.61141 24.9137C7.61141 24.9138 7.61141 24.9138 7.6115 24.9138C7.69669 24.9989 7.74359 25.1122 7.74359 25.2327C7.74359 25.3532 7.69669 25.4665 7.6115 25.5516C7.43569 25.7274 7.14952 25.7275 6.97372 25.5517C6.88853 25.4665 6.84162 25.3532 6.84162 25.2327C6.84154 25.1122 6.88844 24.9989 6.97364 24.9138Z" fill="#ffffff" stroke="#ffffff" stroke-width="0.6"/>
    <path d="M30.227 6.32794H29.9822C29.4092 6.32794 28.943 6.79418 28.943 7.36718V8.62264C28.943 9.19563 29.4092 9.66187 29.9822 9.66187H30.227L30.0539 9.83488C29.8576 10.0313 29.7495 10.2922 29.7495 10.5697C29.7495 10.8473 29.8576 11.1082 30.0539 11.3046L30.9416 12.1923C31.3467 12.5975 32.006 12.5974 32.4113 12.1922L32.5843 12.0192V12.264C32.5843 12.837 33.0506 13.3032 33.6236 13.3032H34.879C35.452 13.3032 35.9183 12.837 35.9183 12.264V12.0192L36.0913 12.1923C36.4965 12.5975 37.1558 12.5975 37.5609 12.1923L38.4486 11.3046C38.6449 11.1082 38.753 10.8473 38.753 10.5697C38.753 10.2922 38.6449 10.0313 38.4486 9.83488L38.2755 9.66187H38.5203C39.0933 9.66187 39.5595 9.19563 39.5595 8.62264V7.36718C39.5595 6.79418 39.0933 6.32794 38.5203 6.32794H38.2755L38.4486 6.15493C38.6449 5.95854 38.753 5.69763 38.753 5.42007C38.753 5.14251 38.6449 4.88159 38.4486 4.68521L37.5608 3.79742C37.1557 3.39227 36.4964 3.39236 36.0911 3.7975L35.9181 3.97052V3.72576C35.9181 3.15276 35.4519 2.68652 34.8789 2.68652H33.6234C33.0504 2.68652 32.5842 3.15276 32.5842 3.72576V3.97052L32.4111 3.79742C32.006 3.39227 31.3467 3.39227 30.9415 3.79742L30.0538 4.68513C29.8575 4.88151 29.7494 5.14242 29.7494 5.41999C29.7494 5.69755 29.8575 5.95846 30.0538 6.15484L30.227 6.32794ZM31.4329 6.89102C31.4475 6.85363 31.4629 6.81665 31.4789 6.77999C31.6528 6.38313 31.5696 5.93116 31.267 5.6285L31.0585 5.42007L31.6765 4.80214L31.8849 5.01065C32.1875 5.31322 32.6395 5.39645 33.0362 5.2227C33.0731 5.20655 33.1104 5.19105 33.1474 5.17654C33.5525 5.01812 33.8143 4.63814 33.8143 4.20831V3.91648H34.6882V4.20831C34.6882 4.63806 34.9499 5.01812 35.3544 5.17629C35.3921 5.19105 35.4294 5.20646 35.4661 5.22254C35.8629 5.39653 36.3149 5.31322 36.6175 5.01049L36.826 4.80205L37.4439 5.41999L37.2355 5.62842C36.9328 5.93107 36.8496 6.38304 37.0235 6.77999C37.0395 6.81656 37.0548 6.85354 37.0696 6.89118C37.2281 7.29608 37.6081 7.55782 38.0378 7.55782H38.3296V8.43175H38.0378C37.6081 8.43175 37.2281 8.6934 37.0695 9.09863C37.0549 9.13602 37.0396 9.173 37.0235 9.20965C36.8496 9.60652 36.9328 10.0585 37.2355 10.3611L37.4439 10.5696L36.826 11.1875L36.6175 10.979C36.3148 10.6764 35.8628 10.593 35.4662 10.7669C35.4293 10.7831 35.392 10.7986 35.355 10.8131C34.95 10.9715 34.6881 11.3515 34.6881 11.7813V12.0732H33.8142V11.7813C33.8142 11.3516 33.5525 10.9715 33.148 10.8134C33.1103 10.7986 33.073 10.7832 33.0363 10.7671C32.6395 10.5931 32.1875 10.6764 31.8849 10.9792L31.6765 11.1876L31.0585 10.5697L31.267 10.3612C31.5696 10.0586 31.6528 9.6066 31.4789 9.20965C31.4629 9.17308 31.4476 9.1361 31.4328 9.09847C31.2743 8.69356 30.8943 8.43183 30.4646 8.43183H30.1729V7.5579H30.4646C30.8943 7.5579 31.2743 7.29617 31.4329 6.89102Z" fill="#ffffff" stroke="#ffffff" stroke-width="0.6"/>
    <path d="M34.2512 10.1867C35.4599 10.1867 36.4431 9.20349 36.4431 7.99485C36.4431 6.78621 35.4598 5.80298 34.2512 5.80298C33.0427 5.80298 32.0593 6.78621 32.0593 7.99485C32.0593 9.20349 33.0426 10.1867 34.2512 10.1867ZM34.2512 7.03286C34.7817 7.03286 35.2132 7.46441 35.2132 7.99477C35.2132 8.52513 34.7816 8.95668 34.2512 8.95668C33.7209 8.95668 33.2893 8.52529 33.2893 7.99485C33.2893 7.46441 33.7208 7.03286 34.2512 7.03286Z" fill="#ffffff" stroke="#ffffff" stroke-width="0.6"/>
    <path d="M40.1243 13.0439C41.2927 11.6868 42 9.92194 42 7.99484C42 3.7222 38.5239 0.246094 34.2513 0.246094C32.3235 0.246094 30.5581 0.953894 29.2008 2.12301C29.191 2.12998 29.1811 2.13654 29.1717 2.14417L9.52661 18.0049C9.45823 17.9598 9.38591 17.9198 9.30891 17.887C8.97289 17.7433 8.60095 17.7391 8.2618 17.8753L6.46377 18.5969C6.12454 18.733 5.85863 18.993 5.71505 19.3292C5.57147 19.6653 5.56737 20.037 5.70341 20.3763L5.89946 20.8648C4.85777 21.5751 3.96096 22.4524 3.22635 23.4799L2.74183 23.2729C2.40572 23.1293 2.03394 23.1251 1.69472 23.2613C1.35558 23.3973 1.08966 23.6574 0.946087 23.9934L0.184823 25.7751C0.0412462 26.1112 0.0371463 26.483 0.17318 26.8222C0.309295 27.1614 0.569309 27.4272 0.905334 27.5708L1.38986 27.7778C1.15526 29.0188 1.14116 30.2732 1.34787 31.5172L0.859333 31.7132C0.520192 31.8492 0.254275 32.1093 0.110698 32.4454C-0.0328793 32.7816 -0.0369792 33.1534 0.0990543 33.4925L0.820549 35.2908C0.956664 35.63 1.21668 35.8958 1.5527 36.0394C1.88873 36.183 2.26067 36.1871 2.59973 36.051L3.08827 35.855C3.79861 36.8966 4.67582 37.7934 5.70332 38.5282L5.49628 39.0127C5.19986 39.7064 5.52309 40.5119 6.21687 40.8083L7.99859 41.5695C8.69254 41.8661 9.49783 41.5427 9.79425 40.8491L10.0013 40.3645C11.2422 40.5993 12.4968 40.6132 13.7406 40.4065L13.9367 40.8951C14.0728 41.2343 14.3328 41.5002 14.6688 41.6437C14.8415 41.7175 15.0238 41.7545 15.2062 41.7545C15.3786 41.7545 15.5511 41.7216 15.7159 41.6554L17.514 40.9338C17.8532 40.7978 18.1191 40.5378 18.2627 40.2016C18.4063 39.8655 18.4104 39.4937 18.2743 39.1545L18.0783 38.6659C19.1199 37.9557 20.0167 37.0784 20.7514 36.0509L21.2359 36.2578C21.5719 36.4014 21.9438 36.4056 22.283 36.2695C22.6222 36.1334 22.8881 35.8733 23.0317 35.5373L23.7929 33.7556C23.9166 33.4661 23.9362 33.1501 23.8524 32.8512L40.0985 13.0789C40.1078 13.0674 40.116 13.0555 40.1243 13.0439ZM40.77 7.99484C40.77 11.5894 37.8457 14.5136 34.2513 14.5136C32.9828 14.5136 31.7531 14.1488 30.695 13.4586C30.4106 13.2732 30.0295 13.3534 29.844 13.6378C29.6584 13.9223 29.7386 14.3033 30.0231 14.4889C31.2815 15.3097 32.7436 15.7436 34.2513 15.7436C35.078 15.7436 35.8746 15.613 36.6222 15.3721L23.0136 31.9344L22.588 31.7527C22.8226 30.5116 22.8367 29.2572 22.63 28.0132L23.1186 27.8172C23.4577 27.6812 23.7236 27.4211 23.8672 27.085C24.0108 26.7488 24.0149 26.377 23.8788 26.0378L23.1574 24.2397C23.0212 23.9004 22.7612 23.6346 22.4252 23.491C22.0891 23.3474 21.7173 23.3433 21.3782 23.4794L20.8896 23.6754C20.1793 22.6338 19.3021 21.737 18.2746 21.0022L18.4816 20.5177C18.778 19.824 18.4548 19.0185 17.761 18.7221L15.9793 17.9609C15.2856 17.6644 14.4801 17.9877 14.1837 18.6813L13.9766 19.1659C12.7356 18.9311 11.481 18.9172 10.2373 19.1239L10.2033 19.0392L26.8933 5.56444C26.64 6.32923 26.5025 7.14625 26.5025 7.99484C26.5025 9.6962 27.0439 11.3112 28.0681 12.6652C28.2729 12.9362 28.6587 12.9896 28.9296 12.7847C29.2005 12.5798 29.2539 12.1942 29.049 11.9232C28.1877 10.7845 27.7325 9.42618 27.7325 7.99484C27.7325 4.40032 30.6568 1.47605 34.2513 1.47605C37.8457 1.47605 40.77 4.40032 40.77 7.99484ZM22.662 33.272L21.9007 35.0537C21.8708 35.1237 21.7896 35.1564 21.7194 35.1265L20.8859 34.7704C20.5457 34.625 20.1502 34.7437 19.9459 35.0522C19.1981 36.1799 18.2401 37.1172 17.0984 37.8378C16.7851 38.0356 16.6578 38.4283 16.7956 38.7714L17.133 39.6122C17.1506 39.656 17.1421 39.6939 17.1318 39.7179C17.1215 39.742 17.1001 39.7743 17.0562 39.7918L15.258 40.5135C15.2141 40.531 15.1761 40.5225 15.1522 40.5123C15.1282 40.502 15.0959 40.4805 15.0782 40.4367L14.7407 39.5955C14.6223 39.3009 14.3376 39.1151 14.0297 39.1151C13.9791 39.1151 13.9278 39.1202 13.8766 39.1305C12.5534 39.3989 11.2134 39.384 9.89371 39.0859C9.53243 39.0045 9.16484 39.1919 9.01946 39.5319L8.66334 40.3654C8.63342 40.4355 8.55199 40.4681 8.48197 40.4382L6.70025 39.677C6.63022 39.647 6.59759 39.5657 6.62743 39.4956L6.98363 38.662C7.12885 38.3219 7.01028 37.9266 6.70172 37.7221C5.57401 36.9742 4.63679 36.0162 3.91628 34.8748C3.71858 34.5615 3.32581 34.434 2.98265 34.5717L2.14169 34.9091C2.09774 34.9267 2.05986 34.9182 2.03591 34.9079C2.01189 34.8977 1.97958 34.8762 1.96195 34.8323L1.24046 33.0341C1.22283 32.9902 1.23136 32.9524 1.24169 32.9283C1.25194 32.9043 1.27334 32.872 1.31729 32.8544L2.15801 32.517C2.50141 32.3792 2.69706 32.0157 2.62334 31.6528C2.35496 30.3297 2.36997 28.9896 2.66795 27.6699C2.74962 27.3086 2.56201 26.9409 2.22196 26.7957L1.38846 26.4396C1.345 26.4209 1.32426 26.3881 1.3145 26.364C1.30474 26.3397 1.29712 26.3016 1.31573 26.2582L2.07699 24.4765C2.10684 24.4064 2.1881 24.3737 2.25837 24.4036L3.09187 24.7598C3.43175 24.9051 3.82731 24.7865 4.03189 24.4779C4.77971 23.3502 5.73768 22.4131 6.87933 21.6924C7.19264 21.4945 7.31998 21.1019 7.18215 20.7588L6.84473 19.918C6.8271 19.8741 6.83562 19.8362 6.84596 19.8122C6.85621 19.7882 6.87761 19.7559 6.92156 19.7383L8.71976 19.0167C8.76363 18.999 8.80151 19.0076 8.82554 19.0179C8.83579 19.0222 8.84743 19.0292 8.85883 19.0385C8.87842 19.1028 8.90917 19.1646 8.95083 19.2215L9.23692 19.9345C9.37475 20.2776 9.738 20.4728 10.1011 20.3996C11.4242 20.1312 12.7642 20.1461 14.0839 20.4442C14.4453 20.5259 14.8128 20.3383 14.9582 19.9983L15.3143 19.1648C15.3442 19.0946 15.4257 19.0622 15.4957 19.0919L17.2774 19.8532C17.3474 19.8831 17.3801 19.9645 17.3502 20.0346L16.994 20.8682C16.8488 21.2082 16.9674 21.6036 17.2759 21.8081C18.4036 22.5559 19.3409 23.514 20.0614 24.6554C20.259 24.9686 20.6517 25.096 20.995 24.9584L21.8359 24.6211L21.836 24.621C21.8798 24.6034 21.9177 24.6118 21.9417 24.6222C21.9658 24.6325 21.9981 24.654 22.0157 24.6978L22.7372 26.496C22.7548 26.5399 22.7463 26.5778 22.736 26.6018C22.7257 26.6259 22.7043 26.6582 22.6604 26.6758L21.8196 27.0131C21.4762 27.151 21.2806 27.5145 21.3543 27.8774C21.6227 29.2005 21.6077 30.5406 21.3097 31.8602C21.228 32.2215 21.4156 32.5893 21.7557 32.7345L22.5892 33.0906C22.6327 33.1092 22.6534 33.142 22.6632 33.1662C22.673 33.1905 22.6806 33.2285 22.662 33.272Z" fill="#ffffff" stroke="#ffffff" stroke-width="0.6"/>
</svg>
