<svg width="27" height="42" viewBox="0 0 27 42" fill="none" xmlns="http://www.w3.org/2000/svg">
    <path d="M22.5625 5.25V3.9375C22.5625 2.89321 22.1477 1.89169 21.4092 1.15327C20.6708 0.414843 19.6693 0 18.625 0L13.375 0C12.3307 0 11.3292 0.414843 10.5908 1.15327C9.85234 1.89169 9.4375 2.89321 9.4375 3.9375V5.25C8.81727 5.25703 8.20747 5.41048 7.65778 5.69787C7.1081 5.98525 6.63409 6.39844 6.27437 6.90375L1.02438 14.3062C0.528905 14.9652 0.257523 15.7656 0.25 16.59V38.0625C0.25 39.1068 0.664843 40.1083 1.40327 40.8467C2.14169 41.5852 3.14321 42 4.1875 42H6.8125C7.1606 42 7.49444 41.8617 7.74058 41.6156C7.98672 41.3694 8.125 41.0356 8.125 40.6875C8.125 40.3394 7.98672 40.0056 7.74058 39.7594C7.49444 39.5133 7.1606 39.375 6.8125 39.375H4.1875C3.8394 39.375 3.50556 39.2367 3.25942 38.9906C3.01328 38.7444 2.875 38.4106 2.875 38.0625V16.59C2.875 15.9863 2.73063 16.38 8.41375 8.42625C8.53058 8.2619 8.68371 8.12667 8.86125 8.03107C9.0388 7.93547 9.23598 7.88207 9.4375 7.875H22.5625C22.9106 7.875 23.2444 8.01328 23.4906 8.25942C23.7367 8.50556 23.875 8.8394 23.875 9.1875V15.75H22.5625C22.2144 15.75 21.8806 15.8883 21.6344 16.1344C21.3883 16.3806 21.25 16.7144 21.25 17.0625C21.25 17.4106 21.3883 17.7444 21.6344 17.9906C21.8806 18.2367 22.2144 18.375 22.5625 18.375H23.875V21H22.5625C22.2144 21 21.8806 21.1383 21.6344 21.3844C21.3883 21.6306 21.25 21.9644 21.25 22.3125C21.25 22.6606 21.3883 22.9944 21.6344 23.2406C21.8806 23.4867 22.2144 23.625 22.5625 23.625H23.875V26.25H22.5625C22.2144 26.25 21.8806 26.3883 21.6344 26.6344C21.3883 26.8806 21.25 27.2144 21.25 27.5625C21.25 27.9106 21.3883 28.2444 21.6344 28.4906C21.8806 28.7367 22.2144 28.875 22.5625 28.875H23.875V31.5H22.5625C22.2144 31.5 21.8806 31.6383 21.6344 31.8844C21.3883 32.1306 21.25 32.4644 21.25 32.8125C21.25 33.1606 21.3883 33.4944 21.6344 33.7406C21.8806 33.9867 22.2144 34.125 22.5625 34.125H23.875V38.0625C23.875 38.4106 23.7367 38.7444 23.4906 38.9906C23.2444 39.2367 22.9106 39.375 22.5625 39.375H12.0625C11.7144 39.375 11.3806 39.5133 11.1344 39.7594C10.8883 40.0056 10.75 40.3394 10.75 40.6875C10.75 41.0356 10.8883 41.3694 11.1344 41.6156C11.3806 41.8617 11.7144 42 12.0625 42H22.5625C23.6068 42 24.6083 41.5852 25.3467 40.8467C26.0852 40.1083 26.5 39.1068 26.5 38.0625V9.1875C26.5 8.14321 26.0852 7.14169 25.3467 6.40327C24.6083 5.66484 23.6068 5.25 22.5625 5.25ZM12.0625 5.25V3.9375C12.0625 3.5894 12.2008 3.25556 12.4469 3.00942C12.6931 2.76328 13.0269 2.625 13.375 2.625H18.625C18.9731 2.625 19.3069 2.76328 19.5531 3.00942C19.7992 3.25556 19.9375 3.5894 19.9375 3.9375V5.25H12.0625Z" fill="#ffffff"/>
</svg>
