<svg width="42" height="42" viewBox="0 0 42 42" fill="none" xmlns="http://www.w3.org/2000/svg">
    <path d="M10.0734 34.5515C9.46616 34.551 8.87783 34.34 8.40869 33.9544C7.93954 33.5688 7.61861 33.0324 7.50057 32.4367C7.38253 31.841 7.47468 31.2229 7.76133 30.6875C8.04797 30.1521 8.51138 29.7327 9.07259 29.5007C9.6338 29.2686 10.2581 29.2384 10.8391 29.415C11.4201 29.5917 11.9219 29.9643 12.259 30.4695C12.5961 30.9746 12.7476 31.581 12.6877 32.1853C12.6278 32.7897 12.3603 33.3545 11.9306 33.7837C11.6867 34.0274 11.3971 34.2206 11.0784 34.3524C10.7598 34.4841 10.4183 34.5518 10.0734 34.5515ZM10.0734 30.614C9.76972 30.6127 9.47496 30.7168 9.23939 30.9086C9.00383 31.1003 8.84205 31.3678 8.78164 31.6654C8.72122 31.9631 8.7659 32.2725 8.90807 32.5409C9.05024 32.8093 9.28109 33.02 9.56127 33.1373C9.84145 33.2545 10.1536 33.271 10.4446 33.1838C10.7355 33.0966 10.9872 32.9113 11.1568 32.6593C11.3264 32.4073 11.4033 32.1043 11.3745 31.802C11.3457 31.4996 11.2129 31.2166 10.9988 31.0012C10.7537 30.7547 10.421 30.6155 10.0734 30.614Z" fill="#fff"/>
    <path d="M10.0734 37.1766C9.30645 37.1816 8.54769 37.0183 7.85054 36.6985C7.1534 36.3786 6.53481 35.9099 6.03829 35.3253C5.54177 34.7407 5.17937 34.0544 4.9766 33.3147C4.77383 32.5749 4.73561 31.7998 4.86463 31.0437C4.99365 30.2876 5.28677 29.5689 5.72337 28.9383C6.15997 28.3077 6.72945 27.7804 7.39175 27.3935C8.05404 27.0066 8.79307 26.7696 9.55683 26.699C10.3206 26.6284 11.0905 26.7261 11.8125 26.9851C11.8941 27.0138 11.9692 27.0583 12.0335 27.1161C12.0978 27.1739 12.1501 27.2438 12.1873 27.3219C12.2245 27.3999 12.2459 27.4846 12.2503 27.5709C12.2547 27.6573 12.2419 27.7437 12.2128 27.8251C12.1536 27.9886 12.0318 28.122 11.8743 28.1958C11.7168 28.2697 11.5364 28.2779 11.3728 28.2188C10.6724 27.9632 9.91332 27.9146 9.18604 28.0787C8.45877 28.2427 7.79406 28.6126 7.27126 29.1441C6.53389 29.8824 6.11972 30.8832 6.11972 31.9266C6.11972 32.9701 6.53389 33.9709 7.27126 34.7091C7.90121 35.35 8.73141 35.7561 9.62401 35.86C10.5166 35.9639 11.4179 35.7593 12.1782 35.2803C12.9385 34.8013 13.5121 34.0766 13.8037 33.2266C14.0953 32.3766 14.0874 31.4525 13.7813 30.6076C13.7412 30.5239 13.7193 30.4328 13.7171 30.3401C13.7148 30.2474 13.7322 30.1552 13.7681 30.0697C13.8041 29.9843 13.8577 29.9074 13.9256 29.8441C13.9934 29.7809 14.0738 29.7327 14.1616 29.7028C14.2494 29.673 14.3425 29.662 14.4349 29.6707C14.5272 29.6795 14.6166 29.7077 14.6972 29.7535C14.7779 29.7993 14.8479 29.8616 14.9027 29.9365C14.9574 30.0113 14.9957 30.0969 15.015 30.1876C15.2965 30.9793 15.3838 31.827 15.2697 32.6594C15.1556 33.4919 14.8433 34.2848 14.3591 34.9716C13.8749 35.6583 13.233 36.2188 12.4872 36.6059C11.7415 36.993 10.9137 37.1955 10.0734 37.1963V37.1766ZM23.5266 12.6329C23.3535 12.6304 23.1884 12.5597 23.0672 12.436C22.945 12.3131 22.8764 12.1467 22.8764 11.9734C22.8764 11.8 22.945 11.6337 23.0672 11.5107L24.9375 9.65352C24.9963 9.58482 25.0687 9.52903 25.1502 9.48964C25.2316 9.45025 25.3202 9.42811 25.4106 9.42462C25.501 9.42113 25.5911 9.43636 25.6753 9.46935C25.7596 9.50234 25.836 9.55239 25.9 9.61634C25.964 9.6803 26.014 9.75678 26.047 9.84099C26.08 9.92521 26.0952 10.0153 26.0917 10.1057C26.0882 10.1961 26.0661 10.2848 26.0267 10.3662C25.9873 10.4476 25.9315 10.52 25.8628 10.5788L23.9925 12.4688C23.8645 12.5821 23.6973 12.641 23.5266 12.6329ZM16.1044 20.0551C16.018 20.0556 15.9324 20.039 15.8524 20.0064C15.7725 19.9737 15.6998 19.9256 15.6384 19.8648C15.5769 19.8038 15.5281 19.7312 15.4948 19.6512C15.4615 19.5712 15.4443 19.4855 15.4443 19.3988C15.4443 19.3122 15.4615 19.2264 15.4948 19.1465C15.5281 19.0665 15.5769 18.9939 15.6384 18.9329L17.4956 17.0626C17.6192 16.939 17.7868 16.8696 17.9616 16.8696C18.1363 16.8696 18.3039 16.939 18.4275 17.0626C18.5511 17.1862 18.6205 17.3538 18.6205 17.5285C18.6205 17.7033 18.5511 17.8709 18.4275 17.9945L16.5703 19.8516C16.5101 19.9148 16.4379 19.9654 16.3579 20.0003C16.2778 20.0352 16.1917 20.0539 16.1044 20.0551ZM14.2472 25.5938C14.075 25.5931 13.9101 25.5248 13.7878 25.4035L11.9306 23.5463C11.807 23.4252 11.7362 23.2601 11.7338 23.087C11.7341 23.0001 11.7517 22.9142 11.7855 22.8343C11.8193 22.7543 11.8686 22.6818 11.9306 22.621L13.7813 20.7901C13.9042 20.6679 14.0705 20.5992 14.2439 20.5992C14.4173 20.5992 14.5836 20.6679 14.7066 20.7901C14.7681 20.8511 14.8169 20.9237 14.8502 21.0036C14.8835 21.0836 14.9007 21.1694 14.9007 21.256C14.9007 21.3427 14.8835 21.4284 14.8502 21.5084C14.8169 21.5884 14.7681 21.6609 14.7066 21.722L13.3219 23.1132L14.7131 24.5045C14.8354 24.6274 14.904 24.7937 14.904 24.9671C14.904 25.1405 14.8354 25.3068 14.7131 25.4298C14.5851 25.5431 14.4179 25.6019 14.2472 25.5938ZM19.8188 16.3407C19.7324 16.3412 19.6468 16.3247 19.5668 16.292C19.4869 16.2593 19.4141 16.2112 19.3528 16.1504C19.2306 16.0274 19.162 15.8611 19.162 15.6877C19.162 15.5144 19.2306 15.348 19.3528 15.2251L21.21 13.3679C21.3355 13.2604 21.497 13.2042 21.6622 13.2106C21.8274 13.217 21.984 13.2854 22.1009 13.4023C22.2178 13.5192 22.2862 13.6759 22.2926 13.841C22.299 14.0062 22.2428 14.1677 22.1353 14.2932L20.2847 16.1504C20.2234 16.2112 20.1507 16.2593 20.0707 16.292C19.9907 16.3247 19.9051 16.3412 19.8188 16.3407ZM30.0234 19.1298C29.8503 19.1273 29.6852 19.0565 29.5641 18.9329C29.4418 18.8099 29.3732 18.6436 29.3732 18.4702C29.3732 18.2969 29.4418 18.1305 29.5641 18.0076L31.4213 16.1504C31.4771 16.0748 31.5486 16.0121 31.6308 15.9665C31.7131 15.9209 31.8041 15.8935 31.8979 15.8862C31.9916 15.8789 32.0858 15.8918 32.1741 15.924C32.2624 15.9563 32.3427 16.0071 32.4097 16.0731C32.4766 16.1391 32.5286 16.2188 32.5621 16.3066C32.5956 16.3944 32.6099 16.4884 32.6039 16.5823C32.5979 16.6761 32.5718 16.7675 32.5274 16.8504C32.483 16.9333 32.4214 17.0056 32.3466 17.0626L30.4894 18.9198C30.4297 18.9842 30.3577 19.0359 30.2777 19.072C30.1977 19.1081 30.1112 19.1277 30.0234 19.1298ZM22.6013 26.552C22.5149 26.5525 22.4293 26.5359 22.3493 26.5032C22.2694 26.4706 22.1966 26.4225 22.1353 26.3616C22.0738 26.3006 22.025 26.2281 21.9917 26.1481C21.9584 26.0681 21.9412 25.9823 21.9412 25.8957C21.9412 25.8091 21.9584 25.7233 21.9917 25.6433C22.025 25.5634 22.0738 25.4908 22.1353 25.4298L23.9925 23.5726C24.1161 23.4473 24.2844 23.3762 24.4604 23.3749C24.6364 23.3737 24.8056 23.4424 24.9309 23.566C25.0563 23.6896 25.1274 23.8579 25.1286 24.0339C25.1298 24.2099 25.0611 24.3791 24.9375 24.5045L23.0803 26.3616C23.0174 26.4241 22.9426 26.4731 22.8603 26.5058C22.7779 26.5385 22.6898 26.5542 22.6013 26.552ZM18.8869 30.2663C18.7138 30.2639 18.5487 30.1931 18.4275 30.0695L16.5703 28.2188C16.5016 28.16 16.4458 28.0876 16.4064 28.0062C16.367 27.9248 16.3449 27.8361 16.3414 27.7457C16.3379 27.6553 16.3532 27.5652 16.3861 27.481C16.4191 27.3968 16.4692 27.3203 16.5331 27.2563C16.5971 27.1924 16.6736 27.1423 16.7578 27.1094C16.842 27.0764 16.9321 27.0611 17.0225 27.0646C17.1129 27.0681 17.2016 27.0902 17.283 27.1296C17.3644 27.169 17.4368 27.2248 17.4956 27.2935L18.8869 28.6848L20.2847 27.2935C20.3435 27.2248 20.4159 27.169 20.4973 27.1296C20.5788 27.0902 20.6674 27.0681 20.7578 27.0646C20.8482 27.0611 20.9383 27.0764 21.0225 27.1094C21.1067 27.1423 21.1832 27.1924 21.2472 27.2563C21.3111 27.3203 21.3612 27.3968 21.3942 27.481C21.4272 27.5652 21.4424 27.6553 21.4389 27.7457C21.4354 27.8361 21.4133 27.9248 21.3739 28.0062C21.3345 28.0876 21.2787 28.16 21.21 28.2188L19.3528 30.076C19.2915 30.1368 19.2188 30.185 19.1388 30.2176C19.0589 30.2503 18.9732 30.2668 18.8869 30.2663ZM26.3156 22.8376C26.2293 22.8381 26.1437 22.8215 26.0637 22.7889C25.9837 22.7562 25.911 22.7081 25.8497 22.6473C25.7275 22.5243 25.6589 22.358 25.6589 22.1846C25.6589 22.0112 25.7275 21.8449 25.8497 21.722L27.7069 19.8648C27.8324 19.7573 27.9939 19.7011 28.1591 19.7075C28.3242 19.7138 28.4809 19.7823 28.5978 19.8992C28.7147 20.0161 28.7831 20.1727 28.7895 20.3379C28.7959 20.5031 28.7397 20.6645 28.6322 20.7901L26.775 22.6473C26.6528 22.7685 26.4878 22.8369 26.3156 22.8376ZM33.7378 15.4154C33.6515 15.4159 33.5658 15.3993 33.4859 15.3667C33.4059 15.334 33.3332 15.2859 33.2719 15.2251C33.2104 15.1641 33.1616 15.0915 33.1282 15.0115C33.0949 14.9316 33.0778 14.8458 33.0778 14.7591C33.0778 14.6725 33.0949 14.5867 33.1282 14.5068C33.1616 14.4268 33.2104 14.3542 33.2719 14.2932L35.595 11.9766L30.0234 6.40508L27.7069 8.72821C27.5833 8.85178 27.4157 8.9212 27.2409 8.9212C27.0662 8.9212 26.8986 8.85178 26.775 8.72821C26.6514 8.60463 26.582 8.43703 26.582 8.26227C26.582 8.08751 26.6514 7.91991 26.775 7.79633L29.5641 5.01383C29.687 4.8916 29.8534 4.823 30.0267 4.823C30.2001 4.823 30.3664 4.8916 30.4894 5.01383L36.9863 11.5107C37.1085 11.6337 37.1771 11.8 37.1771 11.9734C37.1771 12.1467 37.1085 12.3131 36.9863 12.436L34.2038 15.2251C34.1424 15.2859 34.0697 15.334 33.9898 15.3667C33.9098 15.3993 33.8242 15.4159 33.7378 15.4154Z" fill="#fff"/>
    <path d="M11.6156 28.2582C11.4858 28.2576 11.3591 28.2186 11.2515 28.1461C11.1439 28.0735 11.0602 27.9707 11.011 27.8506C10.9619 27.7304 10.9494 27.5984 10.9753 27.4713C11.0011 27.3441 11.0641 27.2274 11.1563 27.136L13.7813 24.511C13.8401 24.4423 13.9125 24.3865 13.9939 24.3471C14.0753 24.3077 14.164 24.2856 14.2544 24.2821C14.3448 24.2786 14.4349 24.2938 14.5191 24.3268C14.6033 24.3598 14.6798 24.4099 14.7437 24.4738C14.8077 24.5378 14.8577 24.6143 14.8907 24.6985C14.9237 24.7827 14.939 24.8728 14.9355 24.9632C14.932 25.0536 14.9098 25.1422 14.8704 25.2237C14.8311 25.3051 14.7753 25.3775 14.7066 25.4363L12.0816 28.0613C12.0208 28.1233 11.9483 28.1726 11.8683 28.2064C11.7883 28.2402 11.7025 28.2578 11.6156 28.2582ZM14.3981 31.0407C14.3118 31.0412 14.2261 31.0246 14.1462 30.992C14.0662 30.9593 13.9935 30.9112 13.9322 30.8504C13.81 30.7274 13.7414 30.5611 13.7414 30.3877C13.7414 30.2143 13.81 30.048 13.9322 29.9251L16.5572 27.3001C16.6175 27.2384 16.6894 27.1893 16.7687 27.1555C16.848 27.1216 16.9332 27.1037 17.0194 27.1028C17.1057 27.1019 17.1912 27.118 17.2713 27.1501C17.3513 27.1823 17.4242 27.2299 17.4858 27.2902C17.5474 27.3505 17.5965 27.4224 17.6304 27.5017C17.6642 27.581 17.6821 27.6662 17.683 27.7525C17.6839 27.8387 17.6679 27.9243 17.6357 28.0043C17.6036 28.0843 17.556 28.1572 17.4956 28.2188L14.8706 30.8438C14.8091 30.9066 14.7355 30.9564 14.6544 30.9902C14.5732 31.024 14.4861 31.0412 14.3981 31.0407ZM22.6012 29.7216C22.0793 29.7212 21.5789 29.5134 21.21 29.1441L12.8559 20.7901C12.5082 20.4168 12.3189 19.9232 12.3279 19.4132C12.3369 18.9031 12.5435 18.4165 12.9042 18.0558C13.2649 17.6951 13.7515 17.4885 14.2616 17.4795C14.7716 17.4705 15.2652 17.6598 15.6384 18.0076L23.9925 26.3616C24.3612 26.7308 24.5683 27.2311 24.5683 27.7529C24.5683 28.2746 24.3612 28.775 23.9925 29.1441C23.6236 29.5134 23.1232 29.7212 22.6012 29.7216ZM14.2472 18.7426C14.1608 18.7421 14.0752 18.7586 13.9953 18.7913C13.9153 18.8239 13.8426 18.872 13.7813 18.9329C13.7197 18.9939 13.6709 19.0665 13.6376 19.1464C13.6043 19.2264 13.5871 19.3122 13.5871 19.3988C13.5871 19.4854 13.6043 19.5712 13.6376 19.6512C13.6709 19.7312 13.7197 19.8037 13.7813 19.8647L22.1353 28.2188C22.1963 28.2803 22.2689 28.3291 22.3489 28.3625C22.4288 28.3958 22.5146 28.4129 22.6012 28.4129C22.6879 28.4129 22.7737 28.3958 22.8536 28.3625C22.9336 28.3291 23.0062 28.2803 23.0672 28.2188C23.1884 28.0966 23.2568 27.9316 23.2575 27.7594C23.258 27.6731 23.2414 27.5874 23.2088 27.5075C23.1761 27.4275 23.128 27.3548 23.0672 27.2935L14.7131 18.9329C14.6518 18.872 14.5791 18.8239 14.4991 18.7913C14.4192 18.7586 14.3336 18.7421 14.2472 18.7426ZM26.3156 26.0072C25.7982 26.0033 25.3031 25.7959 24.9375 25.4297L16.5703 17.0626C16.2016 16.6934 15.9945 16.193 15.9945 15.6713C15.9945 15.1496 16.2016 14.6492 16.5703 14.2801C16.9459 13.9237 17.4439 13.7251 17.9616 13.7251C18.4793 13.7251 18.9773 13.9237 19.3528 14.2801L27.7069 22.6472C27.9819 22.9226 28.1691 23.2732 28.2449 23.6549C28.3207 24.0366 28.2817 24.4321 28.1329 24.7917C27.984 25.1512 27.7319 25.4585 27.4085 25.6749C27.0851 25.8913 26.7048 26.0069 26.3156 26.0072ZM25.8497 24.5044C25.9726 24.6267 26.139 24.6953 26.3123 24.6953C26.4857 24.6953 26.652 24.6267 26.775 24.5044C26.8365 24.4434 26.8853 24.3708 26.9186 24.2909C26.952 24.2109 26.9691 24.1251 26.9691 24.0385C26.9691 23.9519 26.952 23.8661 26.9186 23.7861C26.8853 23.7061 26.8365 23.6336 26.775 23.5726L18.4275 15.2251C18.3665 15.1635 18.2939 15.1147 18.2139 15.0814C18.134 15.0481 18.0482 15.0309 17.9616 15.0309C17.8749 15.0309 17.7892 15.0481 17.7092 15.0814C17.6292 15.1147 17.5566 15.1635 17.4956 15.2251C17.3744 15.3473 17.306 15.5123 17.3053 15.6844C17.3048 15.7708 17.3214 15.8564 17.354 15.9364C17.3867 16.0163 17.4348 16.089 17.4956 16.1504L25.8497 24.5044ZM30.0234 22.3126C29.5024 22.3138 29.0021 22.1085 28.6322 21.7416L20.2847 13.3679C20.1011 13.185 19.9555 12.9676 19.8562 12.7283C19.7568 12.489 19.7056 12.2325 19.7056 11.9733C19.7056 11.7142 19.7568 11.4577 19.8562 11.2184C19.9555 10.979 20.1011 10.7617 20.2847 10.5788C20.6602 10.2225 21.1582 10.0238 21.6759 10.0238C22.1937 10.0238 22.6916 10.2225 23.0672 10.5788L31.4213 18.9329C31.7035 19.2075 31.8969 19.5604 31.9765 19.9461C32.0561 20.3318 32.0182 20.7325 31.8677 21.0964C31.7172 21.4603 31.461 21.7707 31.1322 21.9875C30.8034 22.2043 30.4172 22.3175 30.0234 22.3126ZM29.5641 20.8097C29.687 20.932 29.8533 21.0006 30.0267 21.0006C30.2001 21.0006 30.3664 20.932 30.4894 20.8097C30.6116 20.6868 30.6802 20.5205 30.6802 20.3471C30.6802 20.1737 30.6116 20.0074 30.4894 19.8844L22.1353 11.5107C22.0124 11.3885 21.846 11.3198 21.6727 11.3198C21.4993 11.3198 21.333 11.3885 21.21 11.5107C21.0878 11.6336 21.0192 11.8 21.0192 11.9733C21.0192 12.1467 21.0878 12.313 21.21 12.436L29.5641 20.7901V20.8097ZM33.7378 18.5851C33.2158 18.5846 32.7154 18.3769 32.3466 18.0076L23.9925 9.65349C23.7991 9.47326 23.6439 9.25591 23.5363 9.01441C23.4287 8.77291 23.3709 8.51221 23.3662 8.24787C23.3615 7.98352 23.4102 7.72094 23.5092 7.4758C23.6082 7.23066 23.7556 7.00797 23.9425 6.82102C24.1295 6.63407 24.3522 6.48669 24.5973 6.38767C24.8425 6.28865 25.105 6.24003 25.3694 6.24469C25.6337 6.24936 25.8944 6.30721 26.1359 6.41482C26.3774 6.52242 26.5948 6.67757 26.775 6.87099L35.1291 15.2251C35.4977 15.5942 35.7048 16.0946 35.7048 16.6163C35.7048 17.138 35.4977 17.6384 35.1291 18.0076C34.7602 18.3769 34.2598 18.5846 33.7378 18.5851ZM25.3838 7.60599C25.2551 7.60907 25.1302 7.64992 25.0245 7.72345C24.9189 7.79699 24.8372 7.89996 24.7896 8.01956C24.7421 8.13916 24.7307 8.27011 24.757 8.3961C24.7833 8.5221 24.8461 8.63758 24.9375 8.72818L33.2719 17.0626C33.3948 17.1848 33.5612 17.2534 33.7345 17.2534C33.9079 17.2534 34.0742 17.1848 34.1972 17.0626C34.3194 16.9396 34.388 16.7733 34.388 16.5999C34.388 16.4265 34.3194 16.2602 34.1972 16.1372L25.8497 7.79631C25.7884 7.73548 25.7156 7.68736 25.6357 7.65471C25.5557 7.62205 25.4701 7.60549 25.3838 7.60599Z" fill="#fff"/>
</svg>
