<svg xmlns="http://www.w3.org/2000/svg" width="42" height="42" viewBox="0 0 42 42" fill="none" style="&#10;">
    <g clip-path="url(#clip0_118_1177)">
    <path d="M36.75 37.625L35 40.25L33.25 37.625V17.5C33.25 17.0359 33.4344 16.5908 33.7626 16.2626C34.0908 15.9344 34.5359 15.75 35 15.75C35.4641 15.75 35.9092 15.9344 36.2374 16.2626C36.5656 16.5908 36.75 17.0359 36.75 17.5V37.625Z" fill="white"/>
    <path d="M36.75 17.5V20.125H33.25V17.5C33.25 17.0359 33.4344 16.5908 33.7626 16.2626C34.0908 15.9344 34.5359 15.75 35 15.75C35.4641 15.75 35.9092 15.9344 36.2374 16.2626C36.5656 16.5908 36.75 17.0359 36.75 17.5Z" fill="#ffffff"/>
    <path d="M36.75 29.75H33.25V35.875H36.75V29.75Z" fill="#ffffff"/>
    <path d="M20.685 14.9491L22.625 15.593V17.375H8.875L8.875 16.24L8.875 16.2395C8.87492 16.0725 8.93058 15.9103 9.03315 15.7785C9.13544 15.6471 9.27854 15.5535 9.43989 15.5124C9.44034 15.5123 9.4408 15.5121 9.44125 15.512L11.6166 14.9704L11.9917 14.877L12.2064 14.5556L13.4402 12.7094L13.4406 12.7087C13.509 12.6063 13.6015 12.5222 13.7101 12.464C13.8185 12.4059 13.9394 12.3753 14.0624 12.375H18.3126C18.4356 12.3753 18.5565 12.4059 18.6649 12.464C18.7735 12.5222 18.866 12.6063 18.9344 12.7087L18.9348 12.7094L20.1686 14.5556L20.3593 14.841L20.685 14.9491ZM7.875 17.5V16.24L23.625 15.505V17.5C23.625 17.7321 23.5328 17.9546 23.3687 18.1187C23.2046 18.2828 22.9821 18.375 22.75 18.375H8.75C8.51794 18.375 8.29538 18.2828 8.13128 18.1187C7.96719 17.9546 7.875 17.7321 7.875 17.5Z" stroke="#fff" stroke-width="2"/>
    <path d="M11.375 20.125C12.3415 20.125 13.125 19.3415 13.125 18.375C13.125 17.4085 12.3415 16.625 11.375 16.625C10.4085 16.625 9.625 17.4085 9.625 18.375C9.625 19.3415 10.4085 20.125 11.375 20.125Z" fill="#ffffff"/>
    <path d="M20.125 20.125C21.0915 20.125 21.875 19.3415 21.875 18.375C21.875 17.4085 21.0915 16.625 20.125 16.625C19.1585 16.625 18.375 17.4085 18.375 18.375C18.375 19.3415 19.1585 20.125 20.125 20.125Z" fill="#ffffff"/>
    <path d="M14.875 16.625H14C13.7679 16.625 13.5454 16.5328 13.3813 16.3687C13.2172 16.2046 13.125 15.9821 13.125 15.75C13.125 15.5179 13.2172 15.2954 13.3813 15.1313C13.5454 14.9672 13.7679 14.875 14 14.875H14.875C15.1071 14.875 15.3296 14.9672 15.4937 15.1313C15.6578 15.2954 15.75 15.5179 15.75 15.75C15.75 15.9821 15.6578 16.2046 15.4937 16.3687C15.3296 16.5328 15.1071 16.625 14.875 16.625Z" fill="white"/>
    <path d="M24.5 24.4999H15.75C15.5179 24.4999 15.2954 24.4077 15.1313 24.2436C14.9672 24.0795 14.875 23.857 14.875 23.6249C14.875 23.3929 14.9672 23.1703 15.1313 23.0062C15.2954 22.8421 15.5179 22.7499 15.75 22.7499H24.5C24.7321 22.7499 24.9546 22.8421 25.1187 23.0062C25.2828 23.1703 25.375 23.3929 25.375 23.6249C25.375 23.857 25.2828 24.0795 25.1187 24.2436C24.9546 24.4077 24.7321 24.4999 24.5 24.4999ZM20.125 27.9999H15.75C15.5179 27.9999 15.2954 27.9077 15.1313 27.7436C14.9672 27.5795 14.875 27.357 14.875 27.1249C14.875 26.8929 14.9672 26.6703 15.1313 26.5062C15.2954 26.3421 15.5179 26.2499 15.75 26.2499H20.125C20.3571 26.2499 20.5796 26.3421 20.7437 26.5062C20.9078 26.6703 21 26.8929 21 27.1249C21 27.357 20.9078 27.5795 20.7437 27.7436C20.5796 27.9077 20.3571 27.9999 20.125 27.9999ZM24.5 31.4999H15.75C15.5179 31.4999 15.2954 31.4077 15.1313 31.2436C14.9672 31.0795 14.875 30.857 14.875 30.6249C14.875 30.3929 14.9672 30.1703 15.1313 30.0062C15.2954 29.8421 15.5179 29.7499 15.75 29.7499H24.5C24.7321 29.7499 24.9546 29.8421 25.1187 30.0062C25.2828 30.1703 25.375 30.3929 25.375 30.6249C25.375 30.857 25.2828 31.0795 25.1187 31.2436C24.9546 31.4077 24.7321 31.4999 24.5 31.4999ZM20.125 34.9999H15.75C15.5179 34.9999 15.2954 34.9077 15.1313 34.7436C14.9672 34.5795 14.875 34.357 14.875 34.1249C14.875 33.8929 14.9672 33.6703 15.1313 33.5062C15.2954 33.3421 15.5179 33.2499 15.75 33.2499H20.125C20.3571 33.2499 20.5796 33.3421 20.7437 33.5062C20.9078 33.6703 21 33.8929 21 34.1249C21 34.357 20.9078 34.5795 20.7437 34.7436C20.5796 34.9077 20.3571 34.9999 20.125 34.9999ZM8.75001 27.9999C8.27751 27.9999 8.25126 27.8687 6.37876 25.9962C6.29718 25.9146 6.23246 25.8177 6.18831 25.7111C6.14415 25.6045 6.12143 25.4903 6.12143 25.3749C6.12143 25.2595 6.14415 25.1453 6.18831 25.0387C6.23246 24.9321 6.29718 24.8353 6.37876 24.7537C6.46034 24.6721 6.5572 24.6074 6.66379 24.5632C6.77039 24.5191 6.88463 24.4963 7.00001 24.4963C7.11539 24.4963 7.22963 24.5191 7.33623 24.5632C7.44282 24.6074 7.53968 24.6721 7.62126 24.7537L8.75001 25.8912L11.6288 23.0037C11.7103 22.9221 11.8072 22.8574 11.9138 22.8132C12.0204 22.7691 12.1346 22.7463 12.25 22.7463C12.3654 22.7463 12.4796 22.7691 12.5862 22.8132C12.6928 22.8574 12.7897 22.9221 12.8713 23.0037C12.9528 23.0853 13.0176 23.1821 13.0617 23.2887C13.1059 23.3953 13.1286 23.5095 13.1286 23.6249C13.1286 23.7403 13.1059 23.8545 13.0617 23.9611C13.0176 24.0677 12.9528 24.1646 12.8713 24.2462L9.37126 27.7462C9.2895 27.8273 9.19254 27.8914 9.08593 27.935C8.97932 27.9785 8.86517 28.0006 8.75001 27.9999Z" fill="#ffffff"/>
    <path d="M28 5.25H23.4675C23.287 4.73939 22.9529 4.29712 22.5112 3.98382C22.0694 3.67052 21.5416 3.50152 21 3.5H20.125C20.125 2.80381 19.8484 2.13613 19.3562 1.64384C18.8639 1.15156 18.1962 0.875 17.5 0.875H14C13.3038 0.875 12.6361 1.15156 12.1438 1.64384C11.6516 2.13613 11.375 2.80381 11.375 3.5H10.5C9.95842 3.50152 9.43057 3.67052 8.98882 3.98382C8.54706 4.29712 8.21302 4.73939 8.0325 5.25H3.5C2.80381 5.25 2.13613 5.52656 1.64384 6.01884C1.15156 6.51113 0.875 7.17881 0.875 7.875V38.5C0.875 39.1962 1.15156 39.8639 1.64384 40.3562C2.13613 40.8484 2.80381 41.125 3.5 41.125H28C28.6962 41.125 29.3639 40.8484 29.8562 40.3562C30.3484 39.8639 30.625 39.1962 30.625 38.5V7.875C30.625 7.17881 30.3484 6.51113 29.8562 6.01884C29.3639 5.52656 28.6962 5.25 28 5.25ZM10.5 5.25H12.25C12.4821 5.25 12.7046 5.15781 12.8687 4.99372C13.0328 4.82962 13.125 4.60706 13.125 4.375V3.5C13.125 3.26794 13.2172 3.04538 13.3813 2.88128C13.5454 2.71719 13.7679 2.625 14 2.625H17.5C17.7321 2.625 17.9546 2.71719 18.1187 2.88128C18.2828 3.04538 18.375 3.26794 18.375 3.5V4.375C18.375 4.60706 18.4672 4.82962 18.6313 4.99372C18.7954 5.15781 19.0179 5.25 19.25 5.25H21C21.2321 5.25 21.4546 5.34219 21.6187 5.50628C21.7828 5.67038 21.875 5.89294 21.875 6.125V7.875H9.625V6.125C9.625 5.89294 9.71719 5.67038 9.88128 5.50628C10.0454 5.34219 10.2679 5.25 10.5 5.25ZM28.875 38.5C28.875 38.7321 28.7828 38.9546 28.6187 39.1187C28.4546 39.2828 28.2321 39.375 28 39.375H3.5C3.26794 39.375 3.04538 39.2828 2.88128 39.1187C2.71719 38.9546 2.625 38.7321 2.625 38.5V7.875C2.625 7.64294 2.71719 7.42038 2.88128 7.25628C3.04538 7.09219 3.26794 7 3.5 7H7.875V8.75C7.875 8.98206 7.96719 9.20462 8.13128 9.36872C8.29538 9.53281 8.51793 9.625 8.75 9.625H22.75C22.9821 9.625 23.2046 9.53281 23.3687 9.36872C23.5328 9.20462 23.625 8.98206 23.625 8.75V7H28C28.2321 7 28.4546 7.09219 28.6187 7.25628C28.7828 7.42038 28.875 7.64294 28.875 7.875V38.5ZM38.5 19.25H37.625V17.5C37.6235 16.9584 37.4545 16.4306 37.1412 15.9888C36.8279 15.5471 36.3856 15.213 35.875 15.0325V14C35.875 13.7679 35.7828 13.5454 35.6187 13.3813C35.4546 13.2172 35.2321 13.125 35 13.125C34.7679 13.125 34.5454 13.2172 34.3813 13.3813C34.2172 13.5454 34.125 13.7679 34.125 14V15.0325C33.6144 15.213 33.1721 15.5471 32.8588 15.9888C32.5455 16.4306 32.3765 16.9584 32.375 17.5C32.375 39.025 32.305 37.7912 32.5237 38.1062L34.2737 40.7312C34.3538 40.8504 34.4619 40.9479 34.5885 41.0154C34.7152 41.0829 34.8565 41.1182 35 41.1182C35.1435 41.1182 35.2848 41.0829 35.4115 41.0154C35.5381 40.9479 35.6462 40.8504 35.7262 40.7312L37.4762 38.1062C37.6862 37.8 37.625 39.0337 37.625 21H38.5C38.7321 21 38.9546 21.0922 39.1187 21.2563C39.2828 21.4204 39.375 21.6429 39.375 21.875V27.125C39.375 27.3571 39.4672 27.5796 39.6313 27.7437C39.7954 27.9078 40.0179 28 40.25 28C40.4821 28 40.7046 27.9078 40.8687 27.7437C41.0328 27.5796 41.125 27.3571 41.125 27.125V21.875C41.125 21.1788 40.8484 20.5111 40.3562 20.0188C39.8639 19.5266 39.1962 19.25 38.5 19.25ZM35 16.625C35.2321 16.625 35.4546 16.7172 35.6187 16.8813C35.7828 17.0454 35.875 17.2679 35.875 17.5V19.25H34.125V17.5C34.125 17.2679 34.2172 17.0454 34.3813 16.8813C34.5454 16.7172 34.7679 16.625 35 16.625ZM35.875 35H34.125V30.625H35.875V35ZM35 38.675L34.125 37.3625V36.75H35.875V37.3625L35 38.675ZM35.875 28.875H34.125V21H35.875V28.875Z" fill="#ffffff"/>
    </g>
    <defs>
    <clipPath id="clip0_118_1177">
    <rect width="42" height="42" fill="white"/>
    </clipPath>
    </defs>
</svg>