<svg width="41" height="41" viewBox="0 0 41 41" fill="none" xmlns="http://www.w3.org/2000/svg">
    <path d="M18.3872 12.7935C16.4453 12.7935 14.547 13.3693 12.9324 14.4482C11.3178 15.527 10.0593 17.0604 9.31617 18.8545C8.57304 20.6486 8.3786 22.6228 8.75745 24.5274C9.1363 26.4319 10.0714 28.1814 11.4445 29.5545C12.8177 30.9277 14.5671 31.8628 16.4717 32.2416C18.3763 32.6205 20.3505 32.426 22.1446 31.6829C23.9386 30.9398 25.4721 29.6813 26.5509 28.0667C27.6298 26.4521 28.2056 24.5538 28.2056 22.6119C28.2026 20.0088 27.1672 17.5132 25.3265 15.6726C23.4859 13.8319 20.9903 12.7965 18.3872 12.7935ZM18.3872 25.8847C17.7399 25.8847 17.1071 25.6927 16.5689 25.3331C16.0307 24.9735 15.6112 24.4624 15.3635 23.8643C15.1158 23.2663 15.051 22.6082 15.1773 21.9734C15.3036 21.3385 15.6153 20.7554 16.073 20.2977C16.5307 19.8399 17.1139 19.5282 17.7487 19.402C18.3836 19.2757 19.0416 19.3405 19.6397 19.5882C20.2377 19.8359 20.7488 20.2554 21.1084 20.7936C21.4681 21.3318 21.66 21.9646 21.66 22.6119C21.659 23.4796 21.3139 24.3114 20.7003 24.925C20.0868 25.5385 19.2549 25.8837 18.3872 25.8847ZM21.0825 19.1011C20.4665 18.6265 19.7358 18.3236 18.9648 18.2232V13.9686C20.8598 14.0941 22.6606 14.8412 24.0881 16.094L21.0825 19.1011ZM17.8097 18.2232C17.0391 18.3238 16.309 18.6267 15.6935 19.1011L12.6864 16.0978C14.1133 14.8436 15.9141 14.0952 17.8097 13.9686V18.2232ZM14.8765 19.9174C14.4019 20.5331 14.099 21.2635 13.9986 22.0343H9.74392C9.86946 20.1392 10.6165 18.3385 11.8693 16.911L14.8765 19.9174ZM13.9986 23.1894C14.0992 23.96 14.4021 24.6901 14.8765 25.3056L11.8732 28.3089C10.6197 26.883 9.87137 25.0836 9.74392 23.1894H13.9986ZM15.6927 26.1226C16.3084 26.5971 17.0388 26.9 17.8097 27.0005V31.2552C15.9146 31.1296 14.1138 30.3826 12.6864 29.1298L15.6927 26.1226ZM18.9648 27.0005C19.7353 26.8999 20.4654 26.597 21.0809 26.1226L24.0842 29.1298C22.6578 30.3818 20.8585 31.1288 18.9648 31.2552V27.0005ZM21.898 25.3064C22.3725 24.6907 22.6754 23.9602 22.7758 23.1894H27.0305C26.905 25.0845 26.1579 26.8853 24.9051 28.3127L21.898 25.3064ZM22.7758 22.0343C22.6752 21.2638 22.3724 20.5336 21.898 19.9182L24.9051 16.911C26.1579 18.3385 26.905 20.1392 27.0305 22.0343H22.7758Z" fill="#fff" stroke="#fff" stroke-width="0.6"/>
    <path d="M33.7617 7.23731C31.7437 5.20816 29.3433 3.59946 26.6993 2.50432C24.0554 1.40917 21.2205 0.849353 18.3587 0.85726C18.2055 0.85726 18.0586 0.91811 17.9503 1.02642C17.842 1.13473 17.7812 1.28164 17.7812 1.43481V4.95019C14.3395 5.06819 11.0072 6.18916 8.19403 8.17534C5.3808 10.1615 3.20917 12.9264 1.94603 16.1301C0.682898 19.3338 0.383298 22.8367 1.08406 26.2083C1.78482 29.58 3.4554 32.6735 5.89048 35.1085C8.32541 37.544 11.4189 39.2149 14.7907 39.9158C18.1624 40.6168 21.6655 40.3173 24.8694 39.0541C28.0732 37.7909 30.8381 35.6191 32.8243 32.8056C34.8104 29.9922 35.9312 26.6597 36.0488 23.2178H39.5642C39.7174 23.2178 39.8643 23.157 39.9726 23.0487C40.0809 22.9404 40.1418 22.7935 40.1418 22.6403C40.1497 19.7785 39.5898 16.9436 38.4947 14.2997C37.3996 11.6558 35.7908 9.2553 33.7617 7.23731ZM18.3872 39.1298C9.2788 39.1298 1.86917 31.7202 1.86917 22.6118C1.86917 13.7121 8.95383 6.42642 17.7812 6.10607V9.84015C17.7812 9.99333 17.842 10.1402 17.9503 10.2485C18.0586 10.3569 18.2055 10.4177 18.3587 10.4177C25.0984 10.4177 30.5813 15.9006 30.5813 22.6403C30.5813 22.7935 30.6422 22.9404 30.7505 23.0487C30.8588 23.157 31.0057 23.2178 31.1589 23.2178H34.8929C34.5726 32.0452 27.2869 39.1298 18.3872 39.1298ZM31.7241 22.0627C31.4284 15.1452 25.8538 9.57063 18.9363 9.27492V2.02007C29.8528 2.3204 38.6786 11.1462 38.9789 22.0627H31.7241Z" fill="#fff" stroke="#fff" stroke-width="0.6"/>
    <path d="M26.1264 4.93872C25.7076 4.93872 25.2982 5.06292 24.9499 5.29562C24.6016 5.52831 24.3302 5.85905 24.1699 6.24601C24.0096 6.63297 23.9677 7.05877 24.0494 7.46956C24.1311 7.88035 24.3328 8.25769 24.629 8.55386C24.9252 8.85002 25.3025 9.05171 25.7133 9.13343C26.1241 9.21514 26.5499 9.1732 26.9368 9.01292C27.3238 8.85263 27.6545 8.5812 27.8872 8.23295C28.1199 7.8847 28.2441 7.47526 28.2441 7.05642C28.2433 6.49502 28.0199 5.95685 27.623 5.55988C27.226 5.16291 26.6878 4.93954 26.1264 4.93872ZM26.1264 8.01901C25.936 8.01901 25.7499 7.96255 25.5916 7.85678C25.4333 7.75101 25.31 7.60068 25.2371 7.42479C25.1643 7.2489 25.1452 7.05535 25.1823 6.86863C25.2195 6.6819 25.3112 6.51039 25.4458 6.37576C25.5804 6.24114 25.7519 6.14947 25.9386 6.11232C26.1254 6.07518 26.3189 6.09425 26.4948 6.1671C26.6707 6.23996 26.821 6.36334 26.9268 6.52163C27.0326 6.67993 27.089 6.86604 27.089 7.05642C27.0886 7.31159 26.9871 7.55619 26.8066 7.73662C26.6262 7.91706 26.3816 8.0186 26.1264 8.01901ZM30.9009 13.5397C30.9009 13.9585 31.0251 14.3679 31.2578 14.7162C31.4905 15.0644 31.8212 15.3359 32.2082 15.4962C32.5951 15.6564 33.0209 15.6984 33.4317 15.6167C33.8425 15.535 34.2198 15.3333 34.516 15.0371C34.8122 14.7409 35.0139 14.3636 35.0956 13.9528C35.1773 13.542 35.1354 13.1162 34.9751 12.7292C34.8148 12.3423 34.5434 12.0116 34.1951 11.7789C33.8468 11.5462 33.4374 11.422 33.0186 11.422C32.4572 11.4228 31.919 11.6461 31.522 12.0431C31.1251 12.4401 30.9017 12.9783 30.9009 13.5397ZM33.0186 12.5771C33.209 12.5771 33.3951 12.6335 33.5534 12.7393C33.7117 12.8451 33.835 12.9954 33.9079 13.1713C33.9807 13.3472 33.9998 13.5407 33.9627 13.7274C33.9255 13.9142 33.8338 14.0857 33.6992 14.2203C33.5646 14.3549 33.3931 14.4466 33.2064 14.4838C33.0196 14.5209 32.8261 14.5018 32.6502 14.429C32.4743 14.3561 32.324 14.2327 32.2182 14.0744C32.1124 13.9161 32.056 13.73 32.056 13.5397C32.0562 13.2844 32.1577 13.0397 32.3381 12.8592C32.5186 12.6788 32.7633 12.5773 33.0186 12.5771Z" fill="#fff" stroke="#fff" stroke-width="0.6"/>
</svg>
