<svg width="36" height="42" viewBox="0 0 36 42" fill="none" xmlns="http://www.w3.org/2000/svg">
    <path d="M15.3119 7.09191C7.42864 8.43881 1.42857 15.3043 1.42857 23.5685C1.42857 32.8017 8.91266 40.2858 18.1459 40.2858C27.3791 40.2858 34.8632 32.8017 34.8632 23.5685C34.8632 15.3012 28.8631 8.43576 20.9798 7.08887" stroke="#fff" stroke-width="2" stroke-miterlimit="10" stroke-linecap="round" stroke-linejoin="round"/>
    <path d="M15.3119 10.6724C9.46118 11.998 5.09445 17.2271 5.09445 23.4801C5.09445 30.7326 10.9726 36.6108 18.2251 36.6108C25.4776 36.6108 31.3558 30.7326 31.3558 23.4801C31.3558 17.1723 26.9098 11.9035 20.9798 10.6389" stroke="#fff" stroke-width="2" stroke-miterlimit="10" stroke-linecap="round" stroke-linejoin="round"/>
    <path d="M20.9798 18.4155C22.5979 19.3815 23.6827 21.152 23.6827 23.1723C23.6827 26.2318 21.2023 28.7092 18.1459 28.7092C15.0895 28.7092 12.609 26.2287 12.609 23.1723C12.609 21.1489 13.6938 19.3815 15.3119 18.4155" stroke="#fff" stroke-width="2" stroke-miterlimit="10" stroke-linecap="round" stroke-linejoin="round"/>
    <path d="M15.3119 14.3779C11.4602 15.609 8.67194 19.22 8.67194 23.48C8.67194 28.7579 12.9503 33.0332 18.2251 33.0332C23.4999 33.0332 27.7783 28.7549 27.7783 23.48C27.7783 19.1621 24.9108 15.5114 20.9768 14.3291" stroke="#fff" stroke-width="2" stroke-miterlimit="10" stroke-linecap="round" stroke-linejoin="round"/>
    <path d="M20.9798 7.09188V0.857178H15.3119V21.0545H20.9798V10.6359V7.09188Z" stroke="#fff" stroke-width="2" stroke-miterlimit="10" stroke-linecap="round" stroke-linejoin="round"/>
    <path d="M34.8632 23.5684V37.0617" stroke="#fff" stroke-width="2" stroke-miterlimit="10" stroke-linecap="round" stroke-linejoin="round"/>
</svg>
