<svg width="40" height="38" viewBox="0 0 40 38" fill="none" xmlns="http://www.w3.org/2000/svg">
    <path d="M12.3388 0C8.78703 0 5.66192 2.27871 3.48456 5.72968C1.30721 9.18045 -2.84999e-06 13.8536 0 19C-2.84999e-06 24.1463 1.30721 28.8195 3.48456 32.2703C5.66192 35.721 8.78703 37.9999 12.3388 37.9999H18.0388H25.6388C25.6462 38 25.6537 38 25.6611 37.9999C29.6792 37.9999 33.2801 35.7817 35.8216 32.3296C38.3631 28.8773 39.8999 24.1733 39.8999 19C39.8999 13.8267 38.3631 9.12612 35.8216 5.67401C33.2984 2.24657 29.7297 0.0391218 25.7464 0.00742186C25.7181 0.0036658 25.6896 0.00118926 25.6611 0H25.6388H18.1056H18.0388H12.3388ZM12.3388 1.9H12.6617C11.344 2.87751 10.1611 4.17604 9.18084 5.72968C7.00349 9.18045 5.69999 13.8536 5.69999 19C5.69999 24.1463 7.00349 28.8195 9.18084 32.2703C10.1621 33.8254 11.346 35.1221 12.6654 36.0999H12.3388C9.60073 36.0999 7.03602 34.3392 5.0914 31.2572C3.14678 28.1752 1.89999 23.8223 1.9 19C1.89999 14.1776 3.14678 9.82846 5.0914 6.74647C7.03602 3.66449 9.60073 1.9 12.3388 1.9ZM18.0388 1.9H19.4564C17.9615 2.86174 16.6098 4.13696 15.4783 5.67401C13.2545 8.69461 11.7994 12.6688 11.4705 17.0814C11.4235 17.7118 11.4 18.3533 11.4 19C11.4 24.1733 12.9368 28.8773 15.4783 32.3296C16.6107 33.8678 17.9638 35.1388 19.4601 36.0999H18.1056H18.0388C15.3007 36.0999 12.7323 34.3392 10.7877 31.2572C8.84306 28.1752 7.59998 23.8223 7.59999 19C7.59998 14.1776 8.84306 9.82846 10.7877 6.74647C12.7323 3.66449 15.3007 1.9 18.0388 1.9ZM25.6388 1.9C25.6462 1.90008 25.6537 1.90008 25.6611 1.9C28.9818 1.9 32.0248 3.72148 34.2927 6.80214C36.5606 9.88279 37.9999 14.2046 37.9999 19C37.9999 23.7954 36.5606 28.1209 34.2927 31.2015C32.0248 34.2822 28.9818 36.0999 25.6611 36.0999C25.6574 36.0999 25.6537 36.0999 25.65 36.0999H25.6388C25.2237 36.0999 24.8122 36.0703 24.4068 36.0146C21.5687 35.6245 18.9916 33.8971 17.0072 31.2015C14.7393 28.1209 13.3 23.7954 13.3 19C13.3 18.4005 13.323 17.8056 13.3668 17.2224C13.6733 13.1406 15.0228 9.49771 17.0072 6.80214C19.2751 3.72148 22.3181 1.9 25.6388 1.9ZM25.6203 3.8037C22.6451 3.8037 19.9964 5.50327 18.1502 8.09354C16.3039 10.6838 15.2037 14.1872 15.2037 18.0388C15.2019 18.1647 15.2252 18.2897 15.2721 18.4065C15.319 18.5233 15.3887 18.6297 15.4771 18.7193C15.5655 18.809 15.6709 18.8802 15.787 18.9287C15.9031 18.9773 16.0278 19.0024 16.1537 19.0024C16.2796 19.0024 16.4042 18.9773 16.5204 18.9287C16.6365 18.8802 16.7418 18.809 16.8302 18.7193C16.9186 18.6297 16.9883 18.5233 17.0353 18.4065C17.0822 18.2897 17.1055 18.1647 17.1037 18.0388C17.1037 14.5531 18.1165 11.4139 19.6976 9.19569C21.2787 6.97744 23.3655 5.7037 25.6203 5.7037H25.6388C25.7647 5.70548 25.8897 5.68222 26.0065 5.63528C26.1233 5.58834 26.2297 5.51864 26.3193 5.43025C26.409 5.34186 26.4801 5.23653 26.5287 5.12039C26.5773 5.00424 26.6023 4.8796 26.6023 4.7537C26.6023 4.6278 26.5773 4.50316 26.5287 4.38702C26.4801 4.27087 26.409 4.16555 26.3193 4.07715C26.2297 3.98876 26.1233 3.91907 26.0065 3.87212C25.8897 3.82518 25.7647 3.80192 25.6388 3.8037H25.6203ZM25.6462 9.49998C23.6883 9.49998 21.9836 10.6951 20.8295 12.4279C19.6753 14.1607 19 16.468 19 19C19 21.5321 19.6753 23.8429 20.8295 25.5757C21.9836 27.3085 23.6883 28.5 25.6462 28.5H25.6537C27.6116 28.5 29.32 27.3085 30.4742 25.5757C31.6283 23.8429 32.2999 21.5321 32.2999 19C32.2999 16.468 31.6283 14.1609 30.4742 12.4279C29.32 10.6951 27.6117 9.49998 25.6537 9.49998H25.6462ZM25.6462 11.4H25.6537C26.8408 11.4 27.9826 12.1201 28.8896 13.4818C29.7966 14.8435 30.3999 16.81 30.3999 19C30.3999 21.1901 29.7966 23.1601 28.8896 24.5218C27.9826 25.8836 26.8408 26.6 25.6537 26.6H25.6462C24.4591 26.6 23.3173 25.8836 22.4103 24.5218C21.5033 23.1601 20.9 21.1901 20.9 19C20.9 16.81 21.5033 14.8435 22.4103 13.4818C23.3173 12.1203 24.4591 11.4 25.6462 11.4Z" fill="#fff"/>
</svg>
