<svg width="42" height="42" viewBox="0 0 42 42" fill="none" xmlns="http://www.w3.org/2000/svg">
    <g clip-path="url(#clip0_118_1210)">
    <path d="M34.125 21C30.6469 21 30.3844 19.6875 27.5625 19.6875C24.7406 19.6875 24.4781 21 21 21C17.5219 21 17.2856 19.6875 14.4375 19.6875C11.5894 19.6875 11.445 21 7.875 21C4.305 21 4.1475 19.6875 1.3125 19.6875C0.964403 19.6875 0.630564 19.5492 0.384422 19.3031C0.138281 19.0569 0 18.7231 0 18.375C0 18.0269 0.138281 17.6931 0.384422 17.4469C0.630564 17.2008 0.964403 17.0625 1.3125 17.0625C4.76438 17.0625 5.06625 18.375 7.875 18.375C10.6838 18.375 10.9594 17.0625 14.4375 17.0625C17.9156 17.0625 18.1519 18.375 21 18.375C23.8481 18.375 24.0975 17.0625 27.5625 17.0625C31.0275 17.0625 31.3031 18.375 34.125 18.375C36.9469 18.375 37.2094 17.0625 40.6875 17.0625C41.0356 17.0625 41.3694 17.2008 41.6156 17.4469C41.8617 17.6931 42 18.0269 42 18.375C42 18.7231 41.8617 19.0569 41.6156 19.3031C41.3694 19.5492 41.0356 19.6875 40.6875 19.6875C37.8919 19.6875 37.6031 21 34.125 21Z" fill="#fff"/>
    <path d="M40.6875 17.0625C40.3394 17.0625 40.0056 17.2008 39.7594 17.4469C39.5133 17.6931 39.375 18.0269 39.375 18.375V36.75C39.375 37.0981 39.2367 37.4319 38.9906 37.6781C38.7444 37.9242 38.4106 38.0625 38.0625 38.0625H3.9375C3.5894 38.0625 3.25556 37.9242 3.00942 37.6781C2.76328 37.4319 2.625 37.0981 2.625 36.75V13.125C2.625 12.7769 2.76328 12.4431 3.00942 12.1969C3.25556 11.9508 3.5894 11.8125 3.9375 11.8125H38.0625C38.4106 11.8125 38.7444 11.9508 38.9906 12.1969C39.2367 12.4431 39.375 12.7769 39.375 13.125C39.375 13.4731 39.5133 13.8069 39.7594 14.0531C40.0056 14.2992 40.3394 14.4375 40.6875 14.4375C43.1944 14.4375 42 9.1875 38.0625 9.1875H31.5V7.875C31.5 7.5269 31.6383 7.19306 31.8844 6.94692C32.1306 6.70078 32.4644 6.5625 32.8125 6.5625H35.4375C39.375 6.5625 40.5825 1.3125 38.0625 1.3125C37.7144 1.3125 37.3806 1.45078 37.1344 1.69692C36.8883 1.94306 36.75 2.2769 36.75 2.625C36.75 2.9731 36.6117 3.30694 36.3656 3.55308C36.1194 3.79922 35.7856 3.9375 35.4375 3.9375H32.8125C31.7682 3.9375 30.7667 4.35234 30.0283 5.09077C29.2898 5.82919 28.875 6.83071 28.875 7.875V9.1875H17.0625V6.5625C17.4106 6.5625 17.7444 6.42422 17.9906 6.17808C18.2367 5.93194 18.375 5.5981 18.375 5.25C18.375 4.9019 18.2367 4.56806 17.9906 4.32192C17.7444 4.07578 17.4106 3.9375 17.0625 3.9375H6.5625C6.2144 3.9375 5.88056 4.07578 5.63442 4.32192C5.38828 4.56806 5.25 4.9019 5.25 5.25C5.25 5.5981 5.38828 5.93194 5.63442 6.17808C5.88056 6.42422 6.2144 6.5625 6.5625 6.5625V9.1875H3.9375C2.89321 9.1875 1.89169 9.60234 1.15327 10.3408C0.414843 11.0792 0 12.0807 0 13.125L0 36.75C0 37.7943 0.414843 38.7958 1.15327 39.5342C1.89169 40.2727 2.89321 40.6875 3.9375 40.6875H38.0625C39.1068 40.6875 40.1083 40.2727 40.8467 39.5342C41.5852 38.7958 42 37.7943 42 36.75V18.375C42 18.0269 41.8617 17.6931 41.6156 17.4469C41.3694 17.2008 41.0356 17.0625 40.6875 17.0625ZM9.1875 6.5625H14.4375V9.1875H9.1875V6.5625Z" fill="#fff"/>
    </g>
    <defs>
    <clipPath id="clip0_118_1210">
    <rect width="42" height="42" fill="white"/>
    </clipPath>
    </defs>
</svg>
