<svg width="41" height="34" viewBox="0 0 41 34" fill="none" xmlns="http://www.w3.org/2000/svg">
    <path d="M3.12612 0.285645C2.92553 0.285665 2.73316 0.365391 2.59133 0.507226C2.44949 0.649062 2.3698 0.841392 2.36978 1.04198V4.06731C2.3698 4.2679 2.44949 4.46023 2.59133 4.60206C2.73316 4.7439 2.92553 4.82362 3.12612 4.82364H6.71574L13.5759 8.36009L6.56802 11.9704C6.44466 12.0341 6.3412 12.1305 6.26898 12.249C6.19675 12.3676 6.15855 12.5037 6.15855 12.6425C6.15855 12.7814 6.19675 12.9175 6.26898 13.036C6.3412 13.1546 6.44466 13.251 6.56802 13.3147L13.5789 16.925L6.55916 20.5382C6.43584 20.6019 6.33241 20.6983 6.26022 20.8169C6.18802 20.9354 6.14983 21.0716 6.14983 21.2104C6.14983 21.3492 6.18802 21.4853 6.26022 21.6039C6.33241 21.7224 6.43584 21.8188 6.55916 21.8825L13.5789 25.4987L6.72756 29.0263H3.12612C2.92553 29.0263 2.73316 29.106 2.59133 29.2479C2.44949 29.3897 2.3698 29.582 2.36978 29.7826V32.808C2.3698 33.0085 2.44949 33.2009 2.59133 33.3427C2.73316 33.4846 2.92553 33.5643 3.12612 33.5643H27.3288C27.5294 33.5643 27.7217 33.4846 27.8636 33.3427C28.0054 33.2009 28.0851 33.0085 28.0851 32.808V29.7826C28.0851 29.582 28.0054 29.3897 27.8636 29.2479C27.7217 29.106 27.5294 29.0263 27.3288 29.0263H26.5724C26.5724 28.928 26.5436 28.8342 26.534 28.7368L34.2214 26.6775L34.4164 27.4073C34.4684 27.6007 34.5949 27.7655 34.7683 27.8658C34.9416 27.966 35.1476 27.9934 35.3412 27.942L39.7255 26.7662C39.9189 26.7142 40.0839 26.5878 40.1841 26.4144C40.2843 26.241 40.3117 26.035 40.2603 25.8414L39.4774 22.9195C39.4254 22.7261 39.2989 22.5612 39.1255 22.461C38.9522 22.3608 38.7462 22.3333 38.5526 22.3847L34.1683 23.5577C34.0722 23.5834 33.9822 23.6278 33.9033 23.6884C33.8244 23.7489 33.7582 23.8246 33.7085 23.9107C33.6589 23.9969 33.6267 24.0918 33.6138 24.1905C33.6009 24.2891 33.6076 24.3893 33.6335 24.4853L33.8285 25.2151L26.014 27.3127C25.7639 26.9532 25.4516 26.635 25.0598 26.4087C24.1248 25.8688 22.9694 25.8688 22.0344 26.4087C21.5488 26.6891 21.1649 27.0948 20.9029 27.5698L16.879 25.4987L23.8987 21.8825C24.022 21.8188 24.1254 21.7224 24.1976 21.6039C24.2698 21.4853 24.308 21.3492 24.308 21.2104C24.308 21.0716 24.2698 20.9354 24.1976 20.8169C24.1254 20.6983 24.022 20.6019 23.8987 20.5382L16.8819 16.925L23.8898 13.3147C24.0132 13.251 24.1166 13.1546 24.1889 13.036C24.2611 12.9175 24.2993 12.7814 24.2993 12.6425C24.2993 12.5037 24.2611 12.3676 24.1889 12.249C24.1166 12.1305 24.0132 12.0341 23.8898 11.9704L16.879 8.35714L23.7421 4.82364H27.3288C27.5294 4.82362 27.7217 4.7439 27.8636 4.60206C28.0054 4.46023 28.0851 4.2679 28.0851 4.06731V1.04198C28.0851 0.841392 28.0054 0.649062 27.8636 0.507226C27.7217 0.365391 27.5294 0.285665 27.3288 0.285645H3.12612H3.12612ZM3.88245 1.79831H26.5724V3.31098H6.96982C6.94423 3.30968 6.9186 3.30968 6.89301 3.31098H3.88245V1.79831ZM10.0188 4.82364H20.439L15.2304 7.50922L10.0188 4.82364ZM0.857117 7.84897V10.8743H2.36978V7.84897H0.857117ZM3.88245 7.84897V13.8996H5.39511V7.84897H3.88245ZM25.0598 7.84897V13.8996H26.5724V7.84897H25.0598ZM28.0851 7.84897V12.387H29.5978V7.84897H28.0851ZM15.2274 9.20801L21.8926 12.644L15.2304 16.0741L8.56521 12.6411L15.2274 9.20801ZM3.88245 15.4123V16.925H5.39511V15.4123H3.88245ZM25.0598 15.4123V16.925H26.5724V15.4123H25.0598ZM15.2304 17.7758L21.9015 21.2118L15.2304 24.6478L8.55635 21.2118L15.2304 17.7758ZM38.2129 24.0392L38.6029 25.5017L35.6809 26.2846L35.2909 24.8222L38.2129 24.0392ZM15.2304 26.3466L20.4302 29.0263H10.0306L15.2304 26.3466ZM23.5471 27.5136C23.808 27.5136 24.0689 27.5816 24.3034 27.7175C24.7725 27.9883 25.0598 28.4848 25.0598 29.0263H22.0344C22.0345 28.4848 22.3217 27.9883 22.7908 27.7175C23.0253 27.5813 23.2862 27.5136 23.5471 27.5136ZM3.88245 30.539H6.76892C6.85012 30.5523 6.93294 30.5523 7.01414 30.539H26.5724V32.0516H3.88245V30.539Z" fill="#fff"/>
</svg>
