<svg width="42" height="42" viewBox="0 0 42 42" fill="none" xmlns="http://www.w3.org/2000/svg">
    <path d="M41.3438 23.625C41.3438 20.8402 40.2375 18.1695 38.2684 16.2004C36.2992 14.2312 33.6285 13.125 30.8438 13.125H26.9062V7.875H31.5C31.674 7.875 31.841 7.80586 31.964 7.68279C32.0871 7.55972 32.1562 7.3928 32.1562 7.21875V4.59375C32.1562 4.4197 32.0871 4.25278 31.964 4.12971C31.841 4.00664 31.674 3.9375 31.5 3.9375H18.375C18.201 3.9375 18.034 4.00664 17.911 4.12971C17.7879 4.25278 17.7188 4.4197 17.7188 4.59375V7.21875C17.7188 7.3928 17.7879 7.55972 17.911 7.68279C18.034 7.80586 18.201 7.875 18.375 7.875H22.9688V13.125H17.7188V12.4688C17.7188 12.2947 17.6496 12.1278 17.5265 12.0047C17.4035 11.8816 17.2365 11.8125 17.0625 11.8125H13.125C12.951 11.8125 12.784 11.8816 12.661 12.0047C12.5379 12.1278 12.4688 12.2947 12.4688 12.4688V17.0625H9.1875C9.01345 17.0625 8.84653 17.1316 8.72346 17.2547C8.60039 17.3778 8.53125 17.5447 8.53125 17.7188V21H1.3125C1.13845 21 0.971532 21.0691 0.848461 21.1922C0.72539 21.3153 0.65625 21.4822 0.65625 21.6562V25.5938C0.65625 25.7678 0.72539 25.9347 0.848461 26.0578C0.971532 26.1809 1.13845 26.25 1.3125 26.25H8.53125V29.5312C8.53125 29.7053 8.60039 29.8722 8.72346 29.9953C8.84653 30.1184 9.01345 30.1875 9.1875 30.1875H12.4688V34.7812C12.4688 34.9553 12.5379 35.1222 12.661 35.2453C12.784 35.3684 12.951 35.4375 13.125 35.4375H17.0625C17.2365 35.4375 17.4035 35.3684 17.5265 35.2453C17.6496 35.1222 17.7188 34.9553 17.7188 34.7812V34.125H19.0312V37.4062C19.0312 37.5803 19.1004 37.7472 19.2235 37.8703C19.3465 37.9934 19.5135 38.0625 19.6875 38.0625H24.9375C25.1115 38.0625 25.2785 37.9934 25.4015 37.8703C25.5246 37.7472 25.5938 37.5803 25.5938 37.4062V34.125H26.9062V37.4062C26.9062 37.5803 26.9754 37.7472 27.0985 37.8703C27.2215 37.9934 27.3885 38.0625 27.5625 38.0625H32.8125C32.9865 38.0625 33.1535 37.9934 33.2765 37.8703C33.3996 37.7472 33.4688 37.5803 33.4688 37.4062V33.7772C35.7203 33.1959 37.7151 31.8836 39.1403 30.0462C40.5656 28.2088 41.3406 25.9503 41.3438 23.625ZM7.60594 22.3125L4.98094 24.9375H2.89406L5.51906 22.3125H7.60594ZM3.66844 22.3125L1.96875 24.0122V22.3125H3.66844ZM6.83156 24.9375L8.53125 23.2378V24.9375H6.83156ZM9.84375 28.875V18.375H12.4688V28.875H9.84375ZM16.4062 34.125H13.7812V13.125H16.4062V34.125ZM39.1322 27.5625H38.7188V19.6875H39.1322C39.7241 20.9157 40.0315 22.2616 40.0315 23.625C40.0315 24.9884 39.7241 26.3343 39.1322 27.5625ZM17.7188 27.5625V19.6875H19.0312V27.5625H17.7188ZM20.3438 19.6875H21.6562V27.5625H20.3438V19.6875ZM22.9688 19.6875H24.2812V27.5625H22.9688V19.6875ZM25.5938 19.6875H26.9062V27.5625H25.5938V19.6875ZM28.2188 19.6875H29.5312V27.5625H28.2188V19.6875ZM30.8438 19.6875H32.1562V27.5625H30.8438V19.6875ZM33.4688 19.6875H34.7812V27.5625H33.4688V19.6875ZM36.0938 19.6875H37.4062V27.5625H36.0938V19.6875ZM23.625 6.5625H19.0312V5.25H30.8438V6.5625H26.25C26.076 6.5625 25.909 6.63164 25.786 6.75471C25.6629 6.87778 25.5938 7.0447 25.5938 7.21875V13.125H24.2812V7.21875C24.2812 7.0447 24.2121 6.87778 24.089 6.75471C23.966 6.63164 23.799 6.5625 23.625 6.5625ZM30.8438 14.4375C32.3227 14.4395 33.7793 14.7985 35.0897 15.4841C36.4002 16.1696 37.5258 17.1613 38.3709 18.375H17.7188V14.4375H30.8438ZM24.2812 36.75H20.3438V34.125H24.2812V36.75ZM32.1562 36.75H28.2188V34.125H30.8438C31.2827 34.121 31.721 34.0903 32.1562 34.0331V36.75ZM30.8438 32.8125H17.7188V28.875H38.3709C37.5258 30.0887 36.4002 31.0804 35.0897 31.7659C33.7793 32.4515 32.3227 32.8105 30.8438 32.8125Z" fill="#fff" stroke="#fff" stroke-width="0.4"/>
</svg>
