<svg width="42" height="42" viewBox="0 0 42 42" fill="none" xmlns="http://www.w3.org/2000/svg">
    <path d="M21 1.3125C10.1347 1.3125 1.31249 10.1347 1.3125 21C1.31249 31.8654 10.1347 40.6875 21 40.6875C31.8653 40.6875 40.6875 31.8654 40.6875 21C40.6875 10.1347 31.8653 1.3125 21 1.3125ZM21 2.625C31.156 2.625 39.375 10.844 39.375 21C39.375 31.156 31.156 39.375 21 39.375C10.844 39.375 2.62499 31.156 2.625 21C2.62499 10.844 10.844 2.625 21 2.625ZM21 5.25C12.3093 5.25 5.25 12.3093 5.25 21C5.25 29.6907 12.3093 36.75 21 36.75C29.6907 36.75 36.75 29.6907 36.75 21C36.75 12.3093 29.6907 5.25 21 5.25ZM21 6.5625C28.0837 6.5625 33.9552 11.6513 35.1888 18.375H31.1898C29.5042 15.8619 25.4777 14.4375 20.9846 14.4375C20.9838 14.4375 20.9829 14.4375 20.9821 14.4375C16.5038 14.4375 12.5026 15.8713 10.8256 18.375H6.81116C8.04478 11.6513 13.9163 6.5625 21 6.5625ZM20.9846 15.75C25.281 15.75 28.9975 17.3296 30.1824 19.2338L30.1798 23.7609C26.755 24.0877 24.0853 26.755 23.7583 30.1798H18.2417C17.915 26.755 15.2474 24.0879 11.8228 23.7609L11.8176 19.2568C12.9837 17.351 16.6873 15.7551 20.9846 15.75ZM6.62915 19.6875H10.5051L10.5077 22.3125H6.62915C6.59014 21.8793 6.5625 21.4434 6.5625 21C6.5625 20.5574 6.59028 20.1199 6.62915 19.6875ZM21 19.6875C19.558 19.6875 18.375 20.8706 18.375 22.3125C18.375 23.7545 19.558 24.9375 21 24.9375C22.442 24.9375 23.625 23.7545 23.625 22.3125C23.625 20.8706 22.442 19.6875 21 19.6875ZM31.4949 19.6875H35.3708C35.4097 20.1199 35.4375 20.5574 35.4375 21C35.4375 21.4434 35.4099 21.8793 35.3708 22.3125H31.4923L31.4949 19.6875ZM21 21C21.7326 21 22.3125 21.5799 22.3125 22.3125C22.3125 23.0451 21.7326 23.625 21 23.625C20.2674 23.625 19.6875 23.0451 19.6875 22.3125C19.6875 21.5799 20.2674 21 21 21ZM6.81116 23.625H10.5103V24.2838C10.5103 24.4579 10.5794 24.6248 10.7025 24.7478C10.8256 24.8709 10.9925 24.94 11.1665 24.9401C14.431 24.9401 17.0625 27.5715 17.0625 30.8361C17.0625 31.0101 17.1317 31.177 17.2547 31.3001C17.3778 31.4231 17.5447 31.4923 17.7188 31.4923H18.375V35.1863C12.5044 34.109 7.88925 29.4953 6.81116 23.625ZM31.4923 23.625H35.1888C34.1107 29.4953 29.4956 34.109 23.625 35.1863V31.4923H24.2812C24.4553 31.4923 24.6222 31.4231 24.7453 31.3001C24.8683 31.177 24.9375 31.0101 24.9375 30.8361C24.9375 27.5715 27.5716 24.9401 30.8361 24.9401C31.0101 24.94 31.177 24.8709 31.3001 24.7478C31.4231 24.6248 31.4923 24.4579 31.4923 24.2838V23.625ZM19.6875 31.4923H22.3125V35.3683C21.8793 35.4073 21.4434 35.4375 21 35.4375C20.5566 35.4375 20.1207 35.4073 19.6875 35.3683V31.4923Z" fill="#fff" stroke="#fff" stroke-width="0.6"/>
</svg>
