<svg width="33" height="42" viewBox="0 0 33 42" fill="none" xmlns="http://www.w3.org/2000/svg">
    <path d="M6.43134 0.582631C6.33287 0.524577 6.22095 0.493252 6.10665 0.491755C5.99235 0.490259 5.87964 0.518644 5.77969 0.574099C4.27855 1.40317 3.02855 2.62141 2.16114 4.10072C1.29372 5.58003 0.840937 7.26573 0.850405 8.98057C0.859874 10.6954 1.33124 12.376 2.21494 13.8457C3.09864 15.3153 4.36202 16.5197 5.87222 17.3321V32.7349C5.86901 32.7606 5.86748 32.7865 5.86762 32.8124V37.1548C5.86689 38.1942 6.2238 39.2023 6.87843 40.0097C7.53306 40.8171 8.44554 41.3747 9.46269 41.5889C10.4798 41.8031 11.5397 41.6608 12.4643 41.186C13.389 40.7111 14.1221 39.9326 14.5406 38.9811C15.9659 40.348 17.7576 41.2713 19.6978 41.6388C21.6381 42.0063 23.6433 41.8021 25.4697 41.0512C27.2961 40.3002 28.865 39.0348 29.9856 37.4088C31.1062 35.7827 31.7302 33.8662 31.7818 31.8921C31.8334 29.918 31.3103 27.9715 30.2761 26.2891C29.242 24.6068 27.7414 23.2612 25.9567 22.4159C24.172 21.5705 22.1802 21.262 20.2234 21.5276C18.2666 21.7933 16.4291 22.6218 14.9344 23.9123V17.3321C16.4445 16.5196 17.7079 15.3152 18.5915 13.8455C19.4752 12.3758 19.9465 10.6952 19.9559 8.98038C19.9653 7.26554 19.5124 5.57985 18.6449 4.10058C17.7775 2.62131 16.5274 1.40311 15.0262 0.574099C14.9263 0.518681 14.8137 0.490314 14.6994 0.491805C14.5852 0.493296 14.4733 0.524593 14.3748 0.5826C14.2764 0.640606 14.1948 0.723312 14.1381 0.822534C14.0814 0.921755 14.0517 1.03405 14.0517 1.14832V8.53966L10.4062 10.4999L6.75816 8.53901V1.14832C6.75783 1.0337 6.72748 0.921164 6.67015 0.821916C6.61281 0.722669 6.53048 0.640169 6.43134 0.582631ZM10.3977 40.3724C9.54531 40.371 8.72821 40.0318 8.12546 39.429C7.52272 38.8263 7.18348 38.0092 7.18209 37.1568V32.8911C7.18472 32.865 7.1856 32.8387 7.18472 32.8124V21.7447H13.6219V25.2734C12.1908 27.0529 11.4028 29.2636 11.3857 31.5471C11.3685 33.8306 12.1232 36.0529 13.5274 37.8537C13.3678 38.5658 12.9714 39.2027 12.4029 39.6602C11.8344 40.1177 11.1275 40.3688 10.3977 40.3724ZM13.6219 20.4322H7.18537V17.5874H13.6219V20.4322ZM22.73 30.6041C22.7912 30.671 22.8656 30.7245 22.9485 30.7612C23.0314 30.7979 23.121 30.817 23.2117 30.8174L26.1129 30.8259L19.9567 38.4561L20.4889 32.859C20.498 32.7677 20.488 32.6756 20.4593 32.5884C20.4307 32.5013 20.3841 32.4211 20.3226 32.3531C20.2611 32.2851 20.186 32.2307 20.1021 32.1935C20.0183 32.1563 19.9276 32.1371 19.8359 32.1371L17.0468 32.1443L22.9997 24.7635L22.558 30.106C22.5507 30.1961 22.5621 30.2867 22.5915 30.3722C22.6208 30.4577 22.6675 30.5362 22.7287 30.6028L22.73 30.6041ZM30.4547 31.6285C30.4616 32.9215 30.1844 34.2003 29.6427 35.3744C29.101 36.5485 28.3081 37.5893 27.32 38.4232C26.3318 39.2572 25.1726 39.864 23.9242 40.2007C22.6757 40.5374 21.3686 40.5958 20.0951 40.3717L27.9937 30.5851C28.0715 30.4888 28.1203 30.3725 28.1348 30.2496C28.1493 30.1267 28.1287 30.0023 28.0754 29.8906C28.0222 29.7789 27.9385 29.6845 27.8339 29.6184C27.7294 29.5522 27.6082 29.517 27.4845 29.5167L23.925 29.5055L24.4434 23.2331C26.1945 23.8322 27.7149 24.9632 28.7923 26.468C29.8697 27.9728 30.4504 29.7764 30.4534 31.6272L30.4547 31.6285ZM21.5756 22.7488C22.0043 22.7521 22.4322 22.7865 22.856 22.8518L15.1588 32.3924C15.081 32.4888 15.0321 32.6053 15.0177 32.7283C15.0033 32.8514 15.0241 32.976 15.0775 33.0878C15.131 33.1995 15.215 33.2939 15.3199 33.3599C15.4247 33.4259 15.5461 33.4608 15.67 33.4608L19.1134 33.4516L18.4952 39.9432C16.5418 39.2214 14.9046 37.8355 13.8702 36.0282C12.8358 34.2208 12.4702 32.1072 12.8372 30.0574C13.2043 28.0075 14.2808 26.1522 15.8781 24.8161C17.4755 23.4801 19.4919 22.7485 21.5743 22.7494L21.5756 22.7488ZM10.0912 11.8235C10.187 11.8746 10.2938 11.9013 10.4023 11.9013C10.5108 11.9013 10.6176 11.8746 10.7134 11.8235L15.0177 9.51025C15.1222 9.45414 15.2096 9.37075 15.2705 9.26894C15.3314 9.16714 15.3636 9.05073 15.3636 8.9321V2.35516C16.4814 3.19638 17.3662 4.30881 17.9343 5.58727C18.5024 6.86573 18.7351 8.26796 18.6102 9.66138C18.4854 11.0548 18.0073 12.3934 17.221 13.5505C16.4347 14.7076 15.3662 15.6451 14.1167 16.2742H6.68991C5.44021 15.6452 4.37163 14.7078 3.58523 13.5507C2.79883 12.3935 2.3206 11.0549 2.19577 9.66143C2.07094 8.26794 2.30364 6.86565 2.87186 5.58716C3.44008 4.30868 4.32503 3.19628 5.44303 2.35516V8.9321C5.44297 9.05066 5.47504 9.16703 5.53582 9.26883C5.5966 9.37062 5.68382 9.45406 5.78822 9.51025L10.0912 11.8235Z" fill="#fff" stroke="#fff"/>
    <path d="M10.2921 37.4606C10.9608 37.4606 11.5028 36.9185 11.5028 36.2498C11.5028 35.5811 10.9608 35.0391 10.2921 35.0391C9.62337 35.0391 9.08128 35.5811 9.08128 36.2498C9.08128 36.9185 9.62337 37.4606 10.2921 37.4606Z" fill="#fff" stroke="#fff"/>
</svg>
