<svg width="24" height="24" viewBox="0 0 24 24" fill="none" xmlns="http://www.w3.org/2000/svg">
    <path d="M18.0001 6.00006C17.8125 5.81259 17.5582 5.70728 17.2931 5.70728C17.0279 5.70728 16.7736 5.81259 16.5861 6.00006L12.0001 10.5861L7.41406 6.00006C7.22653 5.81259 6.97223 5.70728 6.70706 5.70728C6.4419 5.70728 6.18759 5.81259 6.00006 6.00006C5.81259 6.18759 5.70728 6.4419 5.70728 6.70706C5.70728 6.97223 5.81259 7.22653 6.00006 7.41406L10.5861 12.0001L6.00006 16.5861C5.81259 16.7736 5.70728 17.0279 5.70728 17.2931C5.70728 17.5582 5.81259 17.8125 6.00006 18.0001C6.18759 18.1875 6.4419 18.2928 6.70706 18.2928C6.97223 18.2928 7.22653 18.1875 7.41406 18.0001L12.0001 13.4141L16.5861 18.0001C16.7736 18.1875 17.0279 18.2928 17.2931 18.2928C17.5582 18.2928 17.8125 18.1875 18.0001 18.0001C18.1875 17.8125 18.2928 17.5582 18.2928 17.2931C18.2928 17.0279 18.1875 16.7736 18.0001 16.5861L13.4141 12.0001L18.0001 7.41406C18.1875 7.22653 18.2928 6.97223 18.2928 6.70706C18.2928 6.4419 18.1875 6.18759 18.0001 6.00006Z" fill="white"/>
</svg>
