<svg width="44" height="44" viewBox="0 0 44 44" fill="none" xmlns="http://www.w3.org/2000/svg">
<path d="M17.1875 35.0625C15.5558 35.0625 13.9608 34.5786 12.604 33.6721C11.2473 32.7656 10.1899 31.4771 9.5655 29.9696C8.94107 28.4622 8.7777 26.8034 9.09603 25.203C9.41435 23.6027 10.2001 22.1327 11.3539 20.9789C12.5077 19.8251 13.9777 19.0394 15.578 18.721C17.1784 18.4027 18.8372 18.5661 20.3446 19.1905C21.8521 19.8149 23.1406 20.8723 24.0471 22.229C24.9536 23.5858 25.4375 25.1808 25.4375 26.8125C25.435 28.9998 24.565 31.0967 23.0184 32.6434C21.4717 34.19 19.3748 35.06 17.1875 35.0625ZM17.1875 19.9375C15.8278 19.9375 14.4985 20.3407 13.368 21.0962C12.2374 21.8516 11.3562 22.9253 10.8358 24.1816C10.3155 25.4378 10.1793 26.8201 10.4446 28.1538C10.7099 29.4874 11.3647 30.7124 12.3261 31.6739C13.2876 32.6353 14.5126 33.2901 15.8463 33.5554C17.1799 33.8207 18.5622 33.6845 19.8185 33.1642C21.0747 32.6438 22.1484 31.7626 22.9039 30.632C23.6593 29.5015 24.0625 28.1722 24.0625 26.8125C24.0605 24.9898 23.3355 23.2422 22.0466 21.9534C20.7578 20.6645 19.0102 19.9395 17.1875 19.9375Z" fill="#262729"/>
<path d="M17.1875 37.8125C15.0119 37.8125 12.8852 37.1674 11.0762 35.9587C9.26729 34.75 7.85739 33.032 7.02483 31.022C6.19227 29.012 5.97443 26.8003 6.39887 24.6665C6.8233 22.5327 7.87095 20.5727 9.40933 19.0343C10.9477 17.496 12.9077 16.4483 15.0415 16.0239C17.1753 15.5994 19.387 15.8173 21.397 16.6498C23.407 17.4824 25.125 18.8923 26.3337 20.7012C27.5424 22.5102 28.1875 24.6369 28.1875 26.8125C28.1842 29.7289 27.0242 32.5248 24.962 34.587C22.8998 36.6492 20.1039 37.8092 17.1875 37.8125ZM17.1875 17.1875C15.2839 17.1875 13.423 17.752 11.8401 18.8096C10.2573 19.8672 9.02366 21.3704 8.29516 23.1292C7.56667 24.8879 7.37606 26.8232 7.74745 28.6903C8.11883 30.5573 9.03552 32.2723 10.3816 33.6184C11.7277 34.9645 13.4427 35.8812 15.3098 36.2526C17.1768 36.6239 19.1121 36.4333 20.8708 35.7048C22.6296 34.9764 24.1328 33.7427 25.1904 32.1599C26.248 30.577 26.8125 28.7162 26.8125 26.8125C26.8096 24.2607 25.7946 21.8142 23.9902 20.0098C22.1858 18.2054 19.7393 17.1904 17.1875 17.1875Z" fill="#262729"/>
<path d="M17.1875 42.625C14.0601 42.625 11.0029 41.6976 8.40255 39.9601C5.8022 38.2226 3.77547 35.753 2.57866 32.8637C1.38185 29.9743 1.06871 26.795 1.67884 23.7276C2.28897 20.6603 3.79496 17.8428 6.00638 15.6314C8.2178 13.42 11.0353 11.914 14.1026 11.3038C17.17 10.6937 20.3493 11.0069 23.2387 12.2037C26.128 13.4005 28.5976 15.4272 30.3351 18.0276C32.0726 20.6279 33 23.6851 33 26.8125C32.9952 31.0048 31.3278 35.024 28.3634 37.9884C25.399 40.9528 21.3798 42.6202 17.1875 42.625ZM17.1875 12.375C14.332 12.375 11.5407 13.2218 9.16646 14.8082C6.79223 16.3946 4.94174 18.6494 3.849 21.2875C2.75626 23.9256 2.47035 26.8285 3.02742 29.6291C3.58449 32.4297 4.95953 35.0022 6.97865 37.0214C8.99777 39.0405 11.5703 40.4155 14.3709 40.9726C17.1715 41.5297 20.0744 41.2438 22.7125 40.151C25.3506 39.0583 27.6054 37.2078 29.1919 34.8336C30.7783 32.4593 31.625 29.668 31.625 26.8125C31.6207 22.9848 30.0982 19.315 27.3916 16.6084C24.685 13.9018 21.0153 12.3793 17.1875 12.375Z" fill="#262729"/>
<path d="M17.1875 35.0625C16.6845 35.063 16.1825 35.0177 15.6877 34.9272C15.5297 34.898 15.3869 34.8144 15.2841 34.6909C15.1813 34.5675 15.125 34.4119 15.125 34.2512V31.7928L13.3905 33.5274C13.2772 33.6409 13.1277 33.7112 12.968 33.726C12.8082 33.7408 12.6483 33.6993 12.516 33.6086C11.6823 33.0384 10.9619 32.318 10.3917 31.4843C10.3011 31.3519 10.2596 31.192 10.2744 31.0323C10.2893 30.8726 10.3595 30.7231 10.4729 30.6098L12.2072 28.875H9.74877C9.58809 28.875 9.43248 28.8187 9.30897 28.7159C9.18547 28.6131 9.10186 28.4703 9.07268 28.3123C8.89228 27.3206 8.89228 26.3044 9.07268 25.3126C9.10186 25.1546 9.18547 25.0118 9.30897 24.909C9.43248 24.8063 9.58809 24.75 9.74877 24.75H12.2071L10.4725 23.0155C10.3591 22.9021 10.2889 22.7526 10.274 22.5929C10.2592 22.4332 10.3006 22.2733 10.3912 22.141C10.9615 21.3073 11.6819 20.5869 12.5156 20.0166C12.648 19.9262 12.8079 19.8848 12.9675 19.8997C13.1272 19.9145 13.2766 19.9846 13.3901 20.0979L15.125 21.8322V19.3737C15.125 19.2131 15.1813 19.0574 15.2841 18.9339C15.3869 18.8104 15.5297 18.7268 15.6877 18.6976C16.6795 18.5183 17.6955 18.5183 18.6874 18.6976C18.8454 18.7268 18.9882 18.8104 19.091 18.9339C19.1937 19.0574 19.25 19.2131 19.25 19.3737V21.832L20.9845 20.0975C21.0981 19.9844 21.2476 19.9145 21.4072 19.8996C21.5667 19.8848 21.7265 19.926 21.859 20.0162C22.6929 20.5863 23.4133 21.3067 23.9834 22.1406C24.074 22.2729 24.1154 22.4328 24.1006 22.5925C24.0858 22.7522 24.0156 22.9017 23.9021 23.0151L22.1678 24.75H24.6263C24.787 24.75 24.9426 24.8063 25.0661 24.909C25.1896 25.0118 25.2732 25.1546 25.3024 25.3126C25.4823 26.3044 25.4823 27.3205 25.3024 28.3123C25.2732 28.4703 25.1896 28.6131 25.0661 28.7159C24.9426 28.8187 24.787 28.875 24.6263 28.875H22.1678L23.9021 30.6095C24.0155 30.7229 24.0857 30.8724 24.1005 31.0321C24.1154 31.1918 24.0739 31.3516 23.9833 31.484C23.4133 32.3179 22.6928 33.0383 21.8589 33.6084C21.7265 33.6988 21.5667 33.7401 21.4071 33.7253C21.2474 33.7105 21.0979 33.6404 20.9844 33.5271L19.25 31.7928V34.2512C19.25 34.4119 19.1937 34.5675 19.091 34.691C18.9882 34.8145 18.8454 34.8981 18.6874 34.9273C18.1926 35.0178 17.6905 35.0631 17.1875 35.0625ZM16.5 33.6543C16.9573 33.6986 17.4178 33.6986 17.875 33.6543V30.6969C17.875 30.549 17.9227 30.405 18.011 30.2864C18.0993 30.1677 18.2235 30.0807 18.3651 30.0382C18.461 30.009 18.5537 29.9704 18.6421 29.9231C18.7719 29.855 18.92 29.8303 19.0649 29.8524C19.2098 29.8745 19.3438 29.9423 19.4474 30.0459L21.5361 32.1346C21.8929 31.8442 22.2191 31.5182 22.5096 31.1615L20.4209 29.0724C20.3173 28.9688 20.2494 28.8348 20.2273 28.6899C20.2052 28.545 20.23 28.3969 20.298 28.2671C20.3454 28.1788 20.3839 28.086 20.4132 27.9902C20.4557 27.8485 20.5427 27.7243 20.6613 27.6359C20.78 27.5476 20.924 27.5 21.0719 27.5H24.0297C24.0512 27.2741 24.0626 27.0441 24.0626 26.8125C24.0626 26.5809 24.0512 26.3509 24.0297 26.125H21.0719C20.924 26.125 20.78 26.0773 20.6614 25.989C20.5427 25.9007 20.4557 25.7765 20.4133 25.6349C20.384 25.539 20.3454 25.4463 20.2981 25.3579C20.2301 25.2281 20.2053 25.08 20.2274 24.9351C20.2495 24.7902 20.3173 24.6562 20.421 24.5526L22.5097 22.4636C22.2192 22.1069 21.893 21.7808 21.5362 21.4904L19.4475 23.5791C19.3437 23.6826 19.2097 23.7502 19.0649 23.7723C18.9201 23.7944 18.772 23.7698 18.6421 23.702C18.5538 23.6547 18.461 23.6161 18.3652 23.5868C18.2235 23.5444 18.0993 23.4573 18.011 23.3387C17.9227 23.22 17.875 23.076 17.875 22.9281V19.9707C17.4178 19.9264 16.9573 19.9264 16.5 19.9707V22.9281C16.5 23.076 16.4524 23.22 16.3641 23.3386C16.2758 23.4573 16.1516 23.5443 16.0099 23.5867C15.9141 23.616 15.8213 23.6546 15.733 23.7019C15.6031 23.7697 15.455 23.7944 15.3102 23.7723C15.1654 23.7502 15.0314 23.6825 14.9276 23.579L12.8389 21.4903C12.4821 21.7807 12.1559 22.107 11.8654 22.4638L13.9541 24.5525C14.0578 24.6561 14.1256 24.7902 14.1477 24.935C14.1698 25.0799 14.145 25.2281 14.077 25.3579C14.0297 25.4462 13.9911 25.539 13.9618 25.6348C13.9194 25.7765 13.8324 25.9007 13.7137 25.989C13.595 26.0773 13.4511 26.125 13.3031 26.125H10.3457C10.3236 26.3512 10.3125 26.5812 10.3125 26.8125C10.3125 27.0438 10.3236 27.2737 10.3457 27.5H13.3031C13.451 27.5 13.595 27.5476 13.7136 27.6359C13.8323 27.7242 13.9193 27.8484 13.9618 27.9901C13.9911 28.0859 14.0296 28.1787 14.0769 28.267C14.145 28.3968 14.1697 28.545 14.1476 28.6899C14.1255 28.8347 14.0577 28.9688 13.9541 29.0724L11.8654 31.1611C12.1558 31.5179 12.482 31.8442 12.8389 32.1346L14.9276 30.0459C15.0312 29.9422 15.1652 29.8744 15.3101 29.8523C15.455 29.8302 15.6031 29.855 15.7329 29.923C15.8212 29.9703 15.914 30.0089 16.0098 30.0382C16.1515 30.0806 16.2757 30.1676 16.3641 30.2863C16.4524 30.405 16.5 30.5489 16.5 30.6969V33.6543Z" fill="#262729"/>
<path d="M17.1875 28.875C16.7796 28.875 16.3808 28.754 16.0416 28.5274C15.7025 28.3008 15.4381 27.9787 15.282 27.6018C15.1259 27.2249 15.085 26.8102 15.1646 26.4101C15.2442 26.01 15.4406 25.6425 15.7291 25.3541C16.0175 25.0657 16.385 24.8692 16.7851 24.7896C17.1852 24.7101 17.5999 24.7509 17.9768 24.907C18.3537 25.0631 18.6758 25.3275 18.9024 25.6666C19.129 26.0058 19.25 26.4046 19.25 26.8125C19.2494 27.3593 19.0319 27.8836 18.6452 28.2702C18.2586 28.6569 17.7343 28.8744 17.1875 28.875ZM17.1875 26.125C17.0515 26.125 16.9186 26.1653 16.8055 26.2409C16.6925 26.3164 16.6044 26.4238 16.5523 26.5494C16.5003 26.675 16.4867 26.8133 16.5132 26.9466C16.5397 27.08 16.6052 27.2025 16.7014 27.2986C16.7975 27.3948 16.92 27.4603 17.0534 27.4868C17.1867 27.5133 17.325 27.4997 17.4506 27.4477C17.5762 27.3956 17.6836 27.3075 17.7591 27.1945C17.8347 27.0814 17.875 26.9485 17.875 26.8125C17.8748 26.6302 17.8023 26.4555 17.6734 26.3266C17.5445 26.1977 17.3698 26.1252 17.1875 26.125ZM17.1875 13.75C17.0052 13.75 16.8303 13.6776 16.7014 13.5486C16.5724 13.4197 16.5 13.2448 16.5 13.0625V11.6875C16.5 11.5052 16.5724 11.3303 16.7014 11.2014C16.8303 11.0724 17.0052 11 17.1875 11C17.3698 11 17.5447 11.0724 17.6736 11.2014C17.8026 11.3303 17.875 11.5052 17.875 11.6875V13.0625C17.875 13.2448 17.8026 13.4197 17.6736 13.5486C17.5447 13.6776 17.3698 13.75 17.1875 13.75ZM7.46481 17.7773C7.37451 17.7774 7.28508 17.7597 7.20166 17.7251C7.11825 17.6905 7.04249 17.6398 6.97874 17.5759L6.00655 16.6037C5.94138 16.5402 5.88948 16.4644 5.85385 16.3806C5.81822 16.2969 5.79958 16.2069 5.799 16.1158C5.79842 16.0248 5.81592 15.9346 5.85049 15.8504C5.88505 15.7662 5.93599 15.6897 6.00035 15.6254C6.06471 15.561 6.14121 15.5101 6.22541 15.4755C6.3096 15.4409 6.39983 15.4234 6.49084 15.424C6.58186 15.4246 6.67185 15.4432 6.75561 15.4789C6.83936 15.5145 6.91521 15.5664 6.97874 15.6316L7.95087 16.6037C8.04699 16.6999 8.11244 16.8224 8.13896 16.9557C8.16547 17.0891 8.15186 17.2273 8.09983 17.3529C8.04781 17.4785 7.95972 17.5859 7.84668 17.6614C7.73365 17.7369 7.60076 17.7773 7.46481 17.7773ZM3.4375 27.5H2.0625C1.88016 27.5 1.7053 27.4276 1.57636 27.2986C1.44743 27.1697 1.375 26.9948 1.375 26.8125C1.375 26.6302 1.44743 26.4553 1.57636 26.3264C1.7053 26.1974 1.88016 26.125 2.0625 26.125H3.4375C3.61984 26.125 3.7947 26.1974 3.92364 26.3264C4.05257 26.4553 4.125 26.6302 4.125 26.8125C4.125 26.9948 4.05257 27.1697 3.92364 27.2986C3.7947 27.4276 3.61984 27.5 3.4375 27.5ZM6.49261 38.1949C6.35665 38.1949 6.22373 38.1545 6.11069 38.079C5.99764 38.0034 5.90954 37.8961 5.85751 37.7705C5.80548 37.6448 5.79187 37.5066 5.8184 37.3732C5.84493 37.2399 5.91041 37.1174 6.00655 37.0213L6.97874 36.0491C7.04216 35.9835 7.11803 35.9311 7.2019 35.8951C7.28578 35.859 7.37599 35.8401 7.46728 35.8393C7.55857 35.8385 7.6491 35.8559 7.73359 35.8904C7.81808 35.925 7.89484 35.9761 7.95939 36.0406C8.02394 36.1052 8.07499 36.1819 8.10956 36.2664C8.14413 36.3509 8.16152 36.4414 8.16073 36.5327C8.15994 36.624 8.14097 36.7142 8.10494 36.7981C8.06891 36.882 8.01653 36.9578 7.95087 37.0213L6.97874 37.9935C6.91498 38.0574 6.83921 38.1081 6.75578 38.1427C6.67235 38.1773 6.58292 38.195 6.49261 38.1949ZM17.1875 42.625C17.0052 42.625 16.8303 42.5526 16.7014 42.4236C16.5724 42.2947 16.5 42.1198 16.5 41.9375V40.5625C16.5 40.3802 16.5724 40.2053 16.7014 40.0764C16.8303 39.9474 17.0052 39.875 17.1875 39.875C17.3698 39.875 17.5447 39.9474 17.6736 40.0764C17.8026 40.2053 17.875 40.3802 17.875 40.5625V41.9375C17.875 42.1198 17.8026 42.2947 17.6736 42.4236C17.5447 42.5526 17.3698 42.625 17.1875 42.625ZM27.8827 38.1949C27.7924 38.195 27.7029 38.1772 27.6195 38.1427C27.5361 38.1081 27.4604 38.0574 27.3966 37.9935L26.4244 37.0213C26.359 36.9578 26.3068 36.8819 26.271 36.7981C26.2351 36.7143 26.2163 36.6242 26.2156 36.533C26.2149 36.4418 26.2324 36.3515 26.267 36.2671C26.3015 36.1827 26.3525 36.1061 26.417 36.0416C26.4815 35.9772 26.5581 35.9262 26.6425 35.8916C26.7268 35.8571 26.8172 35.8396 26.9084 35.8403C26.9995 35.841 27.0896 35.8598 27.1735 35.8957C27.2573 35.9315 27.3331 35.9837 27.3966 36.0491L28.3688 37.0213C28.4649 37.1174 28.5304 37.2399 28.5569 37.3733C28.5835 37.5066 28.5699 37.6449 28.5178 37.7705C28.4658 37.8961 28.3777 38.0035 28.2646 38.079C28.1516 38.1546 28.0186 38.1949 27.8827 38.1949ZM32.3125 27.5H30.9375C30.7552 27.5 30.5803 27.4276 30.4514 27.2986C30.3224 27.1697 30.25 26.9948 30.25 26.8125C30.25 26.6302 30.3224 26.4553 30.4514 26.3264C30.5803 26.1974 30.7552 26.125 30.9375 26.125H32.3125C32.4948 26.125 32.6697 26.1974 32.7986 26.3264C32.9276 26.4553 33 26.6302 33 26.8125C33 26.9948 32.9276 27.1697 32.7986 27.2986C32.6697 27.4276 32.4948 27.5 32.3125 27.5ZM26.9105 17.7773C26.7746 17.7773 26.6417 17.737 26.5286 17.6614C26.4156 17.5859 26.3275 17.4785 26.2755 17.3529C26.2234 17.2273 26.2098 17.0891 26.2363 16.9557C26.2628 16.8224 26.3283 16.6999 26.4244 16.6037L27.3969 15.6316C27.4604 15.5664 27.5363 15.5145 27.62 15.4789C27.7038 15.4432 27.7938 15.4246 27.8848 15.424C27.9758 15.4234 28.066 15.4409 28.1502 15.4755C28.2344 15.5101 28.3109 15.561 28.3753 15.6254C28.4396 15.6897 28.4906 15.7662 28.5251 15.8504C28.5597 15.9346 28.5772 16.0248 28.5766 16.1158C28.576 16.2069 28.5574 16.2969 28.5218 16.3806C28.4861 16.4644 28.4342 16.5402 28.3691 16.6037L27.3969 17.5759C27.3331 17.6399 27.2573 17.6906 27.1738 17.7252C27.0904 17.7597 27.0009 17.7775 26.9105 17.7773ZM37.125 12.375C36.0372 12.375 34.9738 12.0524 34.0694 11.4481C33.1649 10.8437 32.4599 9.98475 32.0437 8.97976C31.6274 7.97477 31.5185 6.8689 31.7307 5.80201C31.9429 4.73511 32.4667 3.7551 33.2359 2.98592C34.0051 2.21673 34.9851 1.6929 36.052 1.48068C37.1189 1.26846 38.2248 1.37738 39.2298 1.79367C40.2348 2.20995 41.0937 2.9149 41.6981 3.81937C42.3024 4.72384 42.625 5.78721 42.625 6.875C42.6233 8.33318 42.0433 9.73115 41.0122 10.7622C39.9812 11.7933 38.5832 12.3733 37.125 12.375ZM37.125 2.75C36.3092 2.75 35.5116 2.99193 34.8333 3.44519C34.1549 3.89845 33.6262 4.54269 33.314 5.29643C33.0018 6.05018 32.9201 6.87958 33.0793 7.67975C33.2384 8.47992 33.6313 9.21493 34.2082 9.79182C34.7851 10.3687 35.5201 10.7616 36.3203 10.9207C37.1204 11.0799 37.9498 10.9982 38.7036 10.686C39.4573 10.3738 40.1016 9.84508 40.5548 9.16673C41.0081 8.48838 41.25 7.69085 41.25 6.875C41.2488 5.78135 40.8138 4.73284 40.0405 3.95951C39.2672 3.18619 38.2187 2.7512 37.125 2.75Z" fill="#262729"/>
<path d="M37.8125 16.5H36.4375C36.073 16.4996 35.7235 16.3546 35.4657 16.0968C35.2079 15.839 35.0629 15.4895 35.0625 15.125V11.6875C35.0625 11.5052 35.1349 11.3303 35.2639 11.2014C35.3928 11.0724 35.5677 11 35.75 11H38.5C38.6823 11 38.8572 11.0724 38.9861 11.2014C39.1151 11.3303 39.1875 11.5052 39.1875 11.6875V15.125C39.1871 15.4895 39.0421 15.839 38.7843 16.0968C38.5265 16.3546 38.177 16.4996 37.8125 16.5ZM36.4375 12.375V15.125H37.8132L37.8125 12.375H36.4375Z" fill="#262729"/>
<path d="M41.25 15.1065H38.5C38.3177 15.1065 38.1428 15.0341 38.0139 14.9051C37.8849 14.7762 37.8125 14.6013 37.8125 14.419C37.8125 14.2367 37.8849 14.0618 38.0139 13.9329C38.1428 13.8039 38.3177 13.7315 38.5 13.7315H41.25C41.4323 13.7315 41.6072 13.8039 41.7361 13.9329C41.8651 14.0618 41.9375 14.2367 41.9375 14.419C41.9375 14.6013 41.8651 14.7762 41.7361 14.9051C41.6072 15.0341 41.4323 15.1065 41.25 15.1065Z" fill="#262729"/>
<path d="M41.25 16.5C41.0677 16.5 40.8928 16.4276 40.7639 16.2987C40.6349 16.1697 40.5625 15.9949 40.5625 15.8125V13.0625C40.5625 12.8802 40.6349 12.7053 40.7639 12.5764C40.8928 12.4475 41.0677 12.375 41.25 12.375C41.4323 12.375 41.6072 12.4475 41.7361 12.5764C41.8651 12.7053 41.9375 12.8802 41.9375 13.0625V15.8125C41.9375 15.9949 41.8651 16.1697 41.7361 16.2987C41.6072 16.4276 41.4323 16.5 41.25 16.5ZM35.0625 42.625C34.3334 42.6243 33.6344 42.3343 33.1188 41.8187C32.6032 41.3032 32.3133 40.6041 32.3125 39.875V38.1975C32.3116 37.5487 32.0535 36.9267 31.5947 36.4678C31.1359 36.009 30.5138 35.7509 29.865 35.75C29.6827 35.75 29.5078 35.6776 29.3789 35.5487C29.2499 35.4197 29.1775 35.2449 29.1775 35.0625C29.1775 34.8802 29.2499 34.7053 29.3789 34.5764C29.5078 34.4475 29.6827 34.375 29.865 34.375C30.8784 34.3762 31.85 34.7794 32.5666 35.496C33.2832 36.2126 33.6863 37.1841 33.6875 38.1975V39.875C33.6875 40.2397 33.8324 40.5894 34.0902 40.8473C34.3481 41.1052 34.6978 41.25 35.0625 41.25C35.4272 41.25 35.7769 41.1052 36.0348 40.8473C36.2926 40.5894 36.4375 40.2397 36.4375 39.875V15.8125C36.4375 15.6302 36.5099 15.4553 36.6389 15.3264C36.7678 15.1975 36.9427 15.125 37.125 15.125C37.3073 15.125 37.4822 15.1975 37.6111 15.3264C37.7401 15.4553 37.8125 15.6302 37.8125 15.8125V39.875C37.8117 40.6041 37.5217 41.3032 37.0062 41.8187C36.4906 42.3343 35.7916 42.6243 35.0625 42.625ZM36.6389 6.3889L38.9176 4.77857C38.9596 4.74895 39.0107 4.73512 39.0619 4.73951C39.1131 4.7439 39.1611 4.76623 39.1975 4.80256C39.2338 4.83889 39.2561 4.88689 39.2605 4.93809C39.2649 4.98928 39.2511 5.04038 39.2215 5.08237L37.6111 7.36116C37.5031 7.50904 37.3413 7.60851 37.1606 7.63811C36.9798 7.66771 36.7947 7.62507 36.6452 7.51938C36.4956 7.41369 36.3936 7.25343 36.3612 7.0732C36.3288 6.89297 36.3685 6.70721 36.4719 6.55603C36.5178 6.49142 36.5743 6.43493 36.6389 6.3889Z" fill="#262729"/>
</svg>
