<svg width="40" height="40" viewBox="0 0 40 40" fill="none" xmlns="http://www.w3.org/2000/svg">
<rect width="40" height="40" rx="20" fill="#7C509A"/>
<path d="M26.2539 9.54591C22.4424 8.81803 18.4843 8.81803 14.6728 9.54591C12.9869 9.90986 10.8613 11.9479 10.4948 13.5493C9.83508 16.6792 9.83508 19.8819 10.4948 23.0118C10.9346 24.6131 13.0602 26.6512 14.6728 27.0152C14.7461 27.0152 14.8194 27.0879 14.8194 27.1607V31.7464C14.8194 31.9648 15.1126 32.1103 15.2592 31.892L17.4581 29.6355C17.4581 29.6355 19.2173 27.8158 19.5105 27.5247C19.5105 27.5247 19.5838 27.4519 19.6571 27.4519C21.856 27.5247 24.1283 27.3063 26.3272 26.9424C28.0131 26.5784 30.1387 24.5403 30.5052 22.939C31.1649 19.8091 31.1649 16.6064 30.5052 13.4765C30.0654 11.9479 27.9398 9.90986 26.2539 9.54591ZM26.3272 23.2302C25.9607 23.958 25.5209 24.5403 24.788 24.9043C24.5681 24.9771 24.3482 25.0499 24.1283 25.1227C23.8351 25.0499 23.6152 24.9771 23.3953 24.9043C21.0497 23.958 18.8508 22.6478 17.0916 20.7553C16.1387 19.6635 15.3325 18.4261 14.6728 17.1159C14.3796 16.4608 14.0864 15.8785 13.8665 15.2234C13.6466 14.6411 14.0131 14.0588 14.3796 13.6221C14.7461 13.1853 15.1859 12.8942 15.699 12.6758C16.0654 12.4575 16.4319 12.603 16.7251 12.8942C17.3115 13.6221 17.8979 14.35 18.3377 15.1506C18.6309 15.6601 18.5576 16.2425 18.0445 16.6064C17.8979 16.6792 17.8246 16.752 17.678 16.8976C17.6047 16.9703 17.4581 17.0431 17.3848 17.1887C17.2382 17.4071 17.2382 17.6254 17.3115 17.8438C17.8979 19.5179 18.9974 20.8281 20.6832 21.556C20.9764 21.7016 21.1963 21.7744 21.5628 21.7744C22.0759 21.7016 22.2958 21.1193 22.6623 20.8281C23.0288 20.537 23.4686 20.537 23.9084 20.7553C24.2749 20.9737 24.6414 21.2649 25.0811 21.556C25.4476 21.8472 25.8141 22.0655 26.1806 22.3567C26.4005 22.5023 26.4738 22.8662 26.3272 23.2302ZM23.2487 17.771C23.1021 17.771 23.1754 17.771 23.2487 17.771C22.9555 17.771 22.8822 17.6254 22.8089 17.4071C22.8089 17.2615 22.8089 17.0431 22.7356 16.8976C22.6623 16.6064 22.5157 16.3152 22.2225 16.0969C22.0759 16.0241 21.9293 15.9513 21.7827 15.8785C21.5628 15.8057 21.4162 15.8057 21.1963 15.8057C20.9764 15.7329 20.9031 15.5874 20.9031 15.369C20.9031 15.2234 21.123 15.0778 21.2696 15.0778C22.4424 15.1506 23.322 15.8057 23.4686 17.1887C23.4686 17.2615 23.4686 17.4071 23.4686 17.4799C23.4686 17.6254 23.3953 17.771 23.2487 17.771ZM22.5157 14.5683C22.1492 14.4227 21.7827 14.2772 21.3429 14.2044C21.1963 14.2044 20.9764 14.1316 20.8298 14.1316C20.6099 14.1316 20.4634 13.986 20.5366 13.7676C20.5366 13.5493 20.6832 13.4037 20.9031 13.4765C21.6361 13.5493 22.2958 13.6949 22.9555 13.986C24.2749 14.6411 25.0079 15.7329 25.2277 17.1887C25.2277 17.2615 25.2277 17.3343 25.2277 17.4071C25.2277 17.5526 25.2277 17.6982 25.2277 17.9166C25.2277 17.9894 25.2277 18.0622 25.2277 18.135C25.1545 18.4261 24.6414 18.4989 24.5681 18.135C24.5681 18.0622 24.4948 17.9166 24.4948 17.8438C24.4948 17.1887 24.3482 16.5336 24.055 15.9513C23.6152 15.2962 23.1021 14.8595 22.5157 14.5683ZM26.4738 18.9356C26.2539 18.9356 26.1073 18.7173 26.1073 18.4989C26.1073 18.0622 26.034 17.6254 25.9607 17.1887C25.6675 14.8595 23.7618 12.967 21.4895 12.603C21.123 12.5302 20.7565 12.5302 20.4634 12.4575C20.2435 12.4575 19.9503 12.4575 19.877 12.1663C19.8037 11.9479 20.0236 11.7296 20.2435 11.7296C20.3168 11.7296 20.3901 11.7296 20.3901 11.7296C23.3953 11.8024 20.5367 11.7296 20.3901 11.7296C23.4686 11.8024 26.034 13.8404 26.5471 16.8976C26.6204 17.4071 26.6937 17.9166 26.6937 18.4989C26.8403 18.7173 26.6937 18.9356 26.4738 18.9356Z" fill="white"/>
</svg>
