<svg width="12" height="12" viewBox="0 0 12 12" fill="none" xmlns="http://www.w3.org/2000/svg">
<path d="M11.4827 8.73805C11.1588 8.40673 9.75727 7.29258 9.40951 7.21966C9.02265 7.138 8.71632 7.31591 8.44558 7.47166C8.16725 7.63207 7.92743 7.7709 7.62519 7.66124C6.07601 7.02891 4.9697 5.92293 4.33953 4.38004C4.22808 4.07321 4.36637 3.8323 4.52683 3.55405C4.68262 3.28398 4.85825 2.97715 4.77832 2.5904C4.70596 2.24274 3.59207 0.841598 3.26006 0.517853C3.04067 0.304357 2.81661 0.186525 2.58729 0.167275C1.72197 0.131109 0.653011 1.37709 0.483214 1.65067C0.0584304 2.23574 0.0613479 3.01215 0.4908 3.9548C1.52475 6.48642 5.47734 10.439 8.03888 11.5042C8.51093 11.7235 8.9433 11.8332 9.33132 11.8332C9.71176 11.8332 10.0496 11.7276 10.3402 11.5188C10.559 11.3939 11.8643 10.2868 11.8328 9.40538C11.8141 9.18021 11.6962 8.95622 11.4827 8.73805Z" fill="white" fill-opacity="0.13"/>
</svg>
