<svg width="14" height="14" viewBox="0 0 14 14" fill="none" xmlns="http://www.w3.org/2000/svg">
    <path fill-rule="evenodd" clip-rule="evenodd" d="M1.74435 2.84235C1.92888 2.53683 2.94554 1.42557 3.67104 1.45912C3.88791 1.47709 4.07962 1.60828 4.23538 1.76045C4.59304 2.1097 5.61689 3.43063 5.675 3.7086C5.81639 4.39033 5.00402 4.78332 5.25264 5.47044C5.88648 7.02141 6.97863 8.1135 8.53028 8.74671C9.21684 8.99532 9.60985 8.183 10.2916 8.32497C10.569 8.38308 11.8906 9.40688 12.2399 9.76452C12.3914 9.91968 12.5232 10.112 12.5412 10.3288C12.5682 11.0926 11.388 12.1236 11.1579 12.2554C10.6151 12.6436 9.907 12.637 9.0437 12.2357C6.63475 11.2334 2.78498 7.45633 1.76413 4.95644C1.37352 4.09799 1.34656 3.3851 1.74435 2.84235Z" stroke="white" stroke-width="1.5" stroke-linecap="round" stroke-linejoin="round"/>
</svg>
