<svg width="10" height="12" viewBox="0 0 10 12" fill="none" xmlns="http://www.w3.org/2000/svg">
<path fill-rule="evenodd" clip-rule="evenodd" d="M0.0416565 5.01853C0.0416565 2.33527 2.28392 0.166504 4.99617 0.166504C7.71606 0.166504 9.95832 2.33527 9.95832 5.01853C9.95832 6.37066 9.46658 7.62595 8.6572 8.68992C7.76429 9.86356 6.66375 10.8861 5.42497 11.6888C5.14146 11.8742 4.88558 11.8882 4.57442 11.6888C3.32859 10.8861 2.22804 9.86356 1.34278 8.68992C0.532814 7.62595 0.0416565 6.37066 0.0416565 5.01853ZM3.36329 5.16961C3.36329 6.0685 4.09679 6.77548 4.99617 6.77548C5.89613 6.77548 6.63669 6.0685 6.63669 5.16961C6.63669 4.27772 5.89613 3.53632 4.99617 3.53632C4.09679 3.53632 3.36329 4.27772 3.36329 5.16961Z" fill="white" fill-opacity="0.13"/>
</svg>
