<svg width="44" height="44" viewBox="0 0 44 44" fill="none" xmlns="http://www.w3.org/2000/svg">
<g clip-path="url(#clip0_10_53)">
<path d="M28.1875 15.8125C25.468 15.8125 22.8096 16.6189 20.5484 18.1298C18.2872 19.6407 16.5249 21.7881 15.4842 24.3006C14.4435 26.8131 14.1712 29.5778 14.7017 32.245C15.2323 34.9122 16.5418 37.3622 18.4648 39.2852C20.3878 41.2082 22.8378 42.5178 25.505 43.0483C28.1723 43.5788 30.9369 43.3065 33.4494 42.2658C35.9619 41.2251 38.1093 39.4628 39.6202 37.2016C41.1311 34.9404 41.9375 32.282 41.9375 29.5625C41.9375 25.9158 40.4888 22.4184 37.9102 19.8398C35.3316 17.2612 31.8342 15.8125 28.1875 15.8125ZM37.4 37.8125L35.5506 35.9631L34.5744 36.9394L36.4375 38.775C34.3524 40.6629 31.6833 41.7791 28.875 41.9375V39.1875H27.5V41.9375C24.6917 41.7791 22.0226 40.6629 19.9375 38.775L21.7869 36.9256L20.8106 35.9494L18.975 37.8125C17.0996 35.7226 15.9958 33.054 15.8469 30.25H18.5625V28.875H15.8469C15.9958 26.071 17.0996 23.4024 18.975 21.3125L20.8244 23.1619L21.8006 22.1856L19.9375 20.35C22.0274 18.4746 24.696 17.3708 27.5 17.2219V19.9375H28.875V17.2219C31.679 17.3708 34.3477 18.4746 36.4375 20.35L34.5881 22.1994L35.5644 23.1756L37.4 21.3125C39.2879 23.3976 40.4041 26.0667 40.5625 28.875H37.8125V30.25H40.5625C40.4041 33.0583 39.2879 35.7274 37.4 37.8125Z" fill="#262729"/>
<path d="M28.1875 21.3125C26.5558 21.3125 24.9608 21.7964 23.6041 22.7029C22.2474 23.6094 21.1899 24.8979 20.5655 26.4054C19.9411 27.9129 19.7777 29.5717 20.096 31.172C20.4144 32.7723 21.2001 34.2424 22.3539 35.3961C23.5077 36.5499 24.9777 37.3357 26.578 37.654C28.1784 37.9723 29.8372 37.8089 31.3447 37.1845C32.8521 36.5601 34.1406 35.5027 35.0471 34.146C35.9537 32.7893 36.4375 31.1942 36.4375 29.5625C36.4375 27.3745 35.5683 25.2761 34.0211 23.7289C32.474 22.1817 30.3755 21.3125 28.1875 21.3125ZM35.0625 29.5625C35.0624 30.1764 34.9767 30.7872 34.8081 31.3775L31.625 29.5625L34.7944 27.7475C34.9677 28.3371 35.0579 28.948 35.0625 29.5625ZM21.3125 29.5625C21.3127 28.9486 21.3983 28.3378 21.5669 27.7475L24.75 29.5625L21.5806 31.3775C21.4074 30.7879 21.3171 30.177 21.3125 29.5625ZM29.5625 29.5625C29.5625 29.8345 29.4819 30.1003 29.3308 30.3264C29.1797 30.5525 28.965 30.7288 28.7137 30.8328C28.4625 30.9369 28.186 30.9641 27.9193 30.9111C27.6525 30.858 27.4075 30.7271 27.2152 30.5348C27.0229 30.3425 26.892 30.0975 26.8389 29.8308C26.7859 29.564 26.8131 29.2876 26.9172 29.0363C27.0212 28.7851 27.1975 28.5703 27.4236 28.4192C27.6497 28.2682 27.9156 28.1875 28.1875 28.1875C28.5522 28.1875 28.9019 28.3324 29.1598 28.5902C29.4176 28.8481 29.5625 29.1978 29.5625 29.5625ZM29.5625 27.2044C29.4525 27.1425 29.3494 27.0738 29.2394 27.0256L31.3019 23.4369C31.7391 23.6612 32.1516 23.9308 32.5325 24.2413L29.5625 27.2044ZM26.8125 27.2044L23.8563 24.2413C24.2372 23.9308 24.6497 23.6612 25.0869 23.4369L27.1494 27.0256C27.0119 27.0738 26.9088 27.1425 26.8125 27.2044ZM25.8294 28.1875C25.7675 28.2975 25.6988 28.4006 25.6506 28.5106L22.0619 26.4481C22.2862 26.0109 22.5558 25.5984 22.8663 25.2175L25.8294 28.1875ZM25.6506 30.6419C25.6988 30.7519 25.7675 30.855 25.8294 30.965L22.8663 33.9213C22.5558 33.5403 22.2862 33.1279 22.0619 32.6906L25.6506 30.6419ZM26.8125 31.9206C26.9225 31.9825 27.0256 32.0513 27.1356 32.0994L25.0731 35.6881C24.6359 35.4638 24.2234 35.1942 23.8425 34.8838L26.8125 31.9206ZM29.5625 31.9206L32.5188 34.8838C32.1378 35.1942 31.7254 35.4638 31.2881 35.6881L29.2256 32.0994C29.3631 32.0513 29.4663 31.9825 29.5625 31.9206ZM30.5456 30.9375C30.6075 30.8275 30.6763 30.7244 30.7244 30.6144L34.3131 32.6769C34.0888 33.1141 33.8192 33.5266 33.5088 33.9075L30.5456 30.9375ZM30.7244 28.4831C30.6763 28.3731 30.6075 28.27 30.5456 28.16L33.5088 25.2038C33.8192 25.5847 34.0888 25.9972 34.3131 26.4344L30.7244 28.4831ZM30.0369 22.9281L28.1875 26.125L26.3725 22.9556C27.5587 22.6163 28.8163 22.6163 30.0025 22.9556L30.0369 22.9281ZM26.3725 36.1831L28.1875 33L30.0025 36.1694C28.8163 36.5087 27.5587 36.5087 26.3725 36.1694V36.1831ZM11 31.6731V18.315C12.1312 17.7447 13.0624 16.8441 13.6701 15.7326C14.2778 14.621 14.5334 13.3511 14.4029 12.091C14.2724 10.8309 13.7621 9.64021 12.9395 8.67678C12.1169 7.71334 11.0209 7.02265 9.79689 6.69626C9.69349 6.66951 9.58527 6.66721 9.48083 6.68955C9.37639 6.7119 9.27859 6.75827 9.19519 6.82499C9.11178 6.89171 9.04507 6.97695 9.00035 7.07394C8.95562 7.17093 8.93411 7.27701 8.93751 7.38376V11C8.93751 11.3647 8.79265 11.7144 8.53478 11.9723C8.27692 12.2301 7.92719 12.375 7.56251 12.375C7.19784 12.375 6.8481 12.2301 6.59024 11.9723C6.33238 11.7144 6.18751 11.3647 6.18751 11V7.36314C6.19092 7.25638 6.16941 7.15031 6.12468 7.05332C6.07995 6.95633 6.01324 6.87109 5.92984 6.80437C5.84644 6.73765 5.74864 6.69127 5.6442 6.66893C5.53975 6.64658 5.43154 6.64888 5.32814 6.67564C4.09785 6.99782 2.99515 7.68769 2.16728 8.65311C1.33942 9.61854 0.825815 10.8136 0.695053 12.0786C0.56429 13.3436 0.822599 14.6184 1.43548 15.7328C2.04836 16.8472 2.98664 17.748 4.12501 18.315V31.6731C2.98664 32.2402 2.04836 33.141 1.43548 34.2553C0.822599 35.3697 0.56429 36.6445 0.695053 37.9095C0.825815 39.1746 1.33942 40.3696 2.16728 41.335C2.99515 42.3005 4.09785 42.9903 5.32814 43.3125C5.42961 43.3383 5.53562 43.3405 5.63808 43.319C5.74055 43.2976 5.83676 43.253 5.91939 43.1888C6.00539 43.1226 6.07452 43.0371 6.12113 42.9391C6.16773 42.8411 6.19048 42.7335 6.18751 42.625V39.1875C6.18864 38.9147 6.27087 38.6484 6.42375 38.4225C6.57664 38.1966 6.79327 38.0213 7.04608 37.9188C7.29889 37.8164 7.57647 37.7914 7.84349 37.8472C8.11052 37.9029 8.35493 38.0368 8.54564 38.2319C8.67121 38.3571 8.77055 38.5061 8.83783 38.6702C8.90512 38.8343 8.93901 39.0102 8.93751 39.1875V42.625C8.93751 42.8073 9.00995 42.9822 9.13888 43.1111C9.26781 43.2401 9.44268 43.3125 9.62501 43.3125C9.68211 43.3192 9.73979 43.3192 9.79689 43.3125C11.0272 42.9903 12.1299 42.3005 12.9577 41.335C13.7856 40.3696 14.2992 39.1746 14.43 37.9095C14.5607 36.6445 14.3024 35.3697 13.6895 34.2553C13.0767 33.141 12.1384 32.2402 11 31.6731ZM10.3125 41.6488V39.1875C10.3144 38.8297 10.2448 38.4752 10.1079 38.1446C9.97092 37.814 9.76937 37.5142 9.51501 37.2625C9.13202 36.8764 8.64312 36.6124 8.11013 36.5041C7.57714 36.3958 7.02401 36.448 6.52067 36.654C6.01733 36.8601 5.58639 37.2107 5.28234 37.6617C4.97829 38.1126 4.81479 38.6436 4.81251 39.1875V41.6763C3.96741 41.2651 3.25898 40.6186 2.77232 39.8146C2.28566 39.0106 2.04146 38.0832 2.06905 37.1437C2.09664 36.2043 2.39484 35.2928 2.92784 34.5187C3.46085 33.7447 4.20599 33.1409 5.07376 32.78C5.20486 32.7263 5.31618 32.6334 5.39248 32.5141C5.46877 32.3947 5.50633 32.2547 5.50001 32.1131V17.875C5.5007 17.7381 5.4605 17.6041 5.38456 17.4902C5.30862 17.3763 5.2004 17.2877 5.07376 17.2356C4.20599 16.8747 3.46085 16.271 2.92784 15.4969C2.39484 14.7228 2.09664 13.8113 2.06905 12.8719C2.04146 11.9325 2.28566 11.0051 2.77232 10.201C3.25898 9.39702 3.96741 8.75059 4.81251 8.33939V11C4.81251 11.7294 5.10224 12.4288 5.61797 12.9446C6.13369 13.4603 6.83317 13.75 7.56251 13.75C8.29186 13.75 8.99133 13.4603 9.50706 12.9446C10.0228 12.4288 10.3125 11.7294 10.3125 11V8.33939C11.1576 8.75059 11.866 9.39702 12.3527 10.201C12.8394 11.0051 13.0836 11.9325 13.056 12.8719C13.0284 13.8113 12.7302 14.7228 12.1972 15.4969C11.6642 16.271 10.919 16.8747 10.0513 17.2356C9.92463 17.2877 9.81641 17.3763 9.74047 17.4902C9.66453 17.6041 9.62433 17.7381 9.62501 17.875V32.1131C9.62433 32.25 9.66453 32.384 9.74047 32.4979C9.81641 32.6118 9.92463 32.7005 10.0513 32.7525C10.919 33.1134 11.6642 33.7172 12.1972 34.4912C12.7302 35.2653 13.0284 36.1768 13.056 37.1162C13.0836 38.0557 12.8394 38.9831 12.3527 39.7871C11.866 40.5911 11.1576 41.2376 10.3125 41.6488ZM23.375 8.93751H24.75C24.8405 8.93804 24.9302 8.92069 25.0139 8.88648C25.0977 8.85227 25.1739 8.80186 25.2381 8.73814L26.6131 7.36314C26.6769 7.2989 26.7273 7.22271 26.7615 7.13895C26.7957 7.05518 26.813 6.96549 26.8125 6.87501V5.50001C26.813 5.40953 26.7957 5.31984 26.7615 5.23608C26.7273 5.15231 26.6769 5.07613 26.6131 5.01189L25.2381 3.63689C25.1739 3.57317 25.0977 3.52276 25.0139 3.48854C24.9302 3.45433 24.8405 3.43699 24.75 3.43751H23.375C23.2845 3.43699 23.1948 3.45433 23.1111 3.48854C23.0273 3.52276 22.9511 3.57317 22.8869 3.63689L21.5119 5.01189C21.4482 5.07613 21.3978 5.15231 21.3635 5.23608C21.3293 5.31984 21.312 5.40953 21.3125 5.50001V6.87501C21.312 6.96549 21.3293 7.05518 21.3635 7.13895C21.3978 7.22271 21.4482 7.2989 21.5119 7.36314L22.8869 8.73814C22.9511 8.80186 23.0273 8.85227 23.1111 8.88648C23.1948 8.92069 23.2845 8.93804 23.375 8.93751ZM22.6875 5.78189L23.6569 4.81251H24.4681L25.4375 5.78189V6.59314L24.4681 7.56251H23.6569L22.6875 6.59314V5.78189Z" fill="#262729"/>
<path d="M21.5119 11.4881C21.5761 11.5519 21.6523 11.6023 21.7361 11.6365C21.8198 11.6707 21.9095 11.688 22 11.6875H26.125C26.2155 11.688 26.3052 11.6707 26.3889 11.6365C26.4727 11.6023 26.5489 11.5519 26.6131 11.4881L29.3631 8.73814C29.4269 8.6739 29.4773 8.59771 29.5115 8.51395C29.5457 8.43018 29.563 8.34049 29.5625 8.25001V4.12501C29.563 4.03453 29.5457 3.94484 29.5115 3.86108C29.4773 3.77731 29.4269 3.70113 29.3631 3.63689L26.6131 0.886886C26.5489 0.823168 26.4727 0.772757 26.3889 0.738544C26.3052 0.704331 26.2155 0.686988 26.125 0.687511H22C21.9095 0.686988 21.8198 0.704331 21.7361 0.738544C21.6523 0.772757 21.5761 0.823168 21.5119 0.886886L18.7619 3.63689C18.6982 3.70113 18.6478 3.77731 18.6135 3.86108C18.5793 3.94484 18.562 4.03453 18.5625 4.12501V8.25001C18.562 8.34049 18.5793 8.43018 18.6135 8.51395C18.6478 8.59771 18.6982 8.6739 18.7619 8.73814L21.5119 11.4881ZM19.9375 4.40689L22.2819 2.06251H25.8431L28.1875 4.40689V7.96814L25.8431 10.3125H22.2819L19.9375 7.96814V4.40689ZM38.5 7.56251H37.125C37.0345 7.56199 36.9448 7.57933 36.8611 7.61354C36.7773 7.64776 36.7011 7.69817 36.6369 7.76189L35.2619 9.13689C35.1982 9.20113 35.1478 9.27731 35.1135 9.36108C35.0793 9.44484 35.062 9.53453 35.0625 9.62501V11C35.062 11.0905 35.0793 11.1802 35.1135 11.2639C35.1478 11.3477 35.1982 11.4239 35.2619 11.4881L36.6369 12.8631C36.7011 12.9269 36.7773 12.9773 36.8611 13.0115C36.9448 13.0457 37.0345 13.063 37.125 13.0625H38.5C38.5905 13.063 38.6802 13.0457 38.7639 13.0115C38.8477 12.9773 38.9239 12.9269 38.9881 12.8631L40.3631 11.4881C40.4269 11.4239 40.4773 11.3477 40.5115 11.2639C40.5457 11.1802 40.563 11.0905 40.5625 11V9.62501C40.563 9.53453 40.5457 9.44484 40.5115 9.36108C40.4773 9.27731 40.4269 9.20113 40.3631 9.13689L38.9881 7.76189C38.9239 7.69817 38.8477 7.64776 38.7639 7.61354C38.6802 7.57933 38.5905 7.56199 38.5 7.56251ZM39.1875 10.7181L38.2181 11.6875H37.4069L36.4375 10.7181V9.90689L37.4069 8.93751H38.2181L39.1875 9.90689V10.7181Z" fill="#262729"/>
<path d="M43.1131 7.76189L40.3631 5.01189C40.2989 4.94817 40.2227 4.89776 40.1389 4.86354C40.0552 4.82933 39.9655 4.81199 39.875 4.81251H35.75C35.6595 4.81199 35.5698 4.82933 35.4861 4.86354C35.4023 4.89776 35.3261 4.94817 35.2619 5.01189L32.5119 7.76189C32.4482 7.82613 32.3978 7.90231 32.3635 7.98608C32.3293 8.06984 32.312 8.15953 32.3125 8.25001V12.375C32.312 12.4655 32.3293 12.5552 32.3635 12.6389C32.3978 12.7227 32.4482 12.7989 32.5119 12.8631L35.2619 15.6131C35.3261 15.6769 35.4023 15.7273 35.4861 15.7615C35.5698 15.7957 35.6595 15.813 35.75 15.8125H39.875C39.9655 15.813 40.0552 15.7957 40.1389 15.7615C40.2227 15.7273 40.2989 15.6769 40.3631 15.6131L43.1131 12.8631C43.1769 12.7989 43.2273 12.7227 43.2615 12.6389C43.2957 12.5552 43.313 12.4655 43.3125 12.375V8.25001C43.313 8.15953 43.2957 8.06984 43.2615 7.98608C43.2273 7.90231 43.1769 7.82613 43.1131 7.76189ZM41.9375 12.0931L39.5931 14.4375H36.0319L33.6875 12.0931V8.53189L36.0319 6.18751H39.5931L41.9375 8.53189V12.0931Z" fill="#262729"/>
</g>
<defs>
<clipPath id="clip0_10_53">
<rect width="44" height="44" fill="white"/>
</clipPath>
</defs>
</svg>
