<svg width="44" height="44" viewBox="0 0 44 44" fill="none" xmlns="http://www.w3.org/2000/svg">
<g clip-path="url(#clip0_11_68)">
<path d="M6.1875 16.5V19.25C6.1875 19.4323 6.25993 19.6072 6.38886 19.7361C6.5178 19.8651 6.69266 19.9375 6.875 19.9375H11C11.1823 19.9375 11.3572 19.8651 11.4861 19.7361C11.6151 19.6072 11.6875 19.4323 11.6875 19.25V16.5C11.6875 16.3177 11.6151 16.1428 11.4861 16.0139C11.3572 15.8849 11.1823 15.8125 11 15.8125H6.875C6.69266 15.8125 6.5178 15.8849 6.38886 16.0139C6.25993 16.1428 6.1875 16.3177 6.1875 16.5ZM7.5625 17.1875H10.3125V18.5625H7.5625V17.1875ZM11 21.3125H6.875C6.69266 21.3125 6.5178 21.3849 6.38886 21.5139C6.25993 21.6428 6.1875 21.8177 6.1875 22V24.75C6.1875 24.9323 6.25993 25.1072 6.38886 25.2361C6.5178 25.3651 6.69266 25.4375 6.875 25.4375H11C11.1823 25.4375 11.3572 25.3651 11.4861 25.2361C11.6151 25.1072 11.6875 24.9323 11.6875 24.75V22C11.6875 21.8177 11.6151 21.6428 11.4861 21.5139C11.3572 21.3849 11.1823 21.3125 11 21.3125ZM10.3125 24.0625H7.5625V22.6875H10.3125V24.0625ZM11 26.8125H6.875C6.69266 26.8125 6.5178 26.8849 6.38886 27.0139C6.25993 27.1428 6.1875 27.3177 6.1875 27.5V30.25C6.1875 30.4323 6.25993 30.6072 6.38886 30.7361C6.5178 30.8651 6.69266 30.9375 6.875 30.9375H11C11.1823 30.9375 11.3572 30.8651 11.4861 30.7361C11.6151 30.6072 11.6875 30.4323 11.6875 30.25V27.5C11.6875 27.3177 11.6151 27.1428 11.4861 27.0139C11.3572 26.8849 11.1823 26.8125 11 26.8125ZM10.3125 29.5625H7.5625V28.1875H10.3125V29.5625ZM11 32.3125H6.875C6.69266 32.3125 6.5178 32.3849 6.38886 32.5139C6.25993 32.6428 6.1875 32.8177 6.1875 33V35.75C6.1875 35.9323 6.25993 36.1072 6.38886 36.2361C6.5178 36.3651 6.69266 36.4375 6.875 36.4375H11C11.1823 36.4375 11.3572 36.3651 11.4861 36.2361C11.6151 36.1072 11.6875 35.9323 11.6875 35.75V33C11.6875 32.8177 11.6151 32.6428 11.4861 32.5139C11.3572 32.3849 11.1823 32.3125 11 32.3125ZM10.3125 35.0625H7.5625V33.6875H10.3125V35.0625Z" fill="#262729"/>
<path d="M22.6875 15.8125H13.0625V17.1875H22.6875V15.8125Z" fill="#262729"/>
<path d="M22.6875 18.5625H13.0625V19.9375H22.6875V18.5625Z" fill="#262729"/>
<path d="M22.6875 21.3125H13.0625V22.6875H22.6875V21.3125Z" fill="#262729"/>
<path d="M22.6875 24.0625H13.0625V25.4375H22.6875V24.0625Z" fill="#262729"/>
<path d="M22.6875 26.8125H13.0625V28.1875H22.6875V26.8125Z" fill="#262729"/>
<path d="M22.6875 29.5625H13.0625V30.9375H22.6875V29.5625Z" fill="#262729"/>
<path d="M22.6875 32.3125H13.0625V33.6875H22.6875V32.3125Z" fill="#262729"/>
<path d="M22.6875 35.0625H13.0625V36.4375H22.6875V35.0625Z" fill="#262729"/>
<path d="M42.625 12.375H40.2325C39.9502 11.1988 39.4863 10.0739 38.8575 9.04062L40.5625 7.34937C40.6269 7.28546 40.6781 7.20942 40.713 7.12565C40.7479 7.04187 40.7659 6.95201 40.7659 6.86125C40.7659 6.77049 40.7479 6.68063 40.713 6.59685C40.6781 6.51308 40.6269 6.43704 40.5625 6.37313L37.6269 3.4375C37.563 3.37306 37.4869 3.32192 37.4031 3.28701C37.3194 3.25211 37.2295 3.23414 37.1388 3.23414C37.048 3.23414 36.9581 3.25211 36.8744 3.28701C36.7906 3.32192 36.7145 3.37306 36.6506 3.4375L34.9594 5.14937C33.9261 4.52057 32.8012 4.05667 31.625 3.77437V1.375C31.625 1.19266 31.5526 1.0178 31.4236 0.888864C31.2947 0.759933 31.1198 0.6875 30.9375 0.6875H26.8125C26.6302 0.6875 26.4553 0.759933 26.3264 0.888864C26.1974 1.0178 26.125 1.19266 26.125 1.375V3.7675C24.9488 4.0498 23.8239 4.5137 22.7906 5.1425L21.0994 3.4375C21.0355 3.37306 20.9594 3.32192 20.8756 3.28701C20.7919 3.25211 20.702 3.23414 20.6112 3.23414C20.5205 3.23414 20.4306 3.25211 20.3469 3.28701C20.2631 3.32192 20.187 3.37306 20.1231 3.4375L17.1875 6.37313C17.1231 6.43704 17.0719 6.51308 17.037 6.59685C17.0021 6.68063 16.9841 6.77049 16.9841 6.86125C16.9841 6.95201 17.0021 7.04187 17.037 7.12565C17.0719 7.20942 17.1231 7.28546 17.1875 7.34937L17.4006 7.5625H1.375C1.19266 7.5625 1.0178 7.63493 0.888864 7.76386C0.759933 7.8928 0.6875 8.06766 0.6875 8.25V42.625C0.6875 42.8073 0.759933 42.9822 0.888864 43.1111C1.0178 43.2401 1.19266 43.3125 1.375 43.3125H27.5C27.6823 43.3125 27.8572 43.2401 27.9861 43.1111C28.1151 42.9822 28.1875 42.8073 28.1875 42.625V41.9375H37.125C37.198 41.9474 37.272 41.9474 37.345 41.9375L41.47 40.5625C41.6075 40.5173 41.7273 40.4298 41.8122 40.3125C41.8971 40.1953 41.9428 40.0542 41.9428 39.9094C41.9428 39.7646 41.8971 39.6235 41.8122 39.5062C41.7273 39.3889 41.6075 39.3015 41.47 39.2562L37.345 37.8812C37.2753 37.8481 37.2012 37.8249 37.125 37.8125H28.1875V36.4375H35.75C35.823 36.4474 35.897 36.4474 35.97 36.4375L40.095 35.0625C40.2325 35.0173 40.3523 34.9298 40.4372 34.8125C40.5221 34.6953 40.5678 34.5542 40.5678 34.4094C40.5678 34.2646 40.5221 34.1235 40.4372 34.0062C40.3523 33.8889 40.2325 33.8015 40.095 33.7562L35.97 32.3812C35.9003 32.3481 35.8262 32.3249 35.75 32.3125H28.1875V29.5625H30.9375C31.1198 29.5625 31.2947 29.4901 31.4236 29.3611C31.5526 29.2322 31.625 29.0573 31.625 28.875V26.4825C32.8012 26.2002 33.9261 25.7363 34.9594 25.1075L36.6506 26.8125C36.7145 26.8769 36.7906 26.9281 36.8744 26.963C36.9581 26.9979 37.048 27.0159 37.1388 27.0159C37.2295 27.0159 37.3194 26.9979 37.4031 26.963C37.4869 26.9281 37.563 26.8769 37.6269 26.8125L40.5625 23.8769C40.6269 23.813 40.6781 23.7369 40.713 23.6531C40.7479 23.5694 40.7659 23.4795 40.7659 23.3888C40.7659 23.298 40.7479 23.2081 40.713 23.1244C40.6781 23.0406 40.6269 22.9645 40.5625 22.9006L38.8713 21.2094C39.5001 20.1761 39.964 19.0512 40.2463 17.875H42.625C42.8073 17.875 42.9822 17.8026 43.1111 17.6736C43.2401 17.5447 43.3125 17.3698 43.3125 17.1875V13.0625C43.3125 12.8802 43.2401 12.7053 43.1111 12.5764C42.9822 12.4474 42.8073 12.375 42.625 12.375ZM9.625 14.4375H19.25C19.4323 14.4375 19.6072 14.3651 19.7361 14.2361C19.8651 14.1072 19.9375 13.9323 19.9375 13.75V13.0625H24.0625V37.8125H4.8125V13.0625H8.9375V13.75C8.9375 13.9323 9.00993 14.1072 9.13886 14.2361C9.2678 14.3651 9.44266 14.4375 9.625 14.4375ZM18.5625 8.9375V13.0625H10.3125V8.9375H18.5625ZM26.8125 41.9375H2.0625V8.9375H8.9375V11.6875H4.125C3.94266 11.6875 3.7678 11.7599 3.63886 11.8889C3.50993 12.0178 3.4375 12.1927 3.4375 12.375V38.5C3.4375 38.6823 3.50993 38.8572 3.63886 38.9861C3.7678 39.1151 3.94266 39.1875 4.125 39.1875H24.75C24.9323 39.1875 25.1072 39.1151 25.2361 38.9861C25.3651 38.8572 25.4375 38.6823 25.4375 38.5V12.375C25.4375 12.1927 25.3651 12.0178 25.2361 11.8889C25.1072 11.7599 24.9323 11.6875 24.75 11.6875H19.9375V8.9375H26.8125V41.9375ZM28.1875 16.7612L28.38 16.9606C28.4441 17.0272 28.521 17.0801 28.6061 17.1162C28.6911 17.1524 28.7826 17.171 28.875 17.171C28.9674 17.171 29.0589 17.1524 29.1439 17.1162C29.229 17.0801 29.3059 17.0272 29.37 16.9606L30.745 15.5238C30.8678 15.3963 30.9368 15.2264 30.9375 15.0494V12.1619C31.3697 12.5083 31.7178 12.948 31.9559 13.448C32.1941 13.9481 32.316 14.4955 32.3125 15.0494C32.3213 15.7838 32.1054 16.5033 31.6937 17.1115C31.2821 17.7198 30.6944 18.1877 30.0094 18.4525C29.8778 18.5017 29.7644 18.59 29.6845 18.7055C29.6046 18.821 29.562 18.9583 29.5625 19.0988V22.6875C29.3356 22.6875 29.1087 22.6875 28.875 22.6875C28.6413 22.6875 28.4144 22.6875 28.1875 22.6875V16.7612ZM30.9375 19.5525C31.8029 19.1097 32.5222 18.4266 33.0092 17.5852C33.4961 16.7439 33.73 15.7799 33.6828 14.8089C33.6357 13.8379 33.3094 12.9012 32.7432 12.1109C32.177 11.3207 31.3949 10.7106 30.4906 10.3538C30.3865 10.3148 30.2744 10.3018 30.1641 10.3157C30.0537 10.3296 29.9484 10.37 29.8571 10.4336C29.7659 10.4971 29.6914 10.5818 29.6401 10.6805C29.5888 10.7792 29.5621 10.8888 29.5625 11V14.7744L28.875 15.4619L28.1875 14.7744V8.25C28.1865 8.12232 28.1499 7.99745 28.0819 7.88937C28.0139 7.7813 27.9172 7.6943 27.8025 7.63812C28.1579 7.58852 28.5162 7.56326 28.875 7.5625C30.6949 7.56998 32.451 8.23346 33.8212 9.43121C35.1913 10.629 36.0836 12.2806 36.3343 14.0832C36.585 15.8857 36.1773 17.7182 35.186 19.2444C34.1947 20.7705 32.6863 21.8881 30.9375 22.3919V19.5525ZM37.8125 40.2944V39.4556L39.0775 39.875L37.8125 40.2944ZM36.4375 39.1875V40.5625H28.1875V39.1875H36.4375ZM36.4375 34.7944V33.9556L37.7025 34.375L36.4375 34.7944ZM35.0625 33.6875V35.0625H28.1875V33.6875H35.0625ZM41.9375 16.5H39.6756C39.5138 16.4971 39.3562 16.5513 39.2304 16.6532C39.1046 16.755 39.0188 16.898 38.9881 17.0569C38.7258 18.4402 38.183 19.7551 37.3931 20.9206C37.3031 21.053 37.262 21.2127 37.2771 21.372C37.2921 21.5314 37.3624 21.6806 37.4756 21.7938L39.0844 23.375L37.125 25.3344L35.5438 23.7394C35.4306 23.6261 35.2814 23.5559 35.1221 23.5408C34.9627 23.5258 34.803 23.5668 34.6706 23.6569C33.5051 24.4467 32.1902 24.9895 30.8069 25.2519C30.648 25.2826 30.505 25.3684 30.4032 25.4941C30.3013 25.6199 30.2471 25.7776 30.25 25.9394V28.1875H28.1875V24.0625C28.4144 24.0625 28.6481 24.0625 28.875 24.0625C30.2607 24.0634 31.6275 23.742 32.8677 23.1239C34.1078 22.5058 35.1872 21.6077 36.0207 20.5007C36.8541 19.3938 37.4188 18.1081 37.67 16.7454C37.9212 15.3828 37.8522 13.9803 37.4683 12.6489C37.0844 11.3175 36.3962 10.0936 35.458 9.07381C34.5198 8.05406 33.3574 7.26642 32.0626 6.7731C30.7677 6.27978 29.3758 6.09429 27.997 6.23129C26.6181 6.3683 25.29 6.82403 24.1175 7.5625H19.3669L18.6794 6.875L20.625 4.91563L22.2062 6.51063C22.3194 6.62389 22.4685 6.69412 22.6279 6.70918C22.7873 6.72424 22.947 6.68319 23.0794 6.59313C24.2449 5.80328 25.5598 5.26046 26.9431 4.99813C27.102 4.9674 27.245 4.88161 27.3468 4.75585C27.4487 4.6301 27.5029 4.47243 27.5 4.31063V2.0625H30.25V4.32437C30.2471 4.48619 30.3013 4.64385 30.4032 4.7696C30.505 4.89536 30.648 4.98115 30.8069 5.01188C32.1902 5.27421 33.5051 5.81703 34.6706 6.60687C34.803 6.69694 34.9627 6.73799 35.1221 6.72293C35.2814 6.70787 35.4306 6.63764 35.5438 6.52437L37.125 4.91563L39.0844 6.875L37.4894 8.45625C37.3761 8.56941 37.3059 8.71855 37.2908 8.87795C37.2758 9.03735 37.3168 9.197 37.4069 9.32937C38.1967 10.4949 38.7395 11.8098 39.0019 13.1931C39.0326 13.352 39.1184 13.495 39.2441 13.5968C39.3699 13.6987 39.5276 13.7529 39.6894 13.75H41.9375V16.5Z" fill="#262729"/>
</g>
<defs>
<clipPath id="clip0_11_68">
<rect width="44" height="44" fill="white"/>
</clipPath>
</defs>
</svg>
