<svg width="44" height="44" viewBox="0 0 44 44" fill="none" xmlns="http://www.w3.org/2000/svg">
<g clip-path="url(#clip0_11_80)">
<path d="M42.625 12.375H40.2325C39.9502 11.1988 39.4863 10.0739 38.8575 9.04062L40.5625 7.34937C40.6262 7.28513 40.6766 7.20895 40.7108 7.12519C40.7451 7.04142 40.7624 6.95173 40.7619 6.86125C40.7624 6.77077 40.7451 6.68108 40.7108 6.59731C40.6766 6.51355 40.6262 6.43737 40.5625 6.37313L37.6269 3.4375C37.563 3.37306 37.4869 3.32192 37.4031 3.28701C37.3194 3.25211 37.2295 3.23414 37.1388 3.23414C37.048 3.23414 36.9581 3.25211 36.8744 3.28701C36.7906 3.32192 36.7145 3.37306 36.6506 3.4375L34.9594 5.14937C33.9261 4.52057 32.8012 4.05667 31.625 3.77437V1.375C31.625 1.19266 31.5526 1.0178 31.4236 0.888864C31.2947 0.759933 31.1198 0.6875 30.9375 0.6875H26.8125C26.6302 0.6875 26.4553 0.759933 26.3264 0.888864C26.1974 1.0178 26.125 1.19266 26.125 1.375V3.7675C24.9488 4.0498 23.8239 4.5137 22.7906 5.1425L21.0994 3.4375C20.9698 3.31967 20.8001 3.25573 20.625 3.25875C20.5345 3.25823 20.4448 3.27557 20.3611 3.30978C20.2773 3.344 20.2011 3.39441 20.1369 3.45813L17.1875 6.37313C17.1238 6.43737 17.0734 6.51355 17.0392 6.59731C17.0049 6.68108 16.9876 6.77077 16.9881 6.86125C16.9876 6.95173 17.0049 7.04142 17.0392 7.12519C17.0734 7.20895 17.1238 7.28513 17.1875 7.34937L18.8787 9.04062C18.2499 10.0739 17.786 11.1988 17.5037 12.375H15.125C14.9427 12.375 14.7678 12.4474 14.6389 12.5764C14.5099 12.7053 14.4375 12.8802 14.4375 13.0625V14.4375H8.9375C7.84348 14.4375 6.79427 14.8721 6.02068 15.6457C5.2471 16.4193 4.8125 17.4685 4.8125 18.5625V20.625H4.125C3.57799 20.625 3.05339 20.8423 2.66659 21.2291C2.2798 21.6159 2.0625 22.1405 2.0625 22.6875V24.0625C2.0625 24.6095 2.2798 25.1341 2.66659 25.5209C3.05339 25.9077 3.57799 26.125 4.125 26.125H4.8125V27.0531C4.00902 27.3372 3.31324 27.8632 2.82081 28.5587C2.32838 29.2543 2.06347 30.0853 2.0625 30.9375V35.0625H1.375C1.19266 35.0625 1.0178 35.1349 0.888864 35.2639C0.759933 35.3928 0.6875 35.5677 0.6875 35.75V38.5C0.6875 38.6823 0.759933 38.8572 0.888864 38.9861C1.0178 39.1151 1.19266 39.1875 1.375 39.1875H3.4375V41.25C3.4375 41.797 3.6548 42.3216 4.04159 42.7084C4.42839 43.0952 4.95299 43.3125 5.5 43.3125H8.25C8.79701 43.3125 9.32161 43.0952 9.70841 42.7084C10.0952 42.3216 10.3125 41.797 10.3125 41.25V39.1875H26.8125V41.25C26.8125 41.797 27.0298 42.3216 27.4166 42.7084C27.8034 43.0952 28.328 43.3125 28.875 43.3125H31.625C32.172 43.3125 32.6966 43.0952 33.0834 42.7084C33.4702 42.3216 33.6875 41.797 33.6875 41.25V39.1875H35.75C35.9323 39.1875 36.1072 39.1151 36.2361 38.9861C36.3651 38.8572 36.4375 38.6823 36.4375 38.5V35.75C36.4375 35.5677 36.3651 35.3928 36.2361 35.2639C36.1072 35.1349 35.9323 35.0625 35.75 35.0625H35.0625V30.9375C35.0615 29.9634 34.7158 29.0211 34.0867 28.2774C33.4575 27.5337 32.5855 27.0367 31.625 26.8744V26.4825C32.8012 26.2002 33.9261 25.7363 34.9594 25.1075L36.6506 26.8125C36.7149 26.8762 36.791 26.9266 36.8748 26.9608C36.9586 26.9951 37.0483 27.0124 37.1388 27.0119C37.2292 27.0124 37.3189 26.9951 37.4027 26.9608C37.4865 26.9266 37.5626 26.8762 37.6269 26.8125L40.5625 23.8769C40.6262 23.8126 40.6766 23.7365 40.7108 23.6527C40.7451 23.5689 40.7624 23.4792 40.7619 23.3888C40.7624 23.2983 40.7451 23.2086 40.7108 23.1248C40.6766 23.041 40.6262 22.9649 40.5625 22.9006L38.8713 21.2094C39.5001 20.1761 39.964 19.0512 40.2463 17.875H42.625C42.8073 17.875 42.9822 17.8026 43.1111 17.6736C43.2401 17.5447 43.3125 17.3698 43.3125 17.1875V13.0625C43.3125 12.8802 43.2401 12.7053 43.1111 12.5764C42.9822 12.4474 42.8073 12.375 42.625 12.375ZM4.125 24.75C3.94266 24.75 3.7678 24.6776 3.63886 24.5486C3.50993 24.4197 3.4375 24.2448 3.4375 24.0625V22.6875C3.4375 22.5052 3.50993 22.3303 3.63886 22.2014C3.7678 22.0724 3.94266 22 4.125 22H4.8125V24.75H4.125ZM3.4375 32.3125H7.5625V35.0625H3.4375V32.3125ZM2.0625 36.4375H13.0625V37.8125H2.0625V36.4375ZM25.4375 32.3125H11.6875V30.9375H25.4375V32.3125ZM11.6875 33.6875H25.4375V35.0625H11.6875V33.6875ZM22.6875 36.4375V37.8125H14.4375V36.4375H22.6875ZM8.9375 41.25C8.9375 41.4323 8.86507 41.6072 8.73614 41.7361C8.6072 41.8651 8.43234 41.9375 8.25 41.9375H5.5C5.31766 41.9375 5.1428 41.8651 5.01386 41.7361C4.88493 41.6072 4.8125 41.4323 4.8125 41.25V39.1875H8.9375V41.25ZM32.3125 41.25C32.3125 41.4323 32.2401 41.6072 32.1111 41.7361C31.9822 41.8651 31.8073 41.9375 31.625 41.9375H28.875C28.6927 41.9375 28.5178 41.8651 28.3889 41.7361C28.2599 41.6072 28.1875 41.4323 28.1875 41.25V39.1875H32.3125V41.25ZM35.0625 37.8125H24.0625V36.4375H35.0625V37.8125ZM29.5625 35.0625V32.3125H33.6875V35.0625H29.5625ZM33.6875 30.9375H28.875C28.6927 30.9375 28.5178 31.0099 28.3889 31.1389C28.2599 31.2678 28.1875 31.4427 28.1875 31.625V35.0625H26.8125V30.25C26.8125 30.0677 26.7401 29.8928 26.6111 29.7639C26.4822 29.6349 26.3073 29.5625 26.125 29.5625H11C10.8177 29.5625 10.6428 29.6349 10.5139 29.7639C10.3849 29.8928 10.3125 30.0677 10.3125 30.25V35.0625H8.9375V31.625C8.9375 31.4427 8.86507 31.2678 8.73614 31.1389C8.6072 31.0099 8.43234 30.9375 8.25 30.9375H3.4375C3.4375 30.2082 3.72723 29.5087 4.24296 28.993C4.75868 28.4772 5.45815 28.1875 6.1875 28.1875H18.5625V26.8125H6.1875V18.5625C6.1875 17.8332 6.47723 17.1337 6.99296 16.618C7.50868 16.1022 8.20815 15.8125 8.9375 15.8125H14.4375V17.1875C14.4375 17.3698 14.5099 17.5447 14.6389 17.6736C14.7678 17.8026 14.9427 17.875 15.125 17.875H17.5175C17.7998 19.0512 18.2637 20.1761 18.8925 21.2094L17.1875 22.9006C17.1238 22.9649 17.0734 23.041 17.0392 23.1248C17.0049 23.2086 16.9876 23.2983 16.9881 23.3888C16.9876 23.4792 17.0049 23.5689 17.0392 23.6527C17.0734 23.7365 17.1238 23.8126 17.1875 23.8769L17.3731 24.0625H8.9375V19.25C8.9375 19.0677 9.00993 18.8928 9.13886 18.7639C9.2678 18.6349 9.44266 18.5625 9.625 18.5625H13.0625V17.1875H9.625C9.07799 17.1875 8.55339 17.4048 8.16659 17.7916C7.7798 18.1784 7.5625 18.703 7.5625 19.25V24.75C7.5625 24.9323 7.63493 25.1072 7.76386 25.2361C7.8928 25.3651 8.06766 25.4375 8.25 25.4375H18.7687L20.1437 26.8125C20.2077 26.8769 20.2837 26.9281 20.3675 26.963C20.4513 26.9979 20.5411 27.0159 20.6319 27.0159C20.7226 27.0159 20.8125 26.9979 20.8963 26.963C20.98 26.9281 21.0561 26.8769 21.12 26.8125L22.8113 25.1213C23.8445 25.7501 24.9695 26.214 26.1456 26.4963V26.8125H22.6875V28.1875H26.125V28.875C26.125 29.0573 26.1974 29.2322 26.3264 29.3611C26.4553 29.4901 26.6302 29.5625 26.8125 29.5625H30.9375C31.1198 29.5625 31.2947 29.4901 31.4236 29.3611C31.5526 29.2322 31.625 29.0573 31.625 28.875V28.2837C32.2138 28.4358 32.7356 28.7787 33.1088 29.2589C33.482 29.739 33.6855 30.3294 33.6875 30.9375ZM41.9375 16.5H39.6756C39.5138 16.4971 39.3562 16.5513 39.2304 16.6532C39.1046 16.755 39.0188 16.898 38.9881 17.0569C38.7258 18.4402 38.183 19.7551 37.3931 20.9206C37.3031 21.053 37.262 21.2127 37.2771 21.372C37.2921 21.5314 37.3624 21.6806 37.4756 21.7938L39.0844 23.375L37.125 25.3344L35.5438 23.7394C35.4306 23.6261 35.2814 23.5559 35.1221 23.5408C34.9627 23.5258 34.803 23.5668 34.6706 23.6569C33.5051 24.4467 32.1902 24.9895 30.8069 25.2519C30.648 25.2826 30.505 25.3684 30.4032 25.4941C30.3013 25.6199 30.2471 25.7776 30.25 25.9394V28.1875H27.5V25.9256C27.5029 25.7638 27.4487 25.6062 27.3468 25.4804C27.245 25.3546 27.102 25.2688 26.9431 25.2381C25.5598 24.9758 24.2449 24.433 23.0794 23.6431C22.947 23.5531 22.7873 23.512 22.6279 23.5271C22.4685 23.5421 22.3194 23.6124 22.2062 23.7256L20.625 25.3344L18.6656 23.375L20.2606 21.78C20.3739 21.6668 20.4441 21.5177 20.4592 21.3583C20.4742 21.1989 20.4332 21.0392 20.3431 20.9069C19.5533 19.7413 19.0105 18.4264 18.7481 17.0431C18.7174 16.8842 18.6316 16.7413 18.5059 16.6394C18.3801 16.5375 18.2224 16.4833 18.0606 16.4862H15.8125V13.75H18.0744C18.2362 13.7529 18.3938 13.6987 18.5196 13.5968C18.6454 13.495 18.7312 13.352 18.7619 13.1931C19.0242 11.8098 19.567 10.4949 20.3569 9.32937C20.4469 9.197 20.488 9.03735 20.4729 8.87795C20.4579 8.71855 20.3876 8.56941 20.2744 8.45625L18.6656 6.875L20.625 4.91563L22.2062 6.51063C22.3194 6.62389 22.4685 6.69412 22.6279 6.70918C22.7873 6.72424 22.947 6.68319 23.0794 6.59313C24.2449 5.80328 25.5598 5.26046 26.9431 4.99813C27.102 4.9674 27.245 4.88161 27.3468 4.75585C27.4487 4.6301 27.5029 4.47243 27.5 4.31063V2.0625H30.25V4.32437C30.2471 4.48619 30.3013 4.64385 30.4032 4.7696C30.505 4.89536 30.648 4.98115 30.8069 5.01188C32.1902 5.27421 33.5051 5.81703 34.6706 6.60687C34.803 6.69694 34.9627 6.73799 35.1221 6.72293C35.2814 6.70787 35.4306 6.63764 35.5438 6.52437L37.125 4.91563L39.0844 6.875L37.4894 8.45625C37.3761 8.56941 37.3059 8.71855 37.2908 8.87795C37.2758 9.03735 37.3168 9.197 37.4069 9.32937C38.1967 10.4949 38.7395 11.8098 39.0019 13.1931C39.0326 13.352 39.1184 13.495 39.2441 13.5968C39.3699 13.6987 39.5276 13.7529 39.6894 13.75H41.9375V16.5Z" fill="#262729"/>
<path d="M28.875 6.1875C27.1073 6.1875 25.3794 6.71168 23.9096 7.69374C22.4398 8.67581 21.2943 10.0717 20.6178 11.7048C19.9414 13.3379 19.7644 15.1349 20.1092 16.8686C20.4541 18.6023 21.3053 20.1948 22.5552 21.4448C23.8052 22.6947 25.3977 23.5459 27.1314 23.8908C28.8651 24.2356 30.6621 24.0586 32.2952 23.3822C33.9284 22.7057 35.3242 21.5602 36.3063 20.0904C37.2883 18.6206 37.8125 16.8927 37.8125 15.125C37.8125 12.7546 36.8709 10.4813 35.1948 8.80523C33.5187 7.12913 31.2454 6.1875 28.875 6.1875ZM28.1875 22.6875V19.0988C28.188 18.9583 28.1454 18.821 28.0655 18.7055C27.9856 18.59 27.8722 18.5017 27.7406 18.4525C27.0556 18.1877 26.4679 17.7198 26.0563 17.1115C25.6446 16.5033 25.4287 15.7838 25.4375 15.0494C25.4355 14.4958 25.5581 13.9488 25.7961 13.449C26.0341 12.9492 26.3815 12.5093 26.8125 12.1619V15.0494C26.8114 15.2288 26.8805 15.4015 27.005 15.5306L28.38 16.9606C28.4441 17.0272 28.521 17.0801 28.6061 17.1162C28.6911 17.1524 28.7826 17.171 28.875 17.171C28.9674 17.171 29.0589 17.1524 29.1439 17.1162C29.229 17.0801 29.3059 17.0272 29.37 16.9606L30.745 15.5306C30.8695 15.4015 30.9386 15.2288 30.9375 15.0494V12.1619C31.3685 12.5093 31.7159 12.9492 31.9539 13.449C32.1919 13.9488 32.3145 14.4958 32.3125 15.0494C32.3213 15.7838 32.1054 16.5033 31.6937 17.1115C31.2821 17.7198 30.6944 18.1877 30.0094 18.4525C29.8778 18.5017 29.7644 18.59 29.6845 18.7055C29.6046 18.821 29.562 18.9583 29.5625 19.0988V22.6875C29.3356 22.6875 29.1088 22.6875 28.875 22.6875C28.6413 22.6875 28.4144 22.6875 28.1875 22.6875ZM30.9375 22.4262V19.5525C31.8029 19.1097 32.5222 18.4266 33.0092 17.5852C33.4961 16.7439 33.73 15.7799 33.6828 14.8089C33.6357 13.8379 33.3094 12.9012 32.7432 12.1109C32.177 11.3207 31.3949 10.7106 30.4906 10.3538C30.3865 10.3148 30.2744 10.3018 30.1641 10.3157C30.0537 10.3296 29.9484 10.37 29.8571 10.4336C29.7659 10.4971 29.6914 10.5818 29.6401 10.6805C29.5888 10.7792 29.5621 10.8888 29.5625 11V14.7744L28.875 15.4619L28.1875 14.7744V11C28.1879 10.8888 28.1612 10.7792 28.1099 10.6805C28.0586 10.5818 27.9841 10.4971 27.8929 10.4336C27.8016 10.37 27.6963 10.3296 27.5859 10.3157C27.4756 10.3018 27.3636 10.3148 27.2594 10.3538C26.3551 10.7106 25.573 11.3207 25.0068 12.1109C24.4406 12.9012 24.1143 13.8379 24.0672 14.8089C24.02 15.7799 24.2539 16.7439 24.7408 17.5852C25.2278 18.4266 25.9471 19.1097 26.8125 19.5525V22.3919C25.0564 21.8941 23.5395 20.7779 22.5419 19.2493C21.5443 17.7207 21.1332 15.8828 21.3845 14.0749C21.6358 12.2669 22.5326 10.6109 23.9092 9.41232C25.2859 8.21375 27.0497 7.55356 28.875 7.55356C30.7003 7.55356 32.4641 8.21375 33.8408 9.41232C35.2175 10.6109 36.1142 12.2669 36.3655 14.0749C36.6168 15.8828 36.2057 17.7207 35.2081 19.2493C34.2105 20.7779 32.6936 21.8941 30.9375 22.3919V22.4262Z" fill="#262729"/>
</g>
<defs>
<clipPath id="clip0_11_80">
<rect width="44" height="44" fill="white"/>
</clipPath>
</defs>
</svg>
