<svg width="15" height="15" viewBox="0 0 15 15" fill="none" xmlns="http://www.w3.org/2000/svg">
    <path d="M7.5 1.35542C9.48795 1.35542 9.75904 1.35542 10.5723 1.35542C11.2952 1.35542 11.6566 1.53614 11.9277 1.62651C12.2892 1.80723 12.5602 1.89759 12.8313 2.16868C13.1024 2.43976 13.2831 2.71084 13.3735 3.07229C13.4639 3.34337 13.5542 3.70482 13.6446 4.42771C13.6446 5.24096 13.6446 5.42169 13.6446 7.5C13.6446 9.57831 13.6446 9.75904 13.6446 10.5723C13.6446 11.2952 13.4639 11.6566 13.3735 11.9277C13.1928 12.2892 13.1024 12.5602 12.8313 12.8313C12.5602 13.1024 12.2892 13.2831 11.9277 13.3735C11.6566 13.4639 11.2952 13.5542 10.5723 13.6446C9.75904 13.6446 9.57831 13.6446 7.5 13.6446C5.42169 13.6446 5.24096 13.6446 4.42771 13.6446C3.70482 13.6446 3.34337 13.4639 3.07229 13.3735C2.71084 13.1928 2.43976 13.1024 2.16868 12.8313C1.89759 12.5602 1.71687 12.2892 1.62651 11.9277C1.53614 11.6566 1.44578 11.2952 1.35542 10.5723C1.35542 9.75904 1.35542 9.57831 1.35542 7.5C1.35542 5.42169 1.35542 5.24096 1.35542 4.42771C1.35542 3.70482 1.53614 3.34337 1.62651 3.07229C1.80723 2.71084 1.89759 2.43976 2.16868 2.16868C2.43976 1.89759 2.71084 1.71687 3.07229 1.62651C3.34337 1.53614 3.70482 1.44578 4.42771 1.35542C5.24096 1.35542 5.51205 1.35542 7.5 1.35542ZM7.5 0C5.42169 0 5.24096 0 4.42771 0C3.61446 0 3.07229 0.180723 2.62048 0.361446C2.16868 0.542169 1.71687 0.813254 1.26506 1.26506C0.813254 1.71687 0.632531 2.07831 0.361446 2.62048C0.180723 3.07229 0.0903615 3.61446 0 4.42771C0 5.24096 0 5.51205 0 7.5C0 9.57831 0 9.75904 0 10.5723C0 11.3855 0.180723 11.9277 0.361446 12.3795C0.542169 12.8313 0.813254 13.2831 1.26506 13.7349C1.71687 14.1867 2.07831 14.3675 2.62048 14.6386C3.07229 14.8193 3.61446 14.9096 4.42771 15C5.24096 15 5.51205 15 7.5 15C9.48795 15 9.75904 15 10.5723 15C11.3855 15 11.9277 14.8193 12.3795 14.6386C12.8313 14.4578 13.2831 14.1867 13.7349 13.7349C14.1867 13.2831 14.3675 12.9217 14.6386 12.3795C14.8193 11.9277 14.9096 11.3855 15 10.5723C15 9.75904 15 9.48795 15 7.5C15 5.51205 15 5.24096 15 4.42771C15 3.61446 14.8193 3.07229 14.6386 2.62048C14.4578 2.16868 14.1867 1.71687 13.7349 1.26506C13.2831 0.813254 12.9217 0.632531 12.3795 0.361446C11.9277 0.180723 11.3855 0.0903615 10.5723 0C9.75904 0 9.57831 0 7.5 0Z" fill="white"/>
    <path d="M7.5 3.61446C5.33133 3.61446 3.61446 5.33133 3.61446 7.5C3.61446 9.66868 5.33133 11.3855 7.5 11.3855C9.66868 11.3855 11.3855 9.66868 11.3855 7.5C11.3855 5.33133 9.66868 3.61446 7.5 3.61446ZM7.5 10.0301C6.14458 10.0301 4.96988 8.94578 4.96988 7.5C4.96988 6.14458 6.05422 4.96988 7.5 4.96988C8.85542 4.96988 10.0301 6.05422 10.0301 7.5C10.0301 8.85542 8.85542 10.0301 7.5 10.0301Z" fill="white"/>
    <path d="M11.4759 4.42771C11.975 4.42771 12.3795 4.02315 12.3795 3.5241C12.3795 3.02504 11.975 2.62048 11.4759 2.62048C10.9769 2.62048 10.5723 3.02504 10.5723 3.5241C10.5723 4.02315 10.9769 4.42771 11.4759 4.42771Z" fill="white"/>
</svg>
