<svg width="12" height="12" viewBox="0 0 12 12" fill="none" xmlns="http://www.w3.org/2000/svg">
<path fill-rule="evenodd" clip-rule="evenodd" d="M8.88132 0.75C9.66357 0.75 10.4161 1.05917 10.9697 1.61392C11.5238 2.1675 11.8336 2.91417 11.8336 3.69583V8.30417C11.8336 9.93167 10.5094 11.25 8.88132 11.25H3.11857C1.49048 11.25 0.166901 9.93167 0.166901 8.30417V3.69583C0.166901 2.06833 1.48465 0.75 3.11857 0.75H8.88132ZM9.8094 4.565L9.85607 4.51833C9.99548 4.34917 9.99548 4.10417 9.84965 3.935C9.76857 3.84808 9.65715 3.795 9.54107 3.78333C9.41857 3.77692 9.3019 3.81833 9.21382 3.9L6.58357 6C6.24523 6.28058 5.76048 6.28058 5.4169 6L2.7919 3.9C2.61048 3.76583 2.35965 3.78333 2.20857 3.94083C2.05107 4.09833 2.03357 4.34917 2.16715 4.52417L2.24357 4.6L4.89773 6.67083C5.2244 6.9275 5.62048 7.0675 6.03523 7.0675C6.44882 7.0675 6.8519 6.9275 7.17798 6.67083L9.8094 4.565Z" fill="white" fill-opacity="0.13"/>
</svg>
