<svg width="6" height="6" viewBox="0 0 6 6" fill="none" xmlns="http://www.w3.org/2000/svg">
<path d="M5.49999 0.499924C5.42185 0.421811 5.31589 0.37793 5.2054 0.37793C5.09492 0.37793 4.98896 0.421811 4.91082 0.499924L2.99999 2.41076L1.08915 0.499924C1.01102 0.421811 0.905053 0.37793 0.794568 0.37793C0.684083 0.37793 0.578122 0.421811 0.499985 0.499924C0.421872 0.578061 0.377991 0.684022 0.377991 0.794507C0.377991 0.904992 0.421872 1.01095 0.499985 1.08909L2.41082 2.99992L0.499985 4.91076C0.421872 4.98889 0.377991 5.09486 0.377991 5.20534C0.377991 5.31583 0.421872 5.42179 0.499985 5.49992C0.578122 5.57804 0.684083 5.62192 0.794568 5.62192C0.905053 5.62192 1.01102 5.57804 1.08915 5.49992L2.99999 3.58909L4.91082 5.49992C4.98896 5.57804 5.09492 5.62192 5.2054 5.62192C5.31589 5.62192 5.42185 5.57804 5.49999 5.49992C5.5781 5.42179 5.62198 5.31583 5.62198 5.20534C5.62198 5.09486 5.5781 4.98889 5.49999 4.91076L3.58915 2.99992L5.49999 1.08909C5.5781 1.01095 5.62198 0.904992 5.62198 0.794507C5.62198 0.684022 5.5781 0.578061 5.49999 0.499924Z" fill="#FB2740"/>
</svg>
