<svg width="12" height="12" viewBox="0 0 12 12" fill="none" xmlns="http://www.w3.org/2000/svg">
<path fill-rule="evenodd" clip-rule="evenodd" d="M5.99999 11.8332C2.77999 11.8332 0.166656 9.22567 0.166656 5.99984C0.166656 2.77984 2.77999 0.166504 5.99999 0.166504C9.22582 0.166504 11.8333 2.77984 11.8333 5.99984C11.8333 9.22567 9.22582 11.8332 5.99999 11.8332ZM7.86082 8.164C7.93082 8.20484 8.00666 8.22817 8.08832 8.22817C8.23416 8.22817 8.37999 8.15234 8.46166 8.01234C8.58416 7.80817 8.51999 7.53984 8.30999 7.4115L6.23332 6.17484V3.47984C6.23332 3.23484 6.03499 3.04234 5.79582 3.04234C5.55666 3.04234 5.35832 3.23484 5.35832 3.47984V6.42567C5.35832 6.57734 5.43999 6.71734 5.57416 6.799L7.86082 8.164Z" fill="white" fill-opacity="0.13"/>
</svg>
