<svg xmlns="http://www.w3.org/2000/svg" width="13" height="13" viewBox="0 0 13 13" fill="none">
    <path d="M0.464341 0H5.5714C5.69453 2.72038e-05 5.81259 0.0489669 5.89964 0.136046L12.8638 7.10023C13.0453 7.28144 13.0454 7.5754 12.8642 7.75682C12.8641 7.75693 12.8639 7.75707 12.8638 7.75718L7.75677 12.8642C7.57545 13.0455 7.28157 13.0455 7.10029 12.8642L0.1361 5.90005C0.0489111 5.81289 -2.86102e-05 5.69464 5.34058e-05 5.57135V0.464288C5.34058e-05 0.207865 0.207918 0 0.464341 0ZM3.25002 4.17851C3.76283 4.17851 4.17856 3.76278 4.17856 3.24996C4.17856 2.73714 3.76283 2.32141 3.25002 2.32141C2.7372 2.32141 2.32147 2.73714 2.32147 3.24996C2.32147 3.76278 2.7372 4.17851 3.25002 4.17851Z" fill="#262729"/>
</svg>