<svg width="21" height="18" viewBox="0 0 21 18" fill="none" xmlns="http://www.w3.org/2000/svg">
    <path d="M16.2241 1.00653C14.552 1.56661 10.3392 2.95464 6.87319 4.09916C0.898973 6.0635 0.558053 6.19338 0.322656 6.45312C-0.107552 6.94015 -0.107552 7.58141 0.322656 8.06843C0.501233 8.27948 1.03696 8.54735 2.84709 9.33471C4.11336 9.88667 5.16859 10.3575 5.20917 10.3899C5.24164 10.4143 5.58256 11.8835 5.95595 13.6449C6.40239 15.7148 6.70273 16.9161 6.80013 17.046C7.01118 17.3382 7.32774 17.3463 7.72548 17.0785C7.98523 16.908 10.3149 15.1872 11.0697 14.6027C11.1184 14.5703 12.0032 15.2359 13.1802 16.2018C14.4384 17.2327 15.3231 17.8983 15.5098 17.947C16.1673 18.1499 16.8573 17.7522 17.0683 17.0622C17.1251 16.8512 17.9855 13.2228 18.984 8.99379C20.3801 3.06828 20.7778 1.24192 20.7373 1.02276C20.6317 0.47891 20.0473 0 19.4953 0C19.3736 0 17.8963 0.454559 16.2241 1.00653ZM19.5116 1.39615C19.4872 1.50167 18.6674 4.99204 17.6852 9.16425C16.703 13.3365 15.8913 16.7619 15.8751 16.77C15.8589 16.7862 14.4302 15.6417 12.7013 14.2293L9.55996 11.6562L10.12 11.088C12.8474 8.27948 15.9968 4.9271 16.0618 4.75664C16.2079 4.36702 15.9238 3.9774 15.4855 3.9774C15.3556 3.9774 8.32615 7.80869 5.9803 9.15613C5.76925 9.27789 5.70432 9.25354 3.74809 8.40124C2.64416 7.92233 1.60516 7.46777 1.45906 7.3866L1.17496 7.2486L3.08248 6.62358C4.12148 6.28266 8.22875 4.93522 12.2061 3.62024C16.1835 2.30527 19.4547 1.22569 19.4953 1.22569C19.5278 1.21757 19.5359 1.29874 19.5116 1.39615ZM11.5487 7.80869C11.1996 8.18207 10.3067 9.11555 9.56807 9.88667C8.82942 10.6578 8.18816 11.3721 8.13946 11.4695C8.08264 11.5669 7.88783 12.2082 7.69302 12.8819C7.50632 13.5637 7.33586 14.1157 7.32774 14.0995C7.28716 14.067 6.47545 10.2844 6.4998 10.2682C6.55662 10.2195 12.1331 7.14308 12.1574 7.14308C12.1737 7.14308 11.8977 7.44342 11.5487 7.80869ZM9.7223 13.3527C9.94146 13.5313 10.12 13.7017 10.1119 13.7342C10.1038 13.7667 9.69795 14.0832 9.21904 14.4485C8.66707 14.8625 8.3505 15.0573 8.37486 14.9599C8.39921 14.8787 8.5372 14.4079 8.67519 13.9209C8.81318 13.4257 8.94306 12.9793 8.96741 12.9144C9.00799 12.7926 9.02423 12.8007 9.7223 13.3527Z" fill="#FB2740"></path>
</svg>