<svg width="19" height="18" viewBox="0 0 19 18" fill="none" xmlns="http://www.w3.org/2000/svg">
    <path d="M7.41851 0.0980473C4.54296 0.627941 2.09838 2.39425 0.854895 4.85296C0.360328 5.8421 0 7.31167 0 8.39265C0 9.04265 0.190762 10.2226 0.395654 10.8514C0.798373 12.0807 1.55435 13.2959 2.52229 14.2356L3.03806 14.7443V16.1362V17.528L3.28534 17.7753C3.50436 17.9943 3.56795 18.0226 3.8011 17.9873C3.94241 17.9661 4.64893 17.6411 5.36252 17.2666L6.6696 16.5813L7.23482 16.7014C9.30493 17.1182 11.7778 16.7367 13.6147 15.7052C14.1376 15.4155 14.2718 15.2459 14.2718 14.8786C14.2718 14.6737 14.2223 14.5535 14.0669 14.3981C13.7772 14.1084 13.5229 14.1296 12.7952 14.5041C11.5587 15.1329 10.4495 15.3943 9.01526 15.3943C8.37232 15.3943 7.88482 15.3519 7.41851 15.253C7.05112 15.1753 6.66253 15.1117 6.56362 15.1117C6.4647 15.1117 5.98427 15.3166 5.49676 15.5709C5.00926 15.8253 4.57122 16.0302 4.52882 16.0302C4.47937 16.0302 4.45111 15.7193 4.45111 15.0552V14.0872L3.79404 13.4514C2.67773 12.3775 2.03479 11.3671 1.70273 10.1519C1.41305 9.12744 1.39892 7.73558 1.66033 6.76764C1.81577 6.20949 2.30327 5.13557 2.62121 4.67633C3.02393 4.09698 3.9636 3.1785 4.55709 2.78284C5.28481 2.30241 5.72285 2.08338 6.4859 1.82903C9.28374 0.896421 12.4278 1.57468 14.4696 3.55295C15.1267 4.18176 15.5577 4.75405 15.8968 5.43231C16.4267 6.48503 16.6104 7.27634 16.6104 8.49156C16.6033 9.69972 16.2995 10.7595 15.5789 12.003C15.3387 12.4128 15.374 12.8084 15.6566 13.0557C15.8191 13.19 15.9039 13.2112 16.1724 13.1829C16.5821 13.1405 16.7729 12.9215 17.2392 11.9677C17.9952 10.4133 18.2283 8.90841 17.9811 7.24808C17.7338 5.58068 16.999 4.11111 15.805 2.84643C14.4272 1.39099 12.6609 0.451311 10.6049 0.0980473C9.87015 -0.0361919 8.13917 -0.0291271 7.41851 0.0980473Z" fill="#FB2740"></path>
    <path d="M11.5877 7.12087L10.0686 8.17359L9.17841 7.2975C8.38004 6.51326 8.26699 6.42141 8.04091 6.42141C7.8996 6.42141 7.70177 6.485 7.5746 6.57685C7.22134 6.8312 4.23274 10.1024 4.12676 10.3497C4.01371 10.6182 4.06317 10.8513 4.28926 11.0915C4.48709 11.3106 4.79796 11.3953 5.04524 11.2964C5.13709 11.2611 5.85774 10.7736 6.64905 10.2013L8.0833 9.16979L8.8958 9.97523C9.7507 10.816 9.9132 10.9432 10.1887 10.9432C10.4502 10.9432 10.6409 10.7736 12.1246 9.21219C14.1523 7.06435 14.1312 7.09261 14.1312 6.84533C14.1312 6.38609 13.8273 6.07521 13.3893 6.06815C13.142 6.06815 12.9301 6.19532 11.5877 7.12087Z" fill="#FB2740"></path>
</svg>