<svg width="19" height="20" viewBox="0 0 19 20" fill="none" xmlns="http://www.w3.org/2000/svg">
    <path d="M7.18602 0.0608273C4.56612 0.381472 2.64225 1.16353 1.66468 2.30534C0.976463 3.11086 0.444662 4.36998 0.178761 5.81679C0.00670828 6.74744 -0.0636771 9.90696 0.0692731 11.0018C0.4212 14.0362 1.69596 15.9601 3.90137 16.7891L4.3706 16.9611V17.9935C4.37842 19.2057 4.44881 19.581 4.72253 19.8157C5.19177 20.2223 5.51241 20.0268 6.81063 18.5096L7.57705 17.6103L9.12553 17.6024C12.2694 17.579 14.7564 16.969 15.9842 15.9132C16.8992 15.1389 17.5874 13.9971 17.9081 12.7615C18.3382 11.0644 18.4164 7.41219 18.0645 5.65256C17.3841 2.29752 15.8043 0.88199 11.9566 0.201597C10.9243 0.0139027 8.17924 -0.0643024 7.18602 0.0608273ZM10.7679 1.46853C12.9654 1.70315 14.553 2.26624 15.3742 3.07958C15.9138 3.6192 16.3596 4.54203 16.6177 5.65256C16.7897 6.37205 16.821 6.76308 16.8601 8.12387C16.9539 11.5962 16.5707 13.1994 15.3585 14.4038C14.7173 15.0451 14.2871 15.2954 13.3252 15.5769C12.1286 15.921 10.9399 16.0931 9.35233 16.14L7.88205 16.1869L6.90448 17.3835C6.37268 18.0404 5.75485 18.7599 5.54369 18.9867C4.94151 19.628 4.91805 19.5732 4.91805 17.4147V15.6395L4.45663 15.4674C3.05674 14.9591 2.07135 13.7625 1.63339 12.0655C1.28929 10.7125 1.26583 7.54514 1.59429 5.96538C2.11827 3.42369 3.41649 2.21149 6.17716 1.64841C7.4832 1.38251 9.35233 1.31212 10.7679 1.46853Z" fill="#FB2740"></path>
    <path d="M8.79856 3.68961C8.72817 3.88513 8.83766 4.04154 9.05664 4.04154C9.5728 4.04936 10.5347 4.2918 11.0744 4.54206C11.786 4.88617 12.5837 5.65258 12.9513 6.34862C13.2563 6.93516 13.4987 7.80325 13.5691 8.59313C13.6239 9.21878 13.7334 9.38301 13.9758 9.1875C14.2495 8.9607 13.8898 7.09157 13.3893 6.12964C12.9904 5.37104 12.1067 4.47949 11.395 4.13539C10.4252 3.65833 8.91587 3.40025 8.79856 3.68961Z" fill="#FB2740"></path>
    <path d="M5.34711 4.24475C4.63543 4.61232 4.04889 5.35528 4.04106 5.8949C4.03324 6.43452 4.95608 8.43659 5.78506 9.68007C6.37942 10.5638 7.60726 11.8229 8.47535 12.4251C9.34343 13.0273 10.6886 13.7702 11.3846 14.0205C11.9008 14.2082 11.9946 14.2238 12.2762 14.1378C12.6359 14.0283 13.1208 13.6217 13.4414 13.1524C13.9028 12.4798 13.8403 12.1905 13.1051 11.5805C12.3309 10.9314 11.6583 10.5325 11.3533 10.5325C10.9936 10.5325 10.8528 10.6185 10.5947 10.9861C10.2741 11.4475 10.016 11.5336 9.49984 11.3302C8.3815 10.9001 7.38046 9.90687 6.90341 8.74942C6.61404 8.04556 6.64533 7.87351 7.14584 7.38081C7.52123 7.01324 7.57598 6.9194 7.57598 6.6535C7.57598 6.30939 7.16931 5.58207 6.50455 4.72963C6.01968 4.11962 5.78506 4.01795 5.34711 4.24475Z" fill="#FB2740"></path>
    <path d="M9.25053 5.01924C9.15668 5.24604 9.28963 5.33989 9.80579 5.44155C11.2291 5.69963 12.1363 6.66157 12.2615 8.04581C12.2927 8.4603 12.3475 8.62454 12.4492 8.6871C12.7072 8.84351 12.7933 8.59326 12.7307 7.91286C12.5899 6.48951 11.6515 5.37899 10.275 5.01924C9.68066 4.87065 9.30527 4.87065 9.25053 5.01924Z" fill="#FB2740"></path>
    <path d="M9.66607 6.28601C9.63479 6.30947 9.61133 6.41896 9.61133 6.51281C9.61133 6.6614 9.67389 6.7005 10.0336 6.77871C10.6828 6.91166 10.933 7.24794 11.0425 8.10821C11.0503 8.17077 11.152 8.23334 11.2771 8.24898C11.4805 8.27244 11.4883 8.26462 11.4883 7.89705C11.4883 7.42 11.2771 6.95858 10.9174 6.64576C10.5498 6.32511 9.8303 6.11396 9.66607 6.28601Z" fill="#FB2740"></path>
</svg>