<svg width="19" height="18" viewBox="0 0 19 18" fill="none" xmlns="http://www.w3.org/2000/svg">
    <path d="M8.16962 0.0170288C8.07003 0.0312557 7.77126 0.0810509 7.49384 0.123732C6.7398 0.244661 5.72257 0.586109 4.94008 0.991581C1.48292 2.75573 -0.466189 6.49033 0.0957793 10.2534C0.223823 11.0928 0.472796 11.9464 0.807131 12.6862C0.942288 12.9779 1.0561 13.2766 1.0561 13.3478C1.0561 13.4189 0.878266 14.2725 0.664861 15.24C0.451455 16.2145 0.273617 17.1322 0.273617 17.2815C0.273617 17.6301 0.586612 17.9715 0.892493 17.9715C0.999196 17.9644 1.97375 17.7653 3.04789 17.5163L4.99699 17.0681L5.43092 17.2673C6.56197 17.7795 7.65745 18 9.09438 18C10.6594 18 11.8544 17.7297 13.1847 17.0681C13.8818 16.7196 14.0738 16.5204 14.0738 16.1576C14.0738 15.7948 13.9316 15.5885 13.6115 15.4818C13.3767 15.4036 13.3056 15.4249 12.5231 15.7877C11.5628 16.243 11.1573 16.371 10.2681 16.5133C8.74582 16.7622 7.08125 16.5133 5.7368 15.8304C5.19617 15.5601 5.13215 15.5601 3.24707 16.0011C2.50726 16.1718 1.90973 16.2856 1.90973 16.2501C1.90973 16.2145 2.052 15.5458 2.22983 14.7562C2.40767 13.9666 2.54994 13.2482 2.54994 13.1628C2.54994 13.0774 2.38633 12.672 2.19427 12.2594C1.99509 11.8468 1.74612 11.1924 1.64653 10.8082C1.48292 10.1965 1.46157 9.97595 1.46157 8.97295C1.46157 7.97705 1.48292 7.74942 1.64653 7.15189C2.22272 4.96804 3.75924 3.11852 5.80082 2.14397C7.7357 1.2121 10.133 1.16942 12.1461 2.03015C13.7608 2.72017 15.3898 4.31359 16.0941 5.90702C17.1113 8.2118 16.9619 10.7869 15.6744 12.9209C15.2831 13.5612 15.2618 13.8315 15.5606 14.1374C15.8309 14.4077 16.2435 14.4219 16.5067 14.18C16.7485 13.9524 17.2109 13.1486 17.5097 12.423C18.6621 9.6345 18.342 6.54012 16.6347 3.98637C16.1581 3.27502 14.9132 2.02304 14.2161 1.56066C12.6796 0.529202 11.2213 0.0668221 9.37892 0.0099144C8.80984 -0.00431252 8.26921 -0.00431252 8.16962 0.0170288Z" fill="#FB2740"></path>
    <path d="M5.92161 5.09612C5.7082 5.18148 5.33119 5.64386 5.13912 6.04933C4.91149 6.53305 4.90438 7.30131 5.11778 7.94153C5.50191 9.05835 7.28029 11.1568 8.41845 11.8255C9.35744 12.3732 10.7659 12.8499 11.4559 12.8499C12.1602 12.8499 12.9782 12.3804 13.2272 11.8255C13.2983 11.6619 13.3623 11.3702 13.3623 11.1568V10.7798L12.3949 10.3174C11.7334 9.99733 11.3777 9.86218 11.271 9.89774C11.1927 9.91908 10.9509 10.1609 10.7375 10.4313C10.4529 10.8012 10.3106 10.9292 10.1826 10.9292C9.85538 10.9292 8.80258 10.3246 8.21216 9.79815C7.83515 9.45671 7.10245 8.46081 7.10245 8.28298C7.10245 8.21184 7.24472 7.96998 7.42256 7.74946C7.62885 7.49337 7.74267 7.28708 7.74267 7.15904C7.74267 6.93141 7.09534 5.35221 6.9175 5.16014C6.78946 5.01787 6.21326 4.97519 5.92161 5.09612Z" fill="#FB2740"></path>
</svg>